<?xml version="1.0" encoding="UTF-8"?>
<svg id="Laag_1" data-name="Laag 1" xmlns="http://www.w3.org/2000/svg" viewBox="0 0 595.28 594.69">
  <defs>
    <style>
      .cls-1, .cls-2, .cls-3, .cls-4, .cls-5, .cls-6, .cls-7, .cls-8, .cls-9, .cls-10, .cls-11, .cls-12, .cls-13 {
        fill: none;
        stroke-miterlimit: 10;
      }

      .cls-1, .cls-3 {
        stroke-width: .25px;
      }

      .cls-1, .cls-12 {
        stroke: #b2b2b2;
      }

      .cls-2 {
        stroke-dasharray: 0 0 0 2.02;
      }

      .cls-2, .cls-3, .cls-4, .cls-5, .cls-6, .cls-7, .cls-8, .cls-9, .cls-10, .cls-11, .cls-13 {
        stroke: #1d1d1b;
      }

      .cls-2, .cls-4, .cls-5, .cls-6, .cls-7, .cls-9, .cls-10, .cls-11, .cls-13 {
        stroke-linecap: round;
        stroke-width: .5px;
      }

      .cls-14 {
        letter-spacing: -.01em;
      }

      .cls-15 {
        letter-spacing: .01em;
      }

      .cls-4 {
        stroke-dasharray: 0 0 0 2;
      }

      .cls-16 {
        letter-spacing: 0em;
      }

      .cls-17, .cls-18, .cls-19, .cls-20, .cls-21, .cls-22, .cls-23, .cls-24, .cls-25 {
        stroke-width: 0px;
      }

      .cls-17, .cls-26 {
        fill: #b2b2b2;
      }

      .cls-18 {
        fill: #6f4494;
      }

      .cls-27 {
        letter-spacing: 0em;
      }

      .cls-28 {
        letter-spacing: 0em;
      }

      .cls-19 {
        fill: #ccc131;
      }

      .cls-6 {
        stroke-dasharray: 0 0 0 2.01;
      }

      .cls-20 {
        fill: #de3d21;
      }

      .cls-7 {
        stroke-dasharray: 0 0 0 2.01;
      }

      .cls-29 {
        letter-spacing: 0em;
      }

      .cls-30 {
        letter-spacing: .1em;
      }

      .cls-31 {
        letter-spacing: 0em;
      }

      .cls-32 {
        letter-spacing: 0em;
      }

      .cls-33 {
        letter-spacing: .02em;
      }

      .cls-34 {
        letter-spacing: 0em;
      }

      .cls-9 {
        stroke-dasharray: 0 0 0 2;
      }

      .cls-10 {
        stroke-dasharray: 0 0 0 2.02;
      }

      .cls-26, .cls-35 {
        font-size: 8px;
      }

      .cls-26, .cls-35, .cls-36 {
        font-family: MyriadPro-Regular, 'Myriad Pro';
      }

      .cls-37 {
        letter-spacing: 0em;
      }

      .cls-21 {
        fill: #d68529;
      }

      .cls-38 {
        letter-spacing: 0em;
      }

      .cls-39 {
        letter-spacing: .02em;
      }

      .cls-40 {
        letter-spacing: .03em;
      }

      .cls-22 {
        fill: #35bbd9;
      }

      .cls-23 {
        fill: #77b82a;
      }

      .cls-41 {
        letter-spacing: 0em;
      }

      .cls-24 {
        fill: #c03e8f;
      }

      .cls-42 {
        letter-spacing: 0em;
      }

      .cls-43 {
        letter-spacing: 0em;
      }

      .cls-44 {
        letter-spacing: -.01em;
      }

      .cls-11 {
        stroke-dasharray: 0 0 0 1.98;
      }

      .cls-45 {
        letter-spacing: -.04em;
      }

      .cls-46 {
        letter-spacing: 0em;
      }

      .cls-47 {
        letter-spacing: 0em;
      }

      .cls-48 {
        letter-spacing: .03em;
      }

      .cls-35, .cls-25, .cls-36 {
        fill: #1d1d1b;
      }

      .cls-49 {
        letter-spacing: -.01em;
      }

      .cls-50 {
        letter-spacing: 0em;
      }

      .cls-51 {
        letter-spacing: 0em;
      }

      .cls-52 {
        letter-spacing: 0em;
      }

      .cls-13 {
        stroke-dasharray: 0 0 0 1.99;
      }

      .cls-53 {
        letter-spacing: -.01em;
      }

      .cls-54 {
        letter-spacing: -.01em;
      }

      .cls-55 {
        letter-spacing: 0em;
      }

      .cls-36 {
        font-size: 12px;
      }
    </style>
  </defs>
  <rect class="cls-1" x="63.45" y="457.72" width="24.17" height="24.17"/>
  <g>
    <line class="cls-12" x1="290.22" y1="230.52" x2="361.98" y2="302.27"/>
    <polygon class="cls-17" points="356.74 302.82 356.78 301.82 361.71 302 361.53 297.07 362.53 297.04 362.74 303.04 356.74 302.82"/>
  </g>
  <g>
    <polyline class="cls-8" points="290.22 301.96 290.22 230.52 361.88 230.52"/>
    <polygon class="cls-25" points="294.31 298.64 293.58 297.96 290.22 301.57 286.87 297.96 286.13 298.64 290.22 303.04 294.31 298.64"/>
    <polygon class="cls-25" points="359.23 233.79 358.68 233.2 361.57 230.52 358.68 227.83 359.23 227.25 362.75 230.52 359.23 233.79"/>
  </g>
  <g>
    <line class="cls-12" x1="410.37" y1="409.23" x2="553.8" y2="552.65"/>
    <polygon class="cls-17" points="548.56 553.2 548.6 552.2 553.53 552.38 553.35 547.46 554.35 547.42 554.57 553.42 548.56 553.2"/>
  </g>
  <rect class="cls-1" x="410.37" y="524.58" width="28.84" height="28.84"/>
  <rect class="cls-1" x="458.68" y="38.61" width="24.17" height="24.17"/>
  <rect class="cls-1" x="214.62" y="253.97" width="25.64" height="25.64" transform="translate(-122.03 238.96) rotate(-45)"/>
  <rect class="cls-1" x="470.08" y="271.68" width="25.39" height="25.39" transform="translate(-59.68 424.66) rotate(-45)"/>
  <rect class="cls-1" x="410.33" y="38.61" width="24.17" height="24.17"/>
  <rect class="cls-1" x="434.5" y="38.61" width="24.17" height="24.17"/>
  <rect class="cls-1" x="410.33" y="62.78" width="24.17" height="24.17"/>
  <rect class="cls-1" x="434.5" y="62.78" width="24.17" height="24.17"/>
  <rect class="cls-1" x="458.68" y="62.78" width="24.17" height="24.17"/>
  <rect class="cls-1" x="410.33" y="86.96" width="24.17" height="24.17"/>
  <rect class="cls-1" x="434.5" y="86.96" width="24.17" height="24.17"/>
  <rect class="cls-1" x="458.68" y="86.96" width="24.17" height="24.17"/>
  <g>
    <line class="cls-12" x1="411.64" y1="230.52" x2="553.49" y2="230.52"/>
    <polygon class="cls-17" points="550.18 234.61 549.5 233.87 553.11 230.52 549.5 227.16 550.18 226.43 554.58 230.52 550.18 234.61"/>
  </g>
  <text class="cls-35" transform="translate(430.2 116.81)"><tspan x="0" y="0">geomet</tspan><tspan class="cls-48" x="26.2" y="0">r</tspan><tspan class="cls-43" x="29.02" y="0">y</tspan></text>
  <text class="cls-35" transform="translate(409.28 82.29) rotate(-90)"><tspan x="0" y="0">d</tspan><tspan class="cls-50" x="4.51" y="0">a</tspan><tspan class="cls-43" x="8.34" y="0">ta</tspan></text>
  <text class="cls-26" transform="translate(485.69 39.79) rotate(-45)"><tspan x="0" y="0">le</tspan><tspan class="cls-53" x="5.9" y="0">v</tspan><tspan x="9.66" y="0">el of output</tspan></text>
  <g>
    <line class="cls-12" x1="410.33" y1="111.13" x2="482.08" y2="39.38"/>
    <polygon class="cls-17" points="482.63 44.61 481.63 44.58 481.81 39.65 476.88 39.83 476.85 38.83 482.85 38.61 482.63 44.61"/>
  </g>
  <g>
    <polyline class="cls-8" points="481.77 111.13 410.33 111.13 410.33 39.48"/>
    <polygon class="cls-25" points="478.45 107.04 477.77 107.77 481.38 111.13 477.77 114.49 478.45 115.22 482.85 111.13 478.45 107.04"/>
    <polygon class="cls-25" points="413.6 42.13 413.01 42.67 410.33 39.79 407.64 42.67 407.06 42.13 410.33 38.61 413.6 42.13"/>
  </g>
  <text class="cls-35" transform="translate(428.34 209.42) rotate(-45)"><tspan x="0" y="0">le</tspan><tspan class="cls-53" x="5.9" y="0">v</tspan><tspan x="9.66" y="0">el of output</tspan></text>
  <text class="cls-35" transform="translate(426.09 256.43) rotate(45)"><tspan x="0" y="0">le</tspan><tspan class="cls-53" x="5.9" y="0">v</tspan><tspan x="9.66" y="0">el of input</tspan></text>
  <g>
    <line class="cls-5" x1="410.33" y1="111.13" x2="410.33" y2="111.13"/>
    <line class="cls-13" x1="410.33" y1="113.12" x2="410.33" y2="229.52"/>
    <line class="cls-5" x1="410.33" y1="230.52" x2="410.33" y2="230.52"/>
  </g>
  <g>
    <line class="cls-5" x1="482.85" y1="111.13" x2="482.85" y2="111.13"/>
    <line class="cls-11" x1="482.85" y1="113.11" x2="482.85" y2="157.72"/>
    <line class="cls-5" x1="482.85" y1="158.72" x2="482.85" y2="158.72"/>
  </g>
  <text class="cls-26" transform="translate(555.89 228.56)"><tspan x="0" y="0">desi</tspan><tspan class="cls-42" x="13.56" y="0">g</tspan><tspan x="17.98" y="0">n </tspan><tspan x="0" y="9.6">p</tspan><tspan class="cls-53" x="4.55" y="9.6">r</tspan><tspan x="7.09" y="9.6">oblem</tspan></text>
  <rect class="cls-1" x="470.08" y="163.97" width="25.39" height="25.39" transform="translate(16.48 393.12) rotate(-45)"/>
  <rect class="cls-1" x="488.03" y="181.92" width="25.39" height="25.39" transform="translate(9.05 411.07) rotate(-45)"/>
  <rect class="cls-1" x="505.98" y="199.87" width="25.39" height="25.39" transform="translate(1.61 429.02) rotate(-45)"/>
  <rect class="cls-1" x="523.93" y="217.82" width="25.39" height="25.39" transform="translate(-5.82 446.97) rotate(-45)"/>
  <rect class="cls-1" x="452.13" y="181.92" width="25.39" height="25.39" transform="translate(-1.47 385.68) rotate(-45)"/>
  <rect class="cls-1" x="470.08" y="199.87" width="25.39" height="25.39" transform="translate(-8.9 403.63) rotate(-45)"/>
  <rect class="cls-1" x="488.03" y="217.82" width="25.39" height="25.39" transform="translate(-16.34 421.58) rotate(-45)"/>
  <rect class="cls-1" x="505.98" y="235.77" width="25.39" height="25.39" transform="translate(-23.78 439.53) rotate(-45)"/>
  <rect class="cls-1" x="434.18" y="199.87" width="25.39" height="25.39" transform="translate(-19.42 378.25) rotate(-45)"/>
  <rect class="cls-1" x="452.13" y="217.82" width="25.39" height="25.39" transform="translate(-26.86 396.2) rotate(-45)"/>
  <rect class="cls-1" x="470.08" y="235.77" width="25.39" height="25.39" transform="translate(-34.29 414.15) rotate(-45)"/>
  <rect class="cls-1" x="488.03" y="253.72" width="25.39" height="25.39" transform="translate(-41.73 432.1) rotate(-45)"/>
  <rect class="cls-1" x="416.23" y="217.82" width="25.39" height="25.39" transform="translate(-37.37 370.81) rotate(-45)"/>
  <rect class="cls-1" x="434.18" y="235.77" width="25.39" height="25.39" transform="translate(-44.81 388.76) rotate(-45)"/>
  <rect class="cls-1" x="452.13" y="253.72" width="25.39" height="25.39" transform="translate(-52.24 406.71) rotate(-45)"/>
  <g>
    <path class="cls-8" d="m482.01,301.73c-7.71-7.71-71.21-71.21-71.21-71.21l71.21-71.21"/>
    <polygon class="cls-25" points="482.56 296.49 481.56 296.53 481.74 301.46 476.81 301.28 476.77 302.28 482.78 302.49 482.56 296.49"/>
    <polygon class="cls-25" points="482.56 164.54 481.56 164.5 481.74 159.58 476.81 159.76 476.77 158.76 482.78 158.54 482.56 164.54"/>
  </g>
  <rect class="cls-1" x="338.57" y="230.52" width="24.17" height="24.17"/>
  <rect class="cls-1" x="338.57" y="254.69" width="24.17" height="24.17"/>
  <rect class="cls-1" x="338.57" y="278.87" width="24.17" height="24.17"/>
  <rect class="cls-1" x="314.4" y="230.52" width="24.17" height="24.17"/>
  <rect class="cls-1" x="314.4" y="254.69" width="24.17" height="24.17"/>
  <rect class="cls-1" x="314.4" y="278.87" width="24.17" height="24.17"/>
  <rect class="cls-1" x="290.22" y="230.52" width="24.17" height="24.17"/>
  <rect class="cls-1" x="290.22" y="254.69" width="24.17" height="24.17"/>
  <rect class="cls-1" x="290.22" y="278.87" width="24.17" height="24.17"/>
  <text class="cls-35" transform="translate(289.17 292.92) rotate(-90)"><tspan x="0" y="0">d</tspan><tspan class="cls-50" x="4.51" y="0">a</tspan><tspan class="cls-43" x="8.34" y="0">ta </tspan><tspan class="cls-32" x="16.54" y="0">a</tspan><tspan class="cls-50" x="20.33" y="0">v</tspan><tspan x="24.14" y="0">ailabili</tspan><tspan class="cls-46" x="45.8" y="0">t</tspan><tspan x="48.52" y="0">y</tspan></text>
  <g>
    <path class="cls-25" d="m310.9,214.91c0,.24-.17.43-.45.43-.25,0-.42-.19-.42-.43s.18-.44.44-.44.43.19.43.44Zm-.78,4.96v-3.87h.7v3.87h-.7Z"/>
    <path class="cls-25" d="m311.98,214.19h.7v5.68h-.7v-5.68Z"/>
    <path class="cls-25" d="m313.87,214.19h.7v5.68h-.7v-5.68Z"/>
    <path class="cls-25" d="m317.39,217.45v.52h-1.98v-.52h1.98Z"/>
    <path class="cls-25" d="m321.7,214.19v4.68c0,.34,0,.74.03,1h-.63l-.03-.67h-.02c-.22.43-.69.76-1.32.76-.94,0-1.66-.79-1.66-1.97,0-1.29.79-2.08,1.74-2.08.59,0,.99.28,1.17.59h.02v-2.31h.7Zm-.7,3.38c0-.09,0-.21-.03-.3-.1-.45-.49-.82-1.02-.82-.73,0-1.16.64-1.16,1.5,0,.78.38,1.43,1.14,1.43.47,0,.9-.31,1.03-.84.02-.1.03-.19.03-.3v-.67Z"/>
    <path class="cls-25" d="m323.26,218.06c.02.95.62,1.34,1.33,1.34.5,0,.81-.09,1.07-.2l.12.5c-.25.11-.67.24-1.29.24-1.19,0-1.9-.78-1.9-1.95s.69-2.09,1.82-2.09c1.26,0,1.6,1.11,1.6,1.82,0,.14-.02.26-.02.33h-2.72Zm2.06-.5c0-.45-.18-1.14-.98-1.14-.71,0-1.02.66-1.08,1.14h2.06Z"/>
    <path class="cls-25" d="m326.95,219.87v-3.33h-.54v-.54h.54v-.21c0-1.02.6-1.69,1.69-1.69.36,0,.78.11.98.26l-.2.54c-.17-.12-.47-.22-.82-.22-.74,0-.96.52-.96,1.14v.19h2.25v3.87h-.7v-3.33h-1.55v3.33h-.7Z"/>
    <path class="cls-25" d="m331.06,217.05c0-.4,0-.73-.03-1.05h.62l.04.64h.02c.19-.37.64-.73,1.28-.73.54,0,1.37.32,1.37,1.65v2.31h-.7v-2.23c0-.62-.23-1.14-.9-1.14-.46,0-.82.33-.94.72-.03.09-.05.21-.05.33v2.33h-.7v-2.82Z"/>
    <path class="cls-25" d="m335.9,218.06c.02.95.62,1.34,1.33,1.34.5,0,.81-.09,1.07-.2l.12.5c-.25.11-.67.24-1.29.24-1.19,0-1.9-.78-1.9-1.95s.69-2.09,1.82-2.09c1.26,0,1.6,1.11,1.6,1.82,0,.14-.02.26-.02.33h-2.72Zm2.06-.5c0-.45-.18-1.14-.98-1.14-.71,0-1.02.66-1.08,1.14h2.06Z"/>
    <path class="cls-25" d="m342.85,214.19v4.68c0,.34,0,.74.03,1h-.63l-.03-.67h-.02c-.22.43-.69.76-1.32.76-.94,0-1.66-.79-1.66-1.97,0-1.29.79-2.08,1.74-2.08.59,0,.99.28,1.17.59h.02v-2.31h.7Zm-.7,3.38c0-.09,0-.21-.03-.3-.1-.45-.49-.82-1.02-.82-.73,0-1.16.64-1.16,1.5,0,.78.38,1.43,1.14,1.43.47,0,.9-.31,1.03-.84.02-.1.03-.19.03-.3v-.67Z"/>
    <path class="cls-25" d="m299.88,226.86c0-.5-.02-.9-.03-1.26h.63l.03.66h.02c.29-.47.74-.75,1.38-.75.94,0,1.64.79,1.64,1.97,0,1.39-.85,2.08-1.76,2.08-.51,0-.96-.22-1.19-.61h-.02v2.1h-.7v-4.19Zm.7,1.03c0,.1.02.2.03.29.13.49.55.82,1.06.82.74,0,1.17-.61,1.17-1.5,0-.78-.41-1.44-1.15-1.44-.48,0-.93.34-1.06.87-.02.09-.05.19-.05.29v.66Z"/>
    <path class="cls-25" d="m304.43,226.81c0-.46,0-.85-.03-1.21h.62l.02.76h.03c.18-.52.6-.85,1.07-.85.08,0,.14,0,.2.02v.66c-.07-.02-.14-.02-.24-.02-.5,0-.85.38-.94.9-.02.1-.03.21-.03.33v2.06h-.7v-2.66Z"/>
    <path class="cls-25" d="m310.47,227.5c0,1.43-.99,2.05-1.93,2.05-1.05,0-1.85-.77-1.85-1.99,0-1.3.85-2.06,1.92-2.06s1.86.81,1.86,1.99Zm-3.07.04c0,.85.49,1.49,1.17,1.49s1.18-.63,1.18-1.5c0-.66-.33-1.49-1.16-1.49s-1.19.77-1.19,1.5Z"/>
    <path class="cls-25" d="m311.33,229.47c.02-.26.03-.66.03-1v-4.68h.7v2.43h.02c.25-.43.7-.71,1.32-.71.96,0,1.64.8,1.63,1.98,0,1.38-.87,2.07-1.74,2.07-.56,0-1.01-.22-1.29-.73h-.02l-.03.64h-.61Zm.73-1.55c0,.09.02.18.03.26.14.49.54.82,1.06.82.74,0,1.17-.6,1.17-1.49,0-.78-.4-1.44-1.15-1.44-.48,0-.93.33-1.07.86-.02.08-.04.18-.04.29v.7Z"/>
    <path class="cls-25" d="m315.91,223.79h.7v5.68h-.7v-5.68Z"/>
    <path class="cls-25" d="m318.19,227.66c.02.95.62,1.34,1.33,1.34.5,0,.81-.09,1.07-.2l.12.5c-.25.11-.67.24-1.29.24-1.19,0-1.9-.78-1.9-1.95s.69-2.09,1.81-2.09c1.26,0,1.6,1.11,1.6,1.82,0,.14-.02.26-.02.33h-2.72Zm2.06-.5c0-.45-.18-1.14-.98-1.14-.71,0-1.02.66-1.08,1.14h2.05Z"/>
    <path class="cls-25" d="m321.81,226.65c0-.4,0-.73-.03-1.05h.62l.03.62h.02c.22-.37.58-.71,1.22-.71.53,0,.93.32,1.1.78h.02c.12-.22.27-.38.43-.5.23-.18.49-.27.86-.27.51,0,1.27.34,1.27,1.68v2.28h-.69v-2.19c0-.74-.27-1.19-.84-1.19-.4,0-.71.3-.83.64-.03.1-.06.22-.06.35v2.39h-.69v-2.32c0-.62-.27-1.06-.81-1.06-.44,0-.76.35-.87.7-.04.1-.06.22-.06.34v2.33h-.69v-2.82Z"/>
    <path class="cls-25" d="m330.08,228.75c.21.14.58.28.93.28.51,0,.75-.26.75-.58,0-.34-.2-.52-.72-.71-.7-.25-1.02-.63-1.02-1.1,0-.62.5-1.14,1.34-1.14.39,0,.74.11.95.24l-.18.51c-.15-.1-.43-.22-.79-.22-.42,0-.65.24-.65.53,0,.32.23.46.74.66.67.26,1.02.59,1.02,1.17,0,.68-.53,1.16-1.45,1.16-.42,0-.82-.1-1.09-.26l.18-.54Z"/>
    <path class="cls-25" d="m336.85,227.5c0,1.43-.99,2.05-1.93,2.05-1.05,0-1.86-.77-1.86-1.99,0-1.3.85-2.06,1.92-2.06s1.86.81,1.86,1.99Zm-3.07.04c0,.85.49,1.49,1.18,1.49s1.17-.63,1.17-1.5c0-.66-.33-1.49-1.16-1.49s-1.19.77-1.19,1.5Z"/>
    <path class="cls-25" d="m337.74,223.79h.7v5.68h-.7v-5.68Z"/>
    <path class="cls-25" d="m339.9,225.6l.76,2.17c.13.35.23.67.31.99h.02c.09-.32.2-.64.33-.99l.75-2.17h.74l-1.52,3.87h-.67l-1.47-3.87h.75Z"/>
    <path class="cls-25" d="m344.25,224.51c0,.24-.17.43-.45.43-.25,0-.42-.19-.42-.43s.18-.44.44-.44.43.19.43.44Zm-.78,4.96v-3.87h.7v3.87h-.7Z"/>
    <path class="cls-25" d="m345.34,226.65c0-.4,0-.73-.03-1.05h.62l.04.64h.02c.19-.37.64-.73,1.28-.73.54,0,1.37.32,1.37,1.65v2.31h-.7v-2.23c0-.62-.23-1.14-.9-1.14-.46,0-.82.33-.94.72-.03.09-.05.21-.05.33v2.33h-.7v-2.82Z"/>
    <path class="cls-25" d="m353.12,225.6c-.02.28-.03.59-.03,1.06v2.25c0,.89-.18,1.43-.55,1.77-.38.35-.92.46-1.41.46-.46,0-.97-.11-1.29-.32l.18-.54c.26.16.66.3,1.14.3.72,0,1.25-.38,1.25-1.35v-.43h-.02c-.22.36-.63.65-1.23.65-.96,0-1.65-.82-1.65-1.89,0-1.31.86-2.06,1.74-2.06.67,0,1.04.35,1.21.67h.02l.03-.58h.62Zm-.73,1.53c0-.12,0-.22-.04-.32-.13-.41-.47-.74-.98-.74-.67,0-1.15.57-1.15,1.46,0,.76.38,1.39,1.14,1.39.43,0,.82-.27.98-.72.04-.12.06-.26.06-.38v-.7Z"/>
  </g>
  <text class="cls-26" transform="translate(361.25 305.56) rotate(45)"><tspan x="0" y="0">le</tspan><tspan class="cls-53" x="5.9" y="0">v</tspan><tspan x="9.66" y="0">el of input</tspan></text>
  <g>
    <line class="cls-5" x1="362.75" y1="230.52" x2="362.75" y2="230.52"/>
    <line class="cls-11" x1="364.73" y1="230.52" x2="409.34" y2="230.52"/>
    <line class="cls-5" x1="410.33" y1="230.52" x2="410.33" y2="230.52"/>
  </g>
  <g>
    <line class="cls-5" x1="482.78" y1="302.32" x2="482.78" y2="302.32"/>
    <line class="cls-9" x1="480.78" y1="302.33" x2="363.89" y2="303.03"/>
    <line class="cls-5" x1="362.89" y1="303.04" x2="362.89" y2="303.04"/>
  </g>
  <rect class="cls-3" x="290.22" y="230.52" width="72.52" height="72.52" transform="translate(593.26 -59.71) rotate(90)"/>
  <rect class="cls-3" x="432" y="179.75" width="101.54" height="101.54" transform="translate(-21.6 408.89) rotate(-45)"/>
  <g>
    <line class="cls-12" x1="209.31" y1="230.53" x2="209.31" y2="302.18"/>
    <polygon class="cls-17" points="206.03 299.53 206.62 298.98 209.31 301.87 211.99 298.98 212.58 299.53 209.31 303.05 206.03 299.53"/>
  </g>
  <rect class="cls-1" x="178.36" y="253.97" width="25.64" height="25.64" transform="translate(-132.65 213.32) rotate(-45)"/>
  <rect class="cls-1" x="196.49" y="235.84" width="25.64" height="25.64" transform="translate(-114.52 220.83) rotate(-45)"/>
  <rect class="cls-1" x="196.49" y="272.1" width="25.64" height="25.64" transform="translate(-140.16 231.45) rotate(-45)"/>
  <rect class="cls-3" x="183.67" y="241.15" width="51.28" height="51.28" transform="translate(545.96 307.43) rotate(135)"/>
  <g>
    <polyline class="cls-8" points="244.8 266.02 209.31 230.53 173.66 266.17"/>
    <polygon class="cls-25" points="245.35 260.79 244.35 260.82 244.53 265.75 239.6 265.57 239.57 266.57 245.57 266.79 245.35 260.79"/>
    <polygon class="cls-25" points="173.22 261.99 174.02 262.02 173.88 265.96 177.82 265.81 177.85 266.61 173.05 266.79 173.22 261.99"/>
  </g>
  <g>
    <line class="cls-5" x1="290.22" y1="303.04" x2="290.22" y2="303.04"/>
    <line class="cls-10" x1="288.2" y1="303.04" x2="210.32" y2="303.04"/>
    <line class="cls-5" x1="209.31" y1="303.04" x2="209.31" y2="303.04"/>
  </g>
  <g>
    <line class="cls-5" x1="290.22" y1="230.52" x2="290.22" y2="230.52"/>
    <line class="cls-2" x1="288.2" y1="230.52" x2="210.31" y2="230.52"/>
    <line class="cls-5" x1="209.3" y1="230.52" x2="209.3" y2="230.52"/>
  </g>
  <rect class="cls-3" x="410.33" y="38.61" width="72.52" height="72.52"/>
  <text class="cls-35" transform="translate(176.42 261.04) rotate(-45)"><tspan class="cls-52" x="0" y="0">e</tspan><tspan x="3.98" y="0">xisting d</tspan><tspan class="cls-31" x="32.37" y="0">a</tspan><tspan class="cls-47" x="36.19" y="0">ta</tspan></text>
  <text class="cls-35" transform="translate(210.59 229.2) rotate(45)"><tspan x="0" y="0">gene</tspan><tspan class="cls-34" x="16.93" y="0">r</tspan><tspan class="cls-50" x="19.5" y="0">a</tspan><tspan class="cls-51" x="23.33" y="0">t</tspan><tspan x="25.93" y="0">e d</tspan><tspan class="cls-50" x="36.14" y="0">a</tspan><tspan x="39.97" y="0">ta</tspan></text>
  <text class="cls-35" transform="translate(455.14 407.56)"><tspan x="0" y="0">desi</tspan><tspan class="cls-42" x="13.56" y="0">g</tspan><tspan x="17.98" y="0">n p</tspan><tspan class="cls-53" x="28.67" y="0">r</tspan><tspan x="31.21" y="0">oblem</tspan></text>
  <g>
    <path class="cls-8" d="m410.37,552.34v-143.11h143.11"/>
    <polygon class="cls-25" points="414.46 549.02 413.73 548.34 410.37 551.95 407.02 548.34 406.28 549.02 410.37 553.42 414.46 549.02"/>
    <polygon class="cls-25" points="550.17 413.32 549.49 412.59 553.1 409.23 549.49 405.87 550.17 405.14 554.57 409.23 550.17 413.32"/>
  </g>
  <text class="cls-35" transform="translate(407.71 506.69) rotate(-90)"><tspan x="0" y="0">desi</tspan><tspan class="cls-42" x="13.56" y="0">g</tspan><tspan x="17.98" y="0">n p</tspan><tspan class="cls-53" x="28.67" y="0">r</tspan><tspan x="31.21" y="0">o</tspan><tspan class="cls-42" x="35.6" y="0">c</tspan><tspan x="39.14" y="0">ess</tspan></text>
  <g>
    <line class="cls-5" x1="410.33" y1="230.52" x2="410.33" y2="230.52"/>
    <line class="cls-6" x1="410.33" y1="232.53" x2="410.33" y2="408.22"/>
    <line class="cls-5" x1="410.33" y1="409.23" x2="410.33" y2="409.23"/>
  </g>
  <g>
    <line class="cls-5" x1="554.58" y1="230.52" x2="554.58" y2="230.52"/>
    <line class="cls-7" x1="554.58" y1="232.52" x2="554.58" y2="408.22"/>
    <line class="cls-5" x1="554.58" y1="409.23" x2="554.58" y2="409.23"/>
  </g>
  <rect class="cls-1" x="410.37" y="409.23" width="28.84" height="28.84"/>
  <rect class="cls-1" x="439.21" y="409.23" width="28.84" height="28.84"/>
  <rect class="cls-1" x="468.05" y="409.23" width="28.84" height="28.84"/>
  <rect class="cls-1" x="496.89" y="409.23" width="28.84" height="28.84"/>
  <rect class="cls-1" x="525.73" y="409.23" width="28.84" height="28.84"/>
  <rect class="cls-1" x="410.37" y="438.07" width="28.84" height="28.84"/>
  <rect class="cls-1" x="439.21" y="438.07" width="28.84" height="28.84"/>
  <rect class="cls-1" x="468.05" y="438.07" width="28.84" height="28.84"/>
  <rect class="cls-1" x="496.89" y="438.07" width="28.84" height="28.84"/>
  <rect class="cls-1" x="525.73" y="438.07" width="28.84" height="28.84"/>
  <rect class="cls-1" x="410.37" y="466.91" width="28.84" height="28.84"/>
  <rect class="cls-1" x="439.21" y="466.91" width="28.84" height="28.84"/>
  <rect class="cls-1" x="468.05" y="466.91" width="28.84" height="28.84"/>
  <rect class="cls-1" x="496.89" y="466.91" width="28.84" height="28.84"/>
  <rect class="cls-1" x="525.73" y="466.91" width="28.84" height="28.84"/>
  <rect class="cls-1" x="410.37" y="495.74" width="28.84" height="28.84"/>
  <rect class="cls-1" x="439.21" y="495.74" width="28.84" height="28.84"/>
  <rect class="cls-1" x="468.05" y="495.74" width="28.84" height="28.84"/>
  <rect class="cls-1" x="496.89" y="495.74" width="28.84" height="28.84"/>
  <rect class="cls-1" x="525.73" y="495.74" width="28.84" height="28.84"/>
  <rect class="cls-1" x="439.21" y="524.58" width="28.84" height="28.84"/>
  <rect class="cls-1" x="468.05" y="524.58" width="28.84" height="28.84"/>
  <rect class="cls-1" x="496.89" y="524.58" width="28.84" height="28.84"/>
  <rect class="cls-1" x="525.73" y="524.58" width="28.84" height="28.84"/>
  <rect class="cls-3" x="410.37" y="409.23" width="144.19" height="144.19"/>
  <g>
    <line class="cls-12" x1="231.68" y1="409.23" x2="231.68" y2="552.55"/>
    <polygon class="cls-17" points="228.4 549.9 228.99 549.36 231.68 552.25 234.36 549.36 234.95 549.9 231.68 553.42 228.4 549.9"/>
  </g>
  <rect class="cls-3" x="180.77" y="430.52" width="101.82" height="101.82" transform="translate(735.92 658.03) rotate(135)"/>
  <text class="cls-35" transform="translate(169.61 468.43) rotate(-45)"><tspan x="0" y="0">le</tspan><tspan class="cls-53" x="5.9" y="0">v</tspan><tspan x="9.66" y="0">el of </tspan><tspan class="cls-42" x="25.68" y="0">c</tspan><tspan x="29.21" y="0">ollabo</tspan><tspan class="cls-34" x="50.18" y="0">r</tspan><tspan class="cls-50" x="52.76" y="0">a</tspan><tspan x="56.58" y="0">tion</tspan></text>
  <text class="cls-35" transform="translate(249.15 423.83) rotate(45)"><tspan x="0" y="0">le</tspan><tspan class="cls-53" x="5.9" y="0">v</tspan><tspan x="9.66" y="0">el of c</tspan><tspan class="cls-53" x="29.26" y="0">r</tspan><tspan x="31.8" y="0">e</tspan><tspan class="cls-50" x="35.81" y="0">a</tspan><tspan x="39.63" y="0">tivi</tspan><tspan class="cls-46" x="49.87" y="0">t</tspan><tspan x="52.59" y="0">y</tspan></text>
  <text class="cls-26" transform="translate(230.01 584.79) rotate(-90)"><tspan x="0" y="0">desi</tspan><tspan class="cls-42" x="13.56" y="0">g</tspan><tspan x="17.98" y="0">n </tspan><tspan x="-1.47" y="9.6">p</tspan><tspan class="cls-53" x="3.08" y="9.6">r</tspan><tspan x="5.62" y="9.6">o</tspan><tspan class="cls-42" x="10.01" y="9.6">c</tspan><tspan x="13.55" y="9.6">ess</tspan></text>
  <g>
    <line class="cls-5" x1="410.33" y1="409.23" x2="410.33" y2="409.23"/>
    <line class="cls-4" x1="408.32" y1="409.23" x2="232.97" y2="409.23"/>
    <line class="cls-5" x1="231.97" y1="409.23" x2="231.97" y2="409.23"/>
  </g>
  <g>
    <line class="cls-5" x1="231.66" y1="553.42" x2="231.66" y2="553.42"/>
    <line class="cls-6" x1="233.67" y1="553.42" x2="409.37" y2="553.42"/>
    <line class="cls-5" x1="410.37" y1="553.42" x2="410.37" y2="553.42"/>
  </g>
  <rect class="cls-1" x="164.94" y="468.7" width="25.45" height="25.45" transform="translate(-288.38 266.64) rotate(-45)"/>
  <rect class="cls-1" x="182.94" y="450.7" width="25.45" height="25.45" transform="translate(-270.38 274.09) rotate(-45)"/>
  <rect class="cls-1" x="200.94" y="432.7" width="25.45" height="25.45" transform="translate(-252.39 281.55) rotate(-45)"/>
  <rect class="cls-1" x="218.94" y="414.7" width="25.45" height="25.45" transform="translate(-234.39 289) rotate(-45)"/>
  <rect class="cls-1" x="182.94" y="486.7" width="25.45" height="25.45" transform="translate(-295.84 284.64) rotate(-45)"/>
  <rect class="cls-1" x="200.94" y="468.7" width="25.45" height="25.45" transform="translate(-277.84 292.09) rotate(-45)"/>
  <rect class="cls-1" x="218.94" y="450.7" width="25.45" height="25.45" transform="translate(-259.84 299.55) rotate(-45)"/>
  <rect class="cls-1" x="236.93" y="432.7" width="25.45" height="25.45" transform="translate(-241.84 307) rotate(-45)"/>
  <rect class="cls-1" x="200.94" y="504.7" width="25.45" height="25.45" transform="translate(-303.29 302.63) rotate(-45)"/>
  <rect class="cls-1" x="218.94" y="486.7" width="25.45" height="25.45" transform="translate(-285.29 310.09) rotate(-45)"/>
  <rect class="cls-1" x="236.93" y="468.7" width="25.45" height="25.45" transform="translate(-267.3 317.54) rotate(-45)"/>
  <rect class="cls-1" x="254.93" y="450.7" width="25.45" height="25.45" transform="translate(-249.3 325) rotate(-45)"/>
  <rect class="cls-1" x="218.94" y="522.7" width="25.45" height="25.45" transform="translate(-310.75 320.63) rotate(-45)"/>
  <rect class="cls-1" x="236.93" y="504.7" width="25.45" height="25.45" transform="translate(-292.75 328.09) rotate(-45)"/>
  <rect class="cls-1" x="254.93" y="486.7" width="25.45" height="25.45" transform="translate(-274.75 335.54) rotate(-45)"/>
  <rect class="cls-1" x="272.93" y="468.7" width="25.45" height="25.45" transform="translate(-256.75 343) rotate(-45)"/>
  <rect class="cls-1" x="87.62" y="457.72" width="24.17" height="24.17"/>
  <rect class="cls-1" x="39.27" y="457.72" width="24.17" height="24.17"/>
  <rect class="cls-1" x="87.62" y="433.55" width="24.17" height="24.17"/>
  <rect class="cls-1" x="63.45" y="433.55" width="24.17" height="24.17"/>
  <rect class="cls-1" x="39.27" y="433.55" width="24.17" height="24.17"/>
  <rect class="cls-1" x="87.62" y="409.37" width="24.17" height="24.17"/>
  <rect class="cls-1" x="63.45" y="409.37" width="24.17" height="24.17"/>
  <rect class="cls-1" x="39.27" y="409.37" width="24.17" height="24.17"/>
  <text class="cls-35" transform="translate(46.19 407.71)"><tspan x="0" y="0">i</tspan><tspan class="cls-31" x="1.87" y="0">n</tspan><tspan class="cls-47" x="6.28" y="0">tuiti</tspan><tspan class="cls-53" x="19.73" y="0">v</tspan><tspan x="23.5" y="0">e i</tspan><tspan class="cls-31" x="31.07" y="0">n</tspan><tspan class="cls-42" x="35.48" y="0">t</tspan><tspan x="38.08" y="0">e</tspan><tspan class="cls-40" x="42.09" y="0">r</tspan><tspan x="44.94" y="0">fa</tspan><tspan class="cls-51" x="51.14" y="0">c</tspan><tspan x="54.67" y="0">e</tspan></text>
  <text class="cls-35" transform="translate(119.32 469.39) rotate(-90)"><tspan x="0" y="0">easy </tspan><tspan class="cls-53" x="16.5" y="0">w</tspan><tspan x="22.3" y="0">o</tspan><tspan class="cls-41" x="26.7" y="0">r</tspan><tspan x="29.34" y="0">kfl</tspan><tspan class="cls-28" x="37.28" y="0">o</tspan><tspan x="41.62" y="0">w</tspan></text>
  <text class="cls-26" transform="translate(20.39 498.01) rotate(-45)"><tspan x="0" y="0">le</tspan><tspan class="cls-53" x="5.9" y="0">v</tspan><tspan x="9.66" y="0">el of </tspan><tspan class="cls-42" x="-20.27" y="9.6">c</tspan><tspan x="-16.74" y="9.6">ollabo</tspan><tspan class="cls-34" x="4.23" y="9.6">r</tspan><tspan class="cls-50" x="6.81" y="9.6">a</tspan><tspan class="cls-43" x="10.63" y="9.6">tion</tspan></text>
  <g>
    <line class="cls-12" x1="111.79" y1="409.37" x2="40.04" y2="481.13"/>
    <polygon class="cls-17" points="39.49 475.89 40.49 475.93 40.31 480.86 45.24 480.68 45.27 481.68 39.27 481.9 39.49 475.89"/>
  </g>
  <g>
    <polyline class="cls-8" points="40.36 409.37 111.79 409.37 111.79 481.03"/>
    <polygon class="cls-25" points="43.67 413.46 44.35 412.73 40.74 409.38 44.35 406.02 43.67 405.29 39.27 409.38 43.67 413.46"/>
    <polygon class="cls-25" points="108.52 478.38 109.11 477.83 111.79 480.72 114.48 477.83 115.06 478.38 111.79 481.9 108.52 478.38"/>
  </g>
  <rect class="cls-3" x="39.27" y="409.37" width="72.52" height="72.52" transform="translate(151.07 891.27) rotate(180)"/>
  <g>
    <line class="cls-5" x1="231.68" y1="409.23" x2="231.68" y2="409.23"/>
    <line class="cls-9" x1="229.68" y1="409.24" x2="112.79" y2="409.94"/>
    <line class="cls-5" x1="111.79" y1="409.95" x2="111.79" y2="409.95"/>
  </g>
  <g>
    <line class="cls-5" x1="111.79" y1="481.43" x2="111.79" y2="481.43"/>
    <line class="cls-11" x1="113.78" y1="481.43" x2="158.39" y2="481.43"/>
    <line class="cls-5" x1="159.38" y1="481.43" x2="159.38" y2="481.43"/>
  </g>
  <text class="cls-26" transform="translate(560.23 549.53) rotate(45)"><tspan x="0" y="0">po</tspan><tspan class="cls-42" x="8.94" y="0">t</tspan><tspan x="11.54" y="0">e</tspan><tspan class="cls-31" x="15.55" y="0">n</tspan><tspan x="19.96" y="0">tial </tspan><tspan class="cls-49" x="31.92" y="0">f</tspan><tspan class="cls-47" x="34.15" y="0">or </tspan><tspan x="0" y="9.6">a</tspan><tspan class="cls-53" x="3.86" y="9.6">r</tspan><tspan x="6.39" y="9.6">chi</tspan><tspan class="cls-42" x="16.29" y="9.6">t</tspan><tspan x="18.89" y="9.6">e</tspan><tspan class="cls-15" x="22.9" y="9.6">c</tspan><tspan x="26.58" y="9.6">tu</tspan><tspan class="cls-34" x="33.64" y="9.6">r</tspan><tspan x="36.22" y="9.6">al </tspan><tspan x="0" y="19.2">desi</tspan><tspan class="cls-42" x="13.56" y="19.2">g</tspan><tspan x="17.98" y="19.2">n </tspan></text>
  <circle class="cls-18" cx="46.33" cy="125.55" r="4.21"/>
  <circle class="cls-23" cx="46.33" cy="92.46" r="4.21"/>
  <circle class="cls-22" cx="46.33" cy="109" r="4.21"/>
  <circle class="cls-24" cx="46.33" cy="142.09" r="4.21"/>
  <circle class="cls-19" cx="46.33" cy="75.91" r="4.21"/>
  <circle class="cls-20" cx="46.33" cy="42.82" r="4.21"/>
  <circle class="cls-21" cx="46.33" cy="59.36" r="4.21"/>
  <text class="cls-35" transform="translate(55.11 46.25)"><tspan x="0" y="0">Expe</tspan><tspan class="cls-39" x="16.2" y="0">r</tspan><tspan x="19.01" y="0">t </tspan><tspan class="cls-32" x="23.35" y="0">S</tspan><tspan class="cls-42" x="27.23" y="0">y</tspan><tspan x="30.95" y="0">s</tspan><tspan class="cls-51" x="34.12" y="0">t</tspan><tspan x="36.72" y="0">em</tspan></text>
  <text class="cls-35" transform="translate(55.11 62.79)"><tspan x="0" y="0">Classic </tspan><tspan class="cls-37" x="23.87" y="0">M</tspan><tspan x="30.35" y="0">achine </tspan><tspan class="cls-14" x="54.25" y="0">L</tspan><tspan x="57.91" y="0">ea</tspan><tspan class="cls-55" x="65.77" y="0">r</tspan><tspan class="cls-47" x="68.42" y="0">ning</tspan></text>
  <text class="cls-35" transform="translate(54.13 79.34)"><tspan x="0" y="0">G</tspan><tspan class="cls-34" x="5.17" y="0">r</tspan><tspan x="7.74" y="0">aph </tspan><tspan class="cls-37" x="22.29" y="0">M</tspan><tspan class="cls-47" x="28.77" y="0">achine </tspan><tspan class="cls-14" x="52.66" y="0">L</tspan><tspan x="56.33" y="0">ea</tspan><tspan class="cls-41" x="64.19" y="0">r</tspan><tspan x="66.84" y="0">ning</tspan></text>
  <text class="cls-35" transform="translate(55.11 95.88)"><tspan class="cls-16" x="0" y="0">G</tspan><tspan x="5.21" y="0">ene</tspan><tspan class="cls-34" x="17.66" y="0">r</tspan><tspan class="cls-50" x="20.24" y="0">a</tspan><tspan class="cls-43" x="24.06" y="0">ti</tspan><tspan class="cls-29" x="28.58" y="0">v</tspan><tspan x="32.35" y="0">e </tspan><tspan class="cls-37" x="38.06" y="0">M</tspan><tspan x="44.54" y="0">achine </tspan><tspan class="cls-14" x="68.43" y="0">L</tspan><tspan x="72.09" y="0">ea</tspan><tspan class="cls-55" x="79.96" y="0">r</tspan><tspan x="82.61" y="0">ning</tspan></text>
  <text class="cls-35" transform="translate(55.11 111.7)"><tspan class="cls-44" x="0" y="0">A</tspan><tspan x="4.8" y="0">ge</tspan><tspan class="cls-31" x="13.28" y="0">n</tspan><tspan class="cls-34" x="17.69" y="0">t</tspan><tspan x="20.3" y="0">-based </tspan><tspan class="cls-32" x="44.54" y="0">S</tspan><tspan class="cls-42" x="48.42" y="0">y</tspan><tspan x="52.14" y="0">s</tspan><tspan class="cls-42" x="55.31" y="0">t</tspan><tspan x="57.91" y="0">em</tspan></text>
  <text class="cls-35" transform="translate(54.13 128.97)"><tspan class="cls-27" x="0" y="0">E</tspan><tspan class="cls-53" x="3.88" y="0">v</tspan><tspan x="7.65" y="0">olutiona</tspan><tspan class="cls-33" x="35.54" y="0">r</tspan><tspan x="38.36" y="0">y </tspan><tspan class="cls-54" x="43.82" y="0">C</tspan><tspan x="48.38" y="0">omputing</tspan></text>
  <text class="cls-35" transform="translate(54.13 145.52)"><tspan class="cls-45" x="0" y="0">T</tspan><tspan class="cls-34" x="3.62" y="0">r</tspan><tspan x="6.19" y="0">ans</tspan><tspan class="cls-49" x="17.66" y="0">f</tspan><tspan x="19.89" y="0">o</tspan><tspan class="cls-41" x="24.28" y="0">r</tspan><tspan x="26.93" y="0">mer </tspan><tspan class="cls-37" x="41.92" y="0">M</tspan><tspan x="48.4" y="0">odel</tspan></text>
  <text class="cls-26" transform="translate(212.14 357.23) rotate(-90)"><tspan x="0" y="0">d</tspan><tspan class="cls-50" x="4.51" y="0">a</tspan><tspan class="cls-43" x="8.34" y="0">ta </tspan><tspan class="cls-32" x="16.54" y="0">a</tspan><tspan class="cls-50" x="20.33" y="0">v</tspan><tspan x="24.14" y="0">ailabili</tspan><tspan class="cls-46" x="45.8" y="0">t</tspan><tspan x="48.52" y="0">y</tspan></text>
  <circle class="cls-20" cx="185.25" cy="267.99" r="4.21"/>
  <circle class="cls-20" cx="298.17" cy="267.99" r="4.21"/>
  <circle class="cls-20" cx="496.89" cy="422.59" r="4.21"/>
  <circle class="cls-20" cx="471.64" cy="50.17" r="4.21"/>
  <circle class="cls-20" cx="496.89" cy="190.41" r="4.21"/>
  <circle class="cls-20" cx="104.58" cy="416.58" r="4.21"/>
  <circle class="cls-20" cx="231.66" cy="423.22" r="4.21"/>
  <circle class="cls-21" cx="421.92" cy="42.79" r="4.21"/>
  <circle class="cls-21" cx="479.68" cy="214.81" r="4.21"/>
  <circle class="cls-21" cx="209.3" cy="250.73" r="4.21"/>
  <circle class="cls-21" cx="313.46" cy="250.87" r="4.21"/>
  <circle class="cls-21" cx="98.03" cy="423.14" r="4.21"/>
  <circle class="cls-21" cx="246.96" cy="455.01" r="4.21"/>
  <circle class="cls-21" cx="479.45" cy="455.43" r="4.21"/>
  <circle class="cls-19" cx="324.38" cy="270.62" r="4.21"/>
  <circle class="cls-19" cx="508.04" cy="207.8" r="4.21"/>
  <circle class="cls-19" cx="63.45" cy="457.72" r="4.21"/>
  <circle class="cls-19" cx="220.56" cy="492.54" r="4.21"/>
  <circle class="cls-19" cx="508.71" cy="492.02" r="4.21"/>
  <circle class="cls-23" cx="201.89" cy="250.73" r="4.21"/>
  <circle class="cls-23" cx="100.63" cy="420.79" r="4.21"/>
  <circle class="cls-23" cx="255.38" cy="457.72" r="4.21"/>
  <circle class="cls-23" cx="451.45" cy="457.72" r="4.21"/>
  <circle class="cls-23" cx="324.49" cy="250.73" r="4.21"/>
  <circle class="cls-23" cx="452.74" cy="235.97" r="4.21"/>
  <circle class="cls-23" cx="421.43" cy="82.75" r="4.21"/>
  <circle class="cls-22" cx="100.63" cy="432.74" r="4.21"/>
  <circle class="cls-22" cx="249.66" cy="463.43" r="4.21"/>
  <circle class="cls-22" cx="209.3" cy="286.74" r="4.21"/>
  <circle class="cls-22" cx="298.17" cy="287.62" r="4.21"/>
  <circle class="cls-22" cx="492.68" cy="463.43" r="4.21"/>
  <circle class="cls-22" cx="462.92" cy="58.54" r="4.21"/>
  <circle class="cls-22" cx="492.68" cy="206.4" r="4.21"/>
  <circle class="cls-18" cx="55.5" cy="465.67" r="4.21"/>
  <circle class="cls-18" cx="219.43" cy="505.83" r="4.21"/>
  <circle class="cls-18" cx="513.51" cy="504.9" r="4.21"/>
  <circle class="cls-18" cx="209.31" cy="295.16" r="4.21"/>
  <circle class="cls-19" cx="209.66" cy="270.95" r="4.21"/>
  <circle class="cls-18" cx="298.03" cy="295.16" r="4.21"/>
  <circle class="cls-18" cx="514.47" cy="198.82" r="4.21"/>
  <circle class="cls-18" cx="475.47" cy="45.99" r="4.21"/>
  <circle class="cls-19" cx="472.68" cy="48.44" r="4.21"/>
  <circle class="cls-24" cx="223.23" cy="280.71" r="4.21"/>
  <circle class="cls-24" cx="324.38" cy="280.71" r="4.21"/>
  <circle class="cls-24" cx="471.27" cy="269.78" r="4.21"/>
  <circle class="cls-24" cx="421.43" cy="86.96" r="4.21"/>
  <circle class="cls-24" cx="46.33" cy="474.84" r="4.21"/>
  <circle class="cls-24" cx="231.56" cy="539.63" r="4.21"/>
  <circle class="cls-24" cx="470.59" cy="539.63" r="4.21"/>
  <g>
    <polyline class="cls-8" points="303.08 480.63 231.68 409.23 160.12 480.78"/>
    <polygon class="cls-25" points="303.62 475.39 302.62 475.43 302.81 480.36 297.88 480.18 297.84 481.18 303.84 481.39 303.62 475.39"/>
    <polygon class="cls-25" points="159.68 476.59 160.48 476.62 160.34 480.56 164.28 480.42 164.31 481.22 159.51 481.39 159.68 476.59"/>
  </g>
  <text class="cls-36" transform="translate(397.73 133.47)"><tspan x="0" y="0">(a)</tspan></text>
  <text class="cls-36" transform="translate(161.53 325.43)"><tspan x="0" y="0">(</tspan><tspan class="cls-38" x="3.41" y="0">b</tspan><tspan x="10.2" y="0">)</tspan></text>
  <text class="cls-36" transform="translate(278.01 325.48)"><tspan x="0" y="0">(c)</tspan></text>
  <text class="cls-36" transform="translate(412.93 324.51)"><tspan x="0" y="0">(d)</tspan></text>
  <text class="cls-36" transform="translate(74.37 505.31)"><tspan x="0" y="0">(e)</tspan></text>
  <text class="cls-36" transform="translate(162.57 569.23)"><tspan x="0" y="0">(</tspan><tspan class="cls-30" x="3.41" y="0">f</tspan><tspan x="8.15" y="0">)</tspan></text>
  <text class="cls-36" transform="translate(395.75 575.79)"><tspan x="0" y="0">(g)</tspan></text>
</svg>