<svg xmlns="http://www.w3.org/2000/svg" xmlns:xlink="http://www.w3.org/1999/xlink" xmlns:lucid="lucid" width="1355" height="750"><g transform="translate(-2133 -147)" lucid:page-tab-id="GHKNdJZUEBq8"><path d="M2220.42 777.02h1177.76" stroke="#5e5e5e" stroke-width="2" fill="none"/><path stroke="#5e5e5e" stroke-width=".05" fill="#5e5e5e"/><path d="M3380.82 787.2l17.2-10.18-17.2-10.18" stroke="#5e5e5e" stroke-width="2" fill="none"/><path d="M2189.6 777.02h109.48v26.85H2189.6z" fill="#fff" fill-opacity="0"/><use xlink:href="#a" transform="matrix(1,0,0,1,2194.6048226540165,782.0239587196718) translate(35.18518518518519 11.729166666666664)"/><path d="M2299.67 777.02h109.47v26.85h-109.47z" fill="#fff" fill-opacity="0"/><use xlink:href="#b" transform="matrix(1,0,0,1,2304.670391875762,782.0239587196718) translate(35.18518518518519 11.729166666666664)"/><path d="M2459.67 777.02h109.47v26.85h-109.47z" fill="#fff" fill-opacity="0"/><use xlink:href="#c" transform="matrix(1,0,0,1,2464.670391875762,782.0239587196718) translate(35.18518518518519 11.729166666666664)"/><path d="M2673.95 777.02h109.47v26.85h-109.47z" fill="#fff" fill-opacity="0"/><use xlink:href="#d" transform="matrix(1,0,0,1,2678.9464874132964,782.0239587196718) translate(35.18518518518519 11.729166666666664)"/><path d="M2794.54 777.02H2904v26.85h-109.46z" fill="#fff" fill-opacity="0"/><use xlink:href="#e" transform="matrix(1,0,0,1,2799.5383724245157,782.0239587196718) translate(35.18518518518519 11.729166666666664)"/><path d="M3081.2 777.02h109.48v26.85H3081.2z" fill="#fff" fill-opacity="0"/><use xlink:href="#f" transform="matrix(1,0,0,1,3086.2062909113374,782.0239587196718) translate(35.18518518518519 11.729166666666664)"/><path d="M3258.4 777.02h109.47v26.85H3258.4z" fill="#fff" fill-opacity="0"/><use xlink:href="#g" transform="matrix(1,0,0,1,3263.400525187633,782.0239587196718) translate(35.18518518518519 11.729166666666664)"/><path d="M2160 603.02a6 6 0 0 1 6-6h127.2a6 6 0 0 1 6 6v48a6 6 0 0 1-6 6H2166a6 6 0 0 1-6-6z" stroke="#5e5e5e" fill="#f2f3f5"/><use xlink:href="#h" transform="matrix(1,0,0,1,2172,609.0239587196717) translate(2.5555555555555856 12.916666666666664)"/><use xlink:href="#i" transform="matrix(1,0,0,1,2172,609.0239587196717) translate(32.07407407407409 12.916666666666664)"/><use xlink:href="#j" transform="matrix(1,0,0,1,2172,609.0239587196717) translate(86.03703703703702 12.916666666666664)"/><use xlink:href="#k" transform="matrix(1,0,0,1,2172,609.0239587196717) translate(100.85185185185183 12.916666666666664)"/><use xlink:href="#l" transform="matrix(1,0,0,1,2172,609.0239587196717) translate(4.46296296296299 28.91666666666666)"/><use xlink:href="#m" transform="matrix(1,0,0,1,2172,609.0239587196717) translate(52.870370370370374 28.91666666666666)"/><path d="M2229.6 776.52v-118.1" stroke="#fc9432" stroke-linejoin="round" fill="none"/><path d="M2230.08 777.02h-.95v-.5h.95z" stroke="#fc9432" stroke-width=".05" fill="#fc9432"/><path d="M2239.8 675.72l-10.2-17.2-10.18 17.2" stroke="#fc9432" fill="none"/><path d="M2405.88 537.02c7.36 0 13.33 5.97 13.33 13.34 0 7.36-5.96 13.33-13.32 13.33h-102.94c-7.37 0-13.34-5.98-13.34-13.34 0-7.37 5.97-13.34 13.34-13.34z" stroke="#5e5e5e" fill="#fff"/><use xlink:href="#n" transform="matrix(1,0,0,1,2296.604822654017,544.0239587196717) translate(13.666666666666686 10.666666666666664)"/><use xlink:href="#o" transform="matrix(1,0,0,1,2296.604822654017,544.0239587196717) translate(62.407407407407405 10.666666666666664)"/><path d="M2229.63 596.02l.13-3.25.44-3.5.7-3.3.96-3.16 1.2-3 1.46-2.94 1.73-2.85 2.03-2.77 2.37-2.72 2.74-2.66 3.17-2.6 3.66-2.54 4.2-2.4 4.8-2.24 5.44-2 6.03-1.65 6.55-1.2 6.94-.7 4-.12" stroke="#fc9432" stroke-linejoin="round" fill="none"/><path d="M2230.1 596.03l-.02.5h-.95l.02-.54z" stroke="#fc9432" stroke-width=".05" fill="#fc9432"/><path d="M2271.94 562.2l16.18-11.75-18.1-8.52" stroke="#fc9432" fill="none"/><path d="M2543.84 707.9c11.04 0 20 8.97 20 20 0 11.06-8.96 20-20 20h-89.6c-11.05 0-20-8.94-20-20 0-11.03 8.95-20 20-20z" stroke="#5e5e5e" fill="#fff"/><use xlink:href="#p" transform="matrix(1,0,0,1,2441.2306753969074,714.9143696785759) translate(10.351851851851876 10.666666666666664)"/><use xlink:href="#q" transform="matrix(1,0,0,1,2441.2306753969074,714.9143696785759) translate(11.370370370370388 26.66666666666666)"/><use xlink:href="#r" transform="matrix(1,0,0,1,2441.2306753969074,714.9143696785759) translate(53.55555555555556 26.66666666666666)"/><path d="M2420.2 550.38l3.74.2 3.94.65 3.7 1.03 3.55 1.4 3.38 1.8 3.27 2.2 3.12 2.66 2.95 3.14 2.8 3.66 2.53 4.23 2.2 4.78 1.8 5.33 1.28 5.78.66 6.12.07 2.25" stroke="#fc9432" stroke-linejoin="round" fill="none"/><path d="M2420.25 549.9l-.05.96-.55-.03.06-.47-.05-.48z" stroke="#fc9432" stroke-width=".05" fill="#fc9432"/><path d="M2446.72 579.83l12.36 15.72 7.82-18.4" stroke="#fc9432" fill="none"/><path d="M2459.2 624.7v81.8" stroke="#fc9432" stroke-linejoin="round" fill="none"/><path d="M2459.7 624.7h-.96v-.5h.95z" stroke="#fc9432" stroke-width=".05" fill="#fc9432"/><path d="M2449.03 689.22l10.18 17.2 10.2-17.2" stroke="#fc9432" fill="none"/><path d="M2549.6 492.17a6 6 0 0 1 6-6h142.74a6 6 0 0 1 6 6v48a6 6 0 0 1-6 6H2555.6a6 6 0 0 1-6-6z" stroke="#5e5e5e" fill="#f2f3f5"/><use xlink:href="#s" transform="matrix(1,0,0,1,2561.6048226540165,498.1733821994824) translate(0.3703703703703951 12.916666666666664)"/><use xlink:href="#i" transform="matrix(1,0,0,1,2561.6048226540165,498.1733821994824) translate(49.25925925925927 12.916666666666664)"/><use xlink:href="#j" transform="matrix(1,0,0,1,2561.6048226540165,498.1733821994824) translate(103.22222222222221 12.916666666666664)"/><use xlink:href="#k" transform="matrix(1,0,0,1,2561.6048226540165,498.1733821994824) translate(118.03703703703702 12.916666666666664)"/><use xlink:href="#t" transform="matrix(1,0,0,1,2561.6048226540165,498.1733821994824) translate(19.685185185185205 28.91666666666666)"/><use xlink:href="#u" transform="matrix(1,0,0,1,2561.6048226540165,498.1733821994824) translate(64.38888888888889 28.91666666666666)"/><path d="M2564.84 727.9l2.88-.06 3.12-.2 2.88-.3 2.68-.4 2.5-.47 2.37-.55 2.22-.62 2.1-.7 2-.73 1.93-.8 1.85-.88 1.77-.93 1.7-1 1.67-1.05 1.62-1.12 1.57-1.2 1.55-1.27 1.5-1.36 1.5-1.45 1.46-1.56 1.46-1.68 1.43-1.8 1.4-1.96 1.42-2.13 1.4-2.33 1.4-2.55 1.4-2.82 1.4-3.14 1.4-3.5 1.37-3.98 1.36-4.53 1.34-5.25 1.3-6.17 1.26-7.4 1.14-9.14 1-11.85.66-16.77-.17-35.94-.7-40.76" stroke="#fc9432" stroke-linejoin="round" fill="none"/><path d="M2564.86 728.38h-.58l.06-.44-.02-.5h.52z" stroke="#fc9432" stroke-width=".05" fill="#fc9432"/><path d="M2637.47 564.7L2627 547.64l-9.9 17.4" stroke="#fc9432" fill="none"/><path d="M2787.45 416.57c7.37 0 13.34 5.98 13.34 13.34 0 7.37-5.98 13.34-13.35 13.34H2669.9c-7.35 0-13.32-5.97-13.32-13.33 0-7.35 5.97-13.32 13.33-13.32z" stroke="#5e5e5e" fill="#fff"/><use xlink:href="#v" transform="matrix(1,0,0,1,2663.5080663606645,423.5054743968269) translate(8.185185185185205 12.291666666666664)"/><use xlink:href="#w" transform="matrix(1,0,0,1,2663.5080663606645,423.5054743968269) translate(50.333333333333336 12.291666666666664)"/><use xlink:href="#x" transform="matrix(1,0,0,1,2663.5080663606645,423.5054743968269) translate(102.1111111111111 12.291666666666664)"/><path d="M2627 485.17l.6-15.27 1.3-9.68 1.5-6.68 1.57-4.87 1.58-3.7 1.56-2.93 1.56-2.35 1.53-1.95 1.53-1.6 1.56-1.37 1.58-1.16 1.64-1 1.73-.82 1.84-.7 1.97-.54 2.18-.4 2.43-.22h.5" stroke="#fc9432" stroke-linejoin="round" fill="none"/><path d="M2627.47 485.18l-.02.5h-.95l.02-.54z" stroke="#fc9432" stroke-width=".05" fill="#fc9432"/><path d="M2641.7 445l13.44-14.8-19.46-4.64" stroke="#fc9432" fill="none"/><path d="M2389.6 603.02a6 6 0 0 1 6-6h127.2a6 6 0 0 1 6 6v14.67a6 6 0 0 1-6 6h-127.2a6 6 0 0 1-6-6z" stroke="#5e5e5e" fill="#f2f3f5"/><use xlink:href="#h" transform="matrix(1,0,0,1,2396.604822654017,604.0239587196717) translate(13.48148148148151 12.291666666666664)"/><use xlink:href="#y" transform="matrix(1,0,0,1,2396.604822654017,604.0239587196717) translate(43.000000000000014 12.291666666666664)"/><use xlink:href="#j" transform="matrix(1,0,0,1,2396.604822654017,604.0239587196717) translate(85.1111111111111 12.291666666666664)"/><use xlink:href="#z" transform="matrix(1,0,0,1,2396.604822654017,604.0239587196717) translate(99.92592592592591 12.291666666666664)"/><path d="M2778.62 492.18a6 6 0 0 1 6-6h127.2a6 6 0 0 1 6 6v14.67a6 6 0 0 1-6 6h-127.2a6 6 0 0 1-6-6z" stroke="#5e5e5e" fill="#f2f3f5"/><use xlink:href="#s" transform="matrix(1,0,0,1,2785.6177602968146,493.179822662192) translate(3.796296296296319 12.291666666666664)"/><use xlink:href="#y" transform="matrix(1,0,0,1,2785.6177602968146,493.179822662192) translate(52.68518518518519 12.291666666666664)"/><use xlink:href="#j" transform="matrix(1,0,0,1,2785.6177602968146,493.179822662192) translate(94.79629629629629 12.291666666666664)"/><use xlink:href="#z" transform="matrix(1,0,0,1,2785.6177602968146,493.179822662192) translate(109.6111111111111 12.291666666666664)"/><path d="M2801.8 429.93l3.65.16 3.9.52 3.7.84 3.55 1.15 3.4 1.47 3.3 1.77 3.2 2.1 3.07 2.46 3 2.85 2.86 3.28 2.7 3.73 2.54 4.22 2.28 4.72 1.95 5.2 1.57 5.65 1.1 6 .57 6.3.06 2.42" stroke="#fc9432" stroke-linejoin="round" fill="none"/><path d="M2801.83 429.46l-.05.95-.55-.02.06-.47-.07-.47z" stroke="#fc9432" stroke-width=".05" fill="#fc9432"/><path d="M2836.14 468.7l11.98 16 8.26-18.2" stroke="#fc9432" fill="none"/><path d="M2893.03 707.9c11.04 0 20 8.97 20 20 0 11.06-8.96 20-20 20h-89.6c-11.06 0-20-8.94-20-20 0-11.03 8.94-20 20-20z" stroke="#5e5e5e" fill="#fff"/><use xlink:href="#A" transform="matrix(1,0,0,1,2790.4201716238235,714.9143696785759) translate(11.7777777777778 10.666666666666664)"/><use xlink:href="#B" transform="matrix(1,0,0,1,2790.4201716238235,714.9143696785759) translate(47.296296296296305 10.666666666666664)"/><use xlink:href="#C" transform="matrix(1,0,0,1,2790.4201716238235,714.9143696785759) translate(77.62962962962962 10.666666666666664)"/><use xlink:href="#D" transform="matrix(1,0,0,1,2790.4201716238235,714.9143696785759) translate(13.59259259259261 26.66666666666666)"/><use xlink:href="#E" transform="matrix(1,0,0,1,2790.4201716238235,714.9143696785759) translate(46.14814814814815 26.66666666666666)"/><path d="M2848.22 513.85V706.5" stroke="#fc9432" stroke-linejoin="round" fill="none"/><path d="M2848.7 513.86h-.95v-.5h.95z" stroke="#fc9432" stroke-width=".05" fill="#fc9432"/><path d="M2838.04 689.22l10.18 17.2 10.18-17.2" stroke="#fc9432" fill="none"/><path d="M2945.1 406.36a6 6 0 0 1 6-6h142.72a6 6 0 0 1 6 6v48a6 6 0 0 1-6 6h-142.74a6 6 0 0 1-6-6z" stroke="#5e5e5e" fill="#ced4db"/><use xlink:href="#F" transform="matrix(1,0,0,1,2957.0854020536267,412.36373251571456) translate(7.833333333333357 12.916666666666664)"/><use xlink:href="#i" transform="matrix(1,0,0,1,2957.0854020536267,412.36373251571456) translate(41.796296296296305 12.916666666666664)"/><use xlink:href="#j" transform="matrix(1,0,0,1,2957.0854020536267,412.36373251571456) translate(95.75925925925925 12.916666666666664)"/><use xlink:href="#k" transform="matrix(1,0,0,1,2957.0854020536267,412.36373251571456) translate(110.57407407407406 12.916666666666664)"/><use xlink:href="#G" transform="matrix(1,0,0,1,2957.0854020536267,412.36373251571456) translate(10.092592592592624 28.91666666666666)"/><use xlink:href="#H" transform="matrix(1,0,0,1,2957.0854020536267,412.36373251571456) translate(66.61111111111111 28.91666666666666)"/><path d="M2914.03 727.9l4.8-.1 4.9-.3 4.6-.48 4.3-.64 4.03-.77 3.82-.88 3.63-1.02 3.48-1.12 3.3-1.24 3.2-1.33 3.07-1.44 2.97-1.55 2.9-1.66 2.8-1.78 2.74-1.9 2.7-2.05 2.64-2.18 2.6-2.35 2.58-2.52 2.55-2.7 2.53-2.95 2.5-3.17 2.52-3.46 2.5-3.77 2.52-4.15 2.5-4.57 2.53-5.07 2.52-5.67 2.53-6.4 2.53-7.27 2.53-8.36 2.5-9.75 2.44-11.55 2.36-14 2.2-17.58 1.94-23.34 1.43-35.8.25-71.2" stroke="#fc9432" stroke-linejoin="round" fill="none"/><path d="M2914.05 728.38h-.58l.06-.44-.02-.5h.53z" stroke="#fc9432" stroke-width=".05" fill="#fc9432"/><path d="M3032.57 479.1l-10.12-17.25-10.24 17.17" stroke="#fc9432" fill="none"/><path d="M3187.77 330.7c11.2 0 20.28 9.08 20.28 20.28 0 11.2-9.08 20.27-20.28 20.27H3084.1c-11.18 0-20.26-9.07-20.26-20.27s9.08-20.28 20.27-20.28z" stroke="#5e5e5e" fill="#fff"/><g><use xlink:href="#I" transform="matrix(1,0,0,1,3070.7678698587056,337.63262779746344) translate(27.05555555555557 10.666666666666664)"/><use xlink:href="#C" transform="matrix(1,0,0,1,3070.7678698587056,337.63262779746344) translate(77.35185185185185 10.666666666666664)"/><use xlink:href="#J" transform="matrix(1,0,0,1,3070.7678698587056,337.63262779746344) translate(10.764259259259285 26.66666666666666)"/><use xlink:href="#K" transform="matrix(1,0,0,1,3070.7678698587056,337.63262779746344) translate(72.17166666666667 26.66666666666666)"/></g><path d="M3022.48 399.36l.3-5.9.95-6.15 1.5-5.74 1.95-5.23 2.3-4.66 2.58-4.1 2.77-3.52 2.9-3.03 3.05-2.56 3.13-2.15 3.27-1.75 3.38-1.4 3.55-1.08 3.74-.7 4-.36h.6" stroke="#fc9432" stroke-linejoin="round" fill="none"/><path d="M3022.95 399.38l-.02.48h-.95l.03-.53z" stroke="#fc9432" stroke-width=".05" fill="#fc9432"/><path d="M3047.5 364.53l14.87-13.36-18.87-6.6" stroke="#fc9432" fill="none"/><path d="M3194.87 247.6a6 6 0 0 1 6-6h142.74a6 6 0 0 1 6 6v48a6 6 0 0 1-6 6h-142.73a6 6 0 0 1-6-6z" stroke="#5e5e5e" fill="#ced4db"/><g><use xlink:href="#F" transform="matrix(1,0,0,1,3206.867980548754,253.59303875636755) translate(7.833333333333357 12.916666666666664)"/><use xlink:href="#i" transform="matrix(1,0,0,1,3206.867980548754,253.59303875636755) translate(41.796296296296305 12.916666666666664)"/><use xlink:href="#j" transform="matrix(1,0,0,1,3206.867980548754,253.59303875636755) translate(95.75925925925925 12.916666666666664)"/><use xlink:href="#k" transform="matrix(1,0,0,1,3206.867980548754,253.59303875636755) translate(110.57407407407406 12.916666666666664)"/><use xlink:href="#L" transform="matrix(1,0,0,1,3206.867980548754,253.59303875636755) translate(19.333333333333357 28.91666666666666)"/><use xlink:href="#H" transform="matrix(1,0,0,1,3206.867980548754,253.59303875636755) translate(57.370370370370374 28.91666666666666)"/></g><path d="M3135.96 329.7l.2-4.93.68-5.23 1.1-5.02 1.47-4.82 1.87-4.6 2.22-4.38 2.55-4.13 2.9-3.9 3.18-3.6 3.5-3.3 3.75-3.02 4-2.7 4.27-2.33 4.47-2 4.7-1.62 4.9-1.25 5.1-.83 5.3-.42 1.34-.02" stroke="#fc9432" stroke-linejoin="round" fill="none"/><path d="M3136.44 329.7l-.02.5h-.95l.02-.53z" stroke="#fc9432" stroke-width=".05" fill="#fc9432"/><path d="M3177.57 283.94l15.82-12.23-18.35-7.96" stroke="#fc9432" fill="none"/><path d="M2229.6 817.02h620v20h-620z" stroke="#000" stroke-opacity="0" fill="#f2f3f5"/><g><use xlink:href="#M" transform="matrix(1,0,0,1,2234.604822654017,822.0239587196718) translate(222.56172839506178 8.888888888888884)"/><use xlink:href="#N" transform="matrix(1,0,0,1,2234.604822654017,822.0239587196718) translate(296.51234567901236 8.888888888888884)"/></g><path d="M2849.6 817.02H3400v20h-550.4z" stroke="#000" stroke-opacity="0" fill="#ced4db"/><g><use xlink:href="#O" transform="matrix(1,0,0,1,2854.604822654017,822.0239587196718) translate(188.54012345679016 8.888888888888884)"/><use xlink:href="#P" transform="matrix(1,0,0,1,2854.604822654017,822.0239587196718) translate(260.8240740740741 8.888888888888884)"/></g><path d="M2229.6 850.18H3260v20H2229.6z" stroke="#000" stroke-opacity="0" fill="#fff3d9"/><g><use xlink:href="#Q" transform="matrix(1,0,0,1,2234.604822654017,855.1806327883967) translate(357.9691358024692 8.888888888888884)"/><use xlink:href="#R" transform="matrix(1,0,0,1,2234.604822654017,855.1806327883967) translate(436.1790123456791 8.888888888888884)"/><use xlink:href="#S" transform="matrix(1,0,0,1,2234.604822654017,855.1806327883967) translate(467.56790123456796 8.888888888888884)"/><use xlink:href="#T" transform="matrix(1,0,0,1,2234.604822654017,855.1806327883967) translate(481.14814814814815 8.888888888888884)"/><use xlink:href="#U" transform="matrix(1,0,0,1,2234.604822654017,855.1806327883967) translate(504.60493827160496 8.888888888888884)"/><use xlink:href="#V" transform="matrix(1,0,0,1,2234.604822654017,855.1806327883967) translate(593.9567901234568 8.888888888888884)"/></g><path d="M3260 850.18h140v20h-140z" stroke="#000" stroke-opacity="0" fill="#e3fae3"/><g><use xlink:href="#W" transform="matrix(1,0,0,1,3265,855.1806327883967) translate(15.108024691358047 8.888888888888884)"/><use xlink:href="#X" transform="matrix(1,0,0,1,3265,855.1806327883967) translate(39.768518518518526 8.888888888888884)"/></g><path d="M3441.28 169.28c12.66 0 22.93 10.26 22.93 22.93s-10.26 22.94-22.92 22.94h-98.35c-12.66 0-22.93-10.27-22.93-22.93s10.27-22.92 22.93-22.92z" stroke="#5e5e5e" fill="#fff"/><g><use xlink:href="#Y" transform="matrix(1,0,0,1,3326.93,176.207691876694) translate(37.8888888888889 12.666666666666664)"/><use xlink:href="#Z" transform="matrix(1,0,0,1,3326.93,176.207691876694) translate(6.542037037037064 28.66666666666666)"/><use xlink:href="#aa" transform="matrix(1,0,0,1,3326.93,176.207691876694) translate(89.39388888888888 28.66666666666666)"/></g><path d="M3272.26 240.6l.26-5.05.82-5.3 1.32-5.06 1.78-4.78 2.22-4.47 2.6-4.13 2.97-3.8 3.3-3.4 3.57-3.03 3.84-2.63 4.1-2.22 4.3-1.8 4.53-1.35 4.77-.92 5-.44.95-.02" stroke="#54c45e" stroke-linejoin="round" fill="none"/><path d="M3272.74 240.6l-.03.5h-.94l.03-.54z" stroke="#54c45e" stroke-width=".05" fill="#54c45e"/><path d="M3303.1 205.1l15.43-12.74-18.6-7.37" stroke="#54c45e" fill="none"/><defs><path fill="#333" d="M27 0v-27h64v-190l-56 39v-29l58-41h29v221h61V0H27" id="ab"/><path fill="#333" d="M99-251c64 0 84 50 84 122C183-37 130 33 47-8c-14-7-20-23-25-40l30-5c6 39 69 39 84 7 9-19 16-44 16-74-10 22-31 35-62 35-49 0-73-33-73-83 0-54 28-83 82-83zm-1 141c31-1 51-18 51-49 0-36-14-67-51-67-34 0-49 23-49 58 0 34 15 58 49 58" id="ac"/><path fill="#333" d="M54-142c48-35 137-8 131 61C196 18 31 33 14-55l32-4c7 23 22 37 52 37 35-1 51-22 54-58 4-55-73-65-99-34H22l8-134h141v27H59" id="ad"/><g id="a"><use transform="matrix(0.03703703703703702,0,0,0.03703703703703702,0,0)" xlink:href="#ab"/><use transform="matrix(0.03703703703703702,0,0,0.03703703703703702,7.407407407407404,0)" xlink:href="#ac"/><use transform="matrix(0.03703703703703702,0,0,0.03703703703703702,14.814814814814808,0)" xlink:href="#ad"/><use transform="matrix(0.03703703703703702,0,0,0.03703703703703702,22.222222222222214,0)" xlink:href="#ad"/></g><path fill="#333" d="M64 0c3-98 48-159 88-221H18v-27h164v26C143-157 98-101 97 0H64" id="ae"/><path fill="#333" d="M126-127c33 6 58 20 58 59 0 88-139 92-164 29-3-8-5-16-6-25l32-3c6 27 21 44 54 44 32 0 52-15 52-46 0-38-36-46-79-43v-28c39 1 72-4 72-42 0-27-17-43-46-43-28 0-47 15-49 41l-32-3c6-42 35-63 81-64 48-1 79 21 79 65 0 36-21 52-52 59" id="af"/><g id="b"><use transform="matrix(0.03703703703703702,0,0,0.03703703703703702,0,0)" xlink:href="#ab"/><use transform="matrix(0.03703703703703702,0,0,0.03703703703703702,7.407407407407404,0)" xlink:href="#ac"/><use transform="matrix(0.03703703703703702,0,0,0.03703703703703702,14.814814814814808,0)" xlink:href="#ae"/><use transform="matrix(0.03703703703703702,0,0,0.03703703703703702,22.222222222222214,0)" xlink:href="#af"/></g><path fill="#333" d="M134-131c28 9 52 24 51 62-1 50-34 73-85 73S17-19 16-69c0-36 21-54 49-61-75-25-45-126 34-121 46 3 78 18 79 63 0 33-17 51-44 57zm-34-11c31 1 46-15 46-44 0-28-17-43-47-42-29 0-46 13-45 42 1 28 16 44 46 44zm1 122c35 0 51-18 51-52 0-30-18-46-53-46-33 0-51 17-51 47 0 34 19 51 53 51" id="ag"/><path fill="#333" d="M101-251c82-7 93 87 43 132L82-64C71-53 59-42 53-27h129V0H18c2-99 128-94 128-182 0-28-16-43-45-43s-46 15-49 41l-32-3c6-41 34-60 81-64" id="ah"/><g id="c"><use transform="matrix(0.03703703703703702,0,0,0.03703703703703702,0,0)" xlink:href="#ab"/><use transform="matrix(0.03703703703703702,0,0,0.03703703703703702,7.407407407407404,0)" xlink:href="#ac"/><use transform="matrix(0.03703703703703702,0,0,0.03703703703703702,14.814814814814808,0)" xlink:href="#ag"/><use transform="matrix(0.03703703703703702,0,0,0.03703703703703702,22.222222222222214,0)" xlink:href="#ah"/></g><g id="d"><use transform="matrix(0.03703703703703702,0,0,0.03703703703703702,0,0)" xlink:href="#ab"/><use transform="matrix(0.03703703703703702,0,0,0.03703703703703702,7.407407407407404,0)" xlink:href="#ac"/><use transform="matrix(0.03703703703703702,0,0,0.03703703703703702,14.814814814814808,0)" xlink:href="#ag"/><use transform="matrix(0.03703703703703702,0,0,0.03703703703703702,22.222222222222214,0)" xlink:href="#ae"/></g><g id="e"><use transform="matrix(0.03703703703703702,0,0,0.03703703703703702,0,0)" xlink:href="#ab"/><use transform="matrix(0.03703703703703702,0,0,0.03703703703703702,7.407407407407404,0)" xlink:href="#ac"/><use transform="matrix(0.03703703703703702,0,0,0.03703703703703702,14.814814814814808,0)" xlink:href="#ac"/><use transform="matrix(0.03703703703703702,0,0,0.03703703703703702,22.222222222222214,0)" xlink:href="#ae"/></g><path fill="#333" d="M101-251c68 0 85 55 85 127S166 4 100 4C33 4 14-52 14-124c0-73 17-127 87-127zm-1 229c47 0 54-49 54-102s-4-102-53-102c-51 0-55 48-55 102 0 53 5 102 54 102" id="ai"/><g id="f"><use transform="matrix(0.03703703703703702,0,0,0.03703703703703702,0,0)" xlink:href="#ah"/><use transform="matrix(0.03703703703703702,0,0,0.03703703703703702,7.407407407407404,0)" xlink:href="#ai"/><use transform="matrix(0.03703703703703702,0,0,0.03703703703703702,14.814814814814808,0)" xlink:href="#ab"/><use transform="matrix(0.03703703703703702,0,0,0.03703703703703702,22.222222222222214,0)" xlink:href="#ah"/></g><path fill="#333" d="M155-56V0h-30v-56H8v-25l114-167h33v167h35v25h-35zm-30-156c-27 46-58 90-88 131h88v-131" id="aj"/><g id="g"><use transform="matrix(0.03703703703703702,0,0,0.03703703703703702,0,0)" xlink:href="#ah"/><use transform="matrix(0.03703703703703702,0,0,0.03703703703703702,7.407407407407404,0)" xlink:href="#ai"/><use transform="matrix(0.03703703703703702,0,0,0.03703703703703702,14.814814814814808,0)" xlink:href="#ah"/><use transform="matrix(0.03703703703703702,0,0,0.03703703703703702,22.222222222222214,0)" xlink:href="#aj"/></g><path fill="#333" d="M63-220v92h138v28H63V0H30v-248h175v28H63" id="ak"/><path fill="#333" d="M24-231v-30h32v30H24zM24 0v-190h32V0H24" id="al"/><path fill="#333" d="M114-163C36-179 61-72 57 0H25l-1-190h30c1 12-1 29 2 39 6-27 23-49 58-41v29" id="am"/><path fill="#333" d="M135-143c-3-34-86-38-87 0 15 53 115 12 119 90S17 21 10-45l28-5c4 36 97 45 98 0-10-56-113-15-118-90-4-57 82-63 122-42 12 7 21 19 24 35" id="an"/><path fill="#333" d="M59-47c-2 24 18 29 38 22v24C64 9 27 4 27-40v-127H5v-23h24l9-43h21v43h35v23H59v120" id="ao"/><g id="h"><use transform="matrix(0.03703703703703702,0,0,0.03703703703703702,0,0)" xlink:href="#ak"/><use transform="matrix(0.03703703703703702,0,0,0.03703703703703702,8.111111111111107,0)" xlink:href="#al"/><use transform="matrix(0.03703703703703702,0,0,0.03703703703703702,11.037037037037031,0)" xlink:href="#am"/><use transform="matrix(0.03703703703703702,0,0,0.03703703703703702,15.444444444444436,0)" xlink:href="#an"/><use transform="matrix(0.03703703703703702,0,0,0.03703703703703702,22.1111111111111,0)" xlink:href="#ao"/></g><path fill="#333" d="M185-189c-5-48-123-54-124 2 14 75 158 14 163 119 3 78-121 87-175 55-17-10-28-26-33-46l33-7c5 56 141 63 141-1 0-78-155-14-162-118-5-82 145-84 179-34 5 7 8 16 11 25" id="ap"/><path fill="#333" d="M84 4C-5 8 30-112 23-190h32v120c0 31 7 50 39 49 72-2 45-101 50-169h31l1 190h-30c-1-10 1-25-2-33-11 22-28 36-60 37" id="aq"/><path fill="#333" d="M210-169c-67 3-38 105-44 169h-31v-121c0-29-5-50-35-48C34-165 62-65 56 0H25l-1-190h30c1 10-1 24 2 32 10-44 99-50 107 0 11-21 27-35 58-36 85-2 47 119 55 194h-31v-121c0-29-5-49-35-48" id="ar"/><path fill="#333" d="M100-194c63 0 86 42 84 106H49c0 40 14 67 53 68 26 1 43-12 49-29l28 8c-11 28-37 45-77 45C44 4 14-33 15-96c1-61 26-98 85-98zm52 81c6-60-76-77-97-28-3 7-6 17-6 28h103" id="as"/><g id="i"><use transform="matrix(0.03703703703703702,0,0,0.03703703703703702,0,0)" xlink:href="#ap"/><use transform="matrix(0.03703703703703702,0,0,0.03703703703703702,8.888888888888886,0)" xlink:href="#aq"/><use transform="matrix(0.03703703703703702,0,0,0.03703703703703702,16.29629629629629,0)" xlink:href="#ar"/><use transform="matrix(0.03703703703703702,0,0,0.03703703703703702,27.37037037037036,0)" xlink:href="#ar"/><use transform="matrix(0.03703703703703702,0,0,0.03703703703703702,38.44444444444443,0)" xlink:href="#as"/><use transform="matrix(0.03703703703703702,0,0,0.03703703703703702,45.85185185185183,0)" xlink:href="#am"/></g><path fill="#333" d="M100-194c62-1 85 37 85 99 1 63-27 99-86 99S16-35 15-95c0-66 28-99 85-99zM99-20c44 1 53-31 53-75 0-43-8-75-51-75s-53 32-53 75 10 74 51 75" id="at"/><path fill="#333" d="M101-234c-31-9-42 10-38 44h38v23H63V0H32v-167H5v-23h27c-7-52 17-82 69-68v24" id="au"/><g id="j"><use transform="matrix(0.03703703703703702,0,0,0.03703703703703702,0,0)" xlink:href="#at"/><use transform="matrix(0.03703703703703702,0,0,0.03703703703703702,7.407407407407404,0)" xlink:href="#au"/></g><path fill="#333" d="M205 0l-28-72H64L36 0H1l101-248h38L239 0h-34zm-38-99l-47-123c-12 45-31 82-46 123h93" id="av"/><path fill="#333" d="M33 0v-248h34V0H33" id="aw"/><g id="k"><use transform="matrix(0.03703703703703702,0,0,0.03703703703703702,0,0)" xlink:href="#av"/><use transform="matrix(0.03703703703703702,0,0,0.03703703703703702,8.888888888888886,0)" xlink:href="#aw"/></g><path fill="#333" d="M47-170H22l-4-78h33" id="ax"/><path fill="#333" d="M141-36C126-15 110 5 73 4 37 3 15-17 15-53c-1-64 63-63 125-63 3-35-9-54-41-54-24 1-41 7-42 31l-33-3c5-37 33-52 76-52 45 0 72 20 72 64v82c-1 20 7 32 28 27v20c-31 9-61-2-59-35zM48-53c0 20 12 33 32 33 41-3 63-29 60-74-43 2-92-5-92 41" id="ay"/><path fill="#333" d="M96-169c-40 0-48 33-48 73s9 75 48 75c24 0 41-14 43-38l32 2c-6 37-31 61-74 61-59 0-76-41-82-99-10-93 101-131 147-64 4 7 5 14 7 22l-32 3c-4-21-16-35-41-35" id="az"/><path fill="#333" d="M106-169C34-169 62-67 57 0H25v-261h32l-1 103c12-21 28-36 61-36 89 0 53 116 60 194h-32v-121c2-32-8-49-39-48" id="aA"/><g id="l"><use transform="matrix(0.03703703703703702,0,0,0.03703703703703702,0,0)" xlink:href="#ax"/><use transform="matrix(0.03703703703703702,0,0,0.03703703703703702,2.5185185185185173,0)" xlink:href="#ap"/><use transform="matrix(0.03703703703703702,0,0,0.03703703703703702,11.407407407407403,0)" xlink:href="#as"/><use transform="matrix(0.03703703703703702,0,0,0.03703703703703702,18.814814814814806,0)" xlink:href="#ay"/><use transform="matrix(0.03703703703703702,0,0,0.03703703703703702,26.22222222222221,0)" xlink:href="#am"/><use transform="matrix(0.03703703703703702,0,0,0.03703703703703702,30.629629629629616,0)" xlink:href="#az"/><use transform="matrix(0.03703703703703702,0,0,0.03703703703703702,37.296296296296276,0)" xlink:href="#aA"/></g><path fill="#333" d="M24 0v-261h32V0H24" id="aB"/><path fill="#333" d="M177-190C167-65 218 103 67 71c-23-6-38-20-44-43l32-5c15 47 100 32 89-28v-30C133-14 115 1 83 1 29 1 15-40 15-95c0-56 16-97 71-98 29-1 48 16 59 35 1-10 0-23 2-32h30zM94-22c36 0 50-32 50-73 0-42-14-75-50-75-39 0-46 34-46 75s6 73 46 73" id="aC"/><g id="m"><use transform="matrix(0.03703703703703702,0,0,0.03703703703703702,0,0)" xlink:href="#av"/><use transform="matrix(0.03703703703703702,0,0,0.03703703703703702,8.888888888888886,0)" xlink:href="#aB"/><use transform="matrix(0.03703703703703702,0,0,0.03703703703703702,11.81481481481481,0)" xlink:href="#aC"/><use transform="matrix(0.03703703703703702,0,0,0.03703703703703702,19.222222222222214,0)" xlink:href="#at"/><use transform="matrix(0.03703703703703702,0,0,0.03703703703703702,26.62962962962962,0)" xlink:href="#am"/><use transform="matrix(0.03703703703703702,0,0,0.03703703703703702,31.037037037037024,0)" xlink:href="#al"/><use transform="matrix(0.03703703703703702,0,0,0.03703703703703702,33.96296296296295,0)" xlink:href="#ao"/><use transform="matrix(0.03703703703703702,0,0,0.03703703703703702,37.66666666666665,0)" xlink:href="#aA"/><use transform="matrix(0.03703703703703702,0,0,0.03703703703703702,45.074074074074055,0)" xlink:href="#ar"/><use transform="matrix(0.03703703703703702,0,0,0.03703703703703702,56.148148148148124,0)" xlink:href="#ax"/></g><path fill="#333" d="M30 0v-248h33v221h125V0H30" id="aD"/><g id="n"><use transform="matrix(0.03703703703703702,0,0,0.03703703703703702,0,0)" xlink:href="#aD"/><use transform="matrix(0.03703703703703702,0,0,0.03703703703703702,7.407407407407404,0)" xlink:href="#al"/><use transform="matrix(0.03703703703703702,0,0,0.03703703703703702,10.333333333333329,0)" xlink:href="#aC"/><use transform="matrix(0.03703703703703702,0,0,0.03703703703703702,17.740740740740733,0)" xlink:href="#aA"/><use transform="matrix(0.03703703703703702,0,0,0.03703703703703702,25.148148148148138,0)" xlink:href="#ao"/><use transform="matrix(0.03703703703703702,0,0,0.03703703703703702,28.85185185185184,0)" xlink:href="#aA"/><use transform="matrix(0.03703703703703702,0,0,0.03703703703703702,36.259259259259245,0)" xlink:href="#al"/><use transform="matrix(0.03703703703703702,0,0,0.03703703703703702,39.18518518518517,0)" xlink:href="#aB"/><use transform="matrix(0.03703703703703702,0,0,0.03703703703703702,42.11111111111109,0)" xlink:href="#aB"/></g><path fill="#333" d="M233-177c-1 41-23 64-60 70L243 0h-38l-65-103H63V0H30v-248c88 3 205-21 203 71zM63-129c60-2 137 13 137-47 0-61-80-42-137-45v92" id="aE"/><path fill="#333" d="M115-194c55 1 70 41 70 98S169 2 115 4C84 4 66-9 55-30l1 105H24l-1-265h31l2 30c10-21 28-34 59-34zm-8 174c40 0 45-34 45-75s-6-73-45-74c-42 0-51 32-51 76 0 43 10 73 51 73" id="aF"/><g id="o"><use transform="matrix(0.03703703703703702,0,0,0.03703703703703702,0,0)" xlink:href="#aE"/><use transform="matrix(0.03703703703703702,0,0,0.03703703703703702,9.592592592592588,0)" xlink:href="#as"/><use transform="matrix(0.03703703703703702,0,0,0.03703703703703702,16.999999999999993,0)" xlink:href="#aF"/><use transform="matrix(0.03703703703703702,0,0,0.03703703703703702,24.407407407407398,0)" xlink:href="#at"/><use transform="matrix(0.03703703703703702,0,0,0.03703703703703702,31.814814814814802,0)" xlink:href="#am"/><use transform="matrix(0.03703703703703702,0,0,0.03703703703703702,36.22222222222221,0)" xlink:href="#ao"/></g><path fill="#333" d="M212-179c-10-28-35-45-73-45-59 0-87 40-87 99 0 60 29 101 89 101 43 0 62-24 78-52l27 14C228-24 195 4 139 4 59 4 22-46 18-125c-6-104 99-153 187-111 19 9 31 26 39 46" id="aG"/><path fill="#333" d="M85-194c31 0 48 13 60 33l-1-100h32l1 261h-30c-2-10 0-23-3-31C134-8 116 4 85 4 32 4 16-35 15-94c0-66 23-100 70-100zm9 24c-40 0-46 34-46 75 0 40 6 74 45 74 42 0 51-32 51-76 0-42-9-74-50-73" id="aH"/><g id="p"><use transform="matrix(0.03703703703703702,0,0,0.03703703703703702,0,0)" xlink:href="#aG"/><use transform="matrix(0.03703703703703702,0,0,0.03703703703703702,9.592592592592588,0)" xlink:href="#at"/><use transform="matrix(0.03703703703703702,0,0,0.03703703703703702,16.999999999999993,0)" xlink:href="#ar"/><use transform="matrix(0.03703703703703702,0,0,0.03703703703703702,28.074074074074062,0)" xlink:href="#ar"/><use transform="matrix(0.03703703703703702,0,0,0.03703703703703702,39.14814814814813,0)" xlink:href="#as"/><use transform="matrix(0.03703703703703702,0,0,0.03703703703703702,46.555555555555536,0)" xlink:href="#am"/><use transform="matrix(0.03703703703703702,0,0,0.03703703703703702,50.96296296296294,0)" xlink:href="#az"/><use transform="matrix(0.03703703703703702,0,0,0.03703703703703702,57.629629629629605,0)" xlink:href="#al"/><use transform="matrix(0.03703703703703702,0,0,0.03703703703703702,60.55555555555553,0)" xlink:href="#ay"/><use transform="matrix(0.03703703703703702,0,0,0.03703703703703702,67.96296296296293,0)" xlink:href="#aB"/><use transform="matrix(0.03703703703703702,0,0,0.03703703703703702,70.88888888888886,0)" xlink:href="#al"/><use transform="matrix(0.03703703703703702,0,0,0.03703703703703702,73.81481481481478,0)" xlink:href="#an"/><use transform="matrix(0.03703703703703702,0,0,0.03703703703703702,80.48148148148142,0)" xlink:href="#as"/><use transform="matrix(0.03703703703703702,0,0,0.03703703703703702,87.88888888888886,0)" xlink:href="#aH"/></g><path fill="#333" d="M30 0v-248h187v28H63v79h144v27H63v87h162V0H30" id="aI"/><path fill="#333" d="M141 0L90-78 38 0H4l68-98-65-92h35l48 74 47-74h35l-64 92 68 98h-35" id="aJ"/><g id="q"><use transform="matrix(0.03703703703703702,0,0,0.03703703703703702,0,0)" xlink:href="#aI"/><use transform="matrix(0.03703703703703702,0,0,0.03703703703703702,8.888888888888886,0)" xlink:href="#aJ"/><use transform="matrix(0.03703703703703702,0,0,0.03703703703703702,15.555555555555552,0)" xlink:href="#aF"/><use transform="matrix(0.03703703703703702,0,0,0.03703703703703702,22.962962962962955,0)" xlink:href="#as"/><use transform="matrix(0.03703703703703702,0,0,0.03703703703703702,30.370370370370363,0)" xlink:href="#am"/><use transform="matrix(0.03703703703703702,0,0,0.03703703703703702,34.777777777777764,0)" xlink:href="#ao"/></g><path fill="#333" d="M179-190L93 31C79 59 56 82 12 73V49c39 6 53-20 64-50L1-190h34L92-34l54-156h33" id="aK"/><g id="r"><use transform="matrix(0.03703703703703702,0,0,0.03703703703703702,0,0)" xlink:href="#ap"/><use transform="matrix(0.03703703703703702,0,0,0.03703703703703702,8.888888888888886,0)" xlink:href="#aK"/><use transform="matrix(0.03703703703703702,0,0,0.03703703703703702,15.555555555555552,0)" xlink:href="#an"/><use transform="matrix(0.03703703703703702,0,0,0.03703703703703702,22.222222222222214,0)" xlink:href="#ao"/><use transform="matrix(0.03703703703703702,0,0,0.03703703703703702,25.925925925925913,0)" xlink:href="#as"/><use transform="matrix(0.03703703703703702,0,0,0.03703703703703702,33.33333333333332,0)" xlink:href="#ar"/><use transform="matrix(0.03703703703703702,0,0,0.03703703703703702,44.40740740740739,0)" xlink:href="#an"/></g><path fill="#333" d="M117-194c89-4 53 116 60 194h-32v-121c0-31-8-49-39-48C34-167 62-67 57 0H25l-1-190h30c1 10-1 24 2 32 11-22 29-35 61-36" id="aL"/><g id="s"><use transform="matrix(0.03703703703703702,0,0,0.03703703703703702,0,0)" xlink:href="#ap"/><use transform="matrix(0.03703703703703702,0,0,0.03703703703703702,8.888888888888886,0)" xlink:href="#as"/><use transform="matrix(0.03703703703703702,0,0,0.03703703703703702,16.29629629629629,0)" xlink:href="#az"/><use transform="matrix(0.03703703703703702,0,0,0.03703703703703702,22.962962962962955,0)" xlink:href="#at"/><use transform="matrix(0.03703703703703702,0,0,0.03703703703703702,30.370370370370363,0)" xlink:href="#aL"/><use transform="matrix(0.03703703703703702,0,0,0.03703703703703702,37.777777777777764,0)" xlink:href="#aH"/></g><g id="t"><use transform="matrix(0.03703703703703702,0,0,0.03703703703703702,0,0)" xlink:href="#ax"/><use transform="matrix(0.03703703703703702,0,0,0.03703703703703702,2.5185185185185173,0)" xlink:href="#aI"/><use transform="matrix(0.03703703703703702,0,0,0.03703703703703702,11.407407407407403,0)" xlink:href="#aJ"/><use transform="matrix(0.03703703703703702,0,0,0.03703703703703702,18.074074074074066,0)" xlink:href="#aF"/><use transform="matrix(0.03703703703703702,0,0,0.03703703703703702,25.48148148148147,0)" xlink:href="#as"/><use transform="matrix(0.03703703703703702,0,0,0.03703703703703702,32.88888888888887,0)" xlink:href="#am"/><use transform="matrix(0.03703703703703702,0,0,0.03703703703703702,37.296296296296276,0)" xlink:href="#ao"/></g><g id="u"><use transform="matrix(0.03703703703703702,0,0,0.03703703703703702,0,0)" xlink:href="#ap"/><use transform="matrix(0.03703703703703702,0,0,0.03703703703703702,8.888888888888886,0)" xlink:href="#aK"/><use transform="matrix(0.03703703703703702,0,0,0.03703703703703702,15.555555555555552,0)" xlink:href="#an"/><use transform="matrix(0.03703703703703702,0,0,0.03703703703703702,22.222222222222214,0)" xlink:href="#ao"/><use transform="matrix(0.03703703703703702,0,0,0.03703703703703702,25.925925925925913,0)" xlink:href="#as"/><use transform="matrix(0.03703703703703702,0,0,0.03703703703703702,33.33333333333332,0)" xlink:href="#ar"/><use transform="matrix(0.03703703703703702,0,0,0.03703703703703702,44.40740740740739,0)" xlink:href="#ax"/></g><path fill="#333" d="M143 4C61 4 22-44 18-125c-5-107 100-154 193-111 17 8 29 25 37 43l-32 9c-13-25-37-40-76-40-61 0-88 39-88 99 0 61 29 100 91 101 35 0 62-11 79-27v-45h-74v-28h105v86C228-13 192 4 143 4" id="aM"/><path fill="#333" d="M115-194c53 0 69 39 70 98 0 66-23 100-70 100C84 3 66-7 56-30L54 0H23l1-261h32v101c10-23 28-34 59-34zm-8 174c40 0 45-34 45-75 0-40-5-75-45-74-42 0-51 32-51 76 0 43 10 73 51 73" id="aN"/><g id="v"><use transform="matrix(0.03703703703703702,0,0,0.03703703703703702,0,0)" xlink:href="#aM"/><use transform="matrix(0.03703703703703702,0,0,0.03703703703703702,10.370370370370367,0)" xlink:href="#aB"/><use transform="matrix(0.03703703703703702,0,0,0.03703703703703702,13.29629629629629,0)" xlink:href="#at"/><use transform="matrix(0.03703703703703702,0,0,0.03703703703703702,20.703703703703695,0)" xlink:href="#aN"/><use transform="matrix(0.03703703703703702,0,0,0.03703703703703702,28.1111111111111,0)" xlink:href="#ay"/><use transform="matrix(0.03703703703703702,0,0,0.03703703703703702,35.518518518518505,0)" xlink:href="#aB"/></g><g id="w"><use transform="matrix(0.03703703703703702,0,0,0.03703703703703702,0,0)" xlink:href="#ak"/><use transform="matrix(0.03703703703703702,0,0,0.03703703703703702,8.111111111111107,0)" xlink:href="#aq"/><use transform="matrix(0.03703703703703702,0,0,0.03703703703703702,15.518518518518512,0)" xlink:href="#aL"/><use transform="matrix(0.03703703703703702,0,0,0.03703703703703702,22.925925925925917,0)" xlink:href="#aH"/><use transform="matrix(0.03703703703703702,0,0,0.03703703703703702,30.33333333333332,0)" xlink:href="#al"/><use transform="matrix(0.03703703703703702,0,0,0.03703703703703702,33.259259259259245,0)" xlink:href="#aL"/><use transform="matrix(0.03703703703703702,0,0,0.03703703703703702,40.66666666666665,0)" xlink:href="#aC"/></g><g id="x"><use transform="matrix(0.03703703703703702,0,0,0.03703703703703702,0,0)" xlink:href="#aG"/><use transform="matrix(0.03703703703703702,0,0,0.03703703703703702,9.592592592592588,0)" xlink:href="#aq"/><use transform="matrix(0.03703703703703702,0,0,0.03703703703703702,16.999999999999993,0)" xlink:href="#ao"/></g><path fill="#333" d="M266 0h-40l-56-210L115 0H75L2-248h35L96-30l15-64 43-154h32l59 218 59-218h35" id="aO"/><g id="y"><use transform="matrix(0.03703703703703702,0,0,0.03703703703703702,0,0)" xlink:href="#aO"/><use transform="matrix(0.03703703703703702,0,0,0.03703703703703702,12.55555555555555,0)" xlink:href="#al"/><use transform="matrix(0.03703703703703702,0,0,0.03703703703703702,15.481481481481476,0)" xlink:href="#aL"/><use transform="matrix(0.03703703703703702,0,0,0.03703703703703702,22.88888888888888,0)" xlink:href="#ao"/><use transform="matrix(0.03703703703703702,0,0,0.03703703703703702,26.59259259259258,0)" xlink:href="#as"/><use transform="matrix(0.03703703703703702,0,0,0.03703703703703702,33.999999999999986,0)" xlink:href="#am"/></g><g id="z"><use transform="matrix(0.03703703703703702,0,0,0.03703703703703702,0,0)" xlink:href="#av"/><use transform="matrix(0.03703703703703702,0,0,0.03703703703703702,8.888888888888886,0)" xlink:href="#aw"/></g><path fill="#333" d="M30-248c118-7 216 8 213 122C240-48 200 0 122 0H30v-248zM63-27c89 8 146-16 146-99s-60-101-146-95v194" id="aP"/><g id="A"><use transform="matrix(0.03703703703703702,0,0,0.03703703703703702,0,0)" xlink:href="#aP"/><use transform="matrix(0.03703703703703702,0,0,0.03703703703703702,9.592592592592588,0)" xlink:href="#as"/><use transform="matrix(0.03703703703703702,0,0,0.03703703703703702,16.999999999999993,0)" xlink:href="#as"/><use transform="matrix(0.03703703703703702,0,0,0.03703703703703702,24.407407407407398,0)" xlink:href="#aF"/></g><path fill="#333" d="M160-131c35 5 61 23 61 61C221 17 115-2 30 0v-248c76 3 177-17 177 60 0 33-19 50-47 57zm-97-11c50-1 110 9 110-42 0-47-63-36-110-37v79zm0 115c55-2 124 14 124-45 0-56-70-42-124-44v89" id="aQ"/><g id="B"><use transform="matrix(0.03703703703703702,0,0,0.03703703703703702,0,0)" xlink:href="#aQ"/><use transform="matrix(0.03703703703703702,0,0,0.03703703703703702,8.888888888888886,0)" xlink:href="#aB"/><use transform="matrix(0.03703703703703702,0,0,0.03703703703703702,11.81481481481481,0)" xlink:href="#aq"/><use transform="matrix(0.03703703703703702,0,0,0.03703703703703702,19.222222222222214,0)" xlink:href="#as"/></g><path fill="#333" d="M206 0h-36l-40-164L89 0H53L-1-190h32L70-26l43-164h34l41 164 42-164h31" id="aR"/><g id="C"><use transform="matrix(0.03703703703703702,0,0,0.03703703703703702,0,0)" xlink:href="#aR"/><use transform="matrix(0.03703703703703702,0,0,0.03703703703703702,9.592592592592588,0)" xlink:href="#al"/><use transform="matrix(0.03703703703703702,0,0,0.03703703703703702,12.51851851851851,0)" xlink:href="#aL"/><use transform="matrix(0.03703703703703702,0,0,0.03703703703703702,19.925925925925917,0)" xlink:href="#an"/></g><g id="D"><use transform="matrix(0.03703703703703702,0,0,0.03703703703703702,0,0)" xlink:href="#aM"/><use transform="matrix(0.03703703703703702,0,0,0.03703703703703702,10.370370370370367,0)" xlink:href="#ay"/><use transform="matrix(0.03703703703703702,0,0,0.03703703703703702,17.77777777777777,0)" xlink:href="#am"/><use transform="matrix(0.03703703703703702,0,0,0.03703703703703702,22.185185185185176,0)" xlink:href="#aK"/></g><path fill="#333" d="M194 0L95-120 63-95V0H30v-248h33v124l119-124h40L117-140 236 0h-42" id="aS"/><path fill="#333" d="M108 0H70L1-190h34L89-25l56-165h34" id="aT"/><g id="E"><use transform="matrix(0.03703703703703702,0,0,0.03703703703703702,0,0)" xlink:href="#aS"/><use transform="matrix(0.03703703703703702,0,0,0.03703703703703702,8.888888888888886,0)" xlink:href="#ay"/><use transform="matrix(0.03703703703703702,0,0,0.03703703703703702,16.29629629629629,0)" xlink:href="#an"/><use transform="matrix(0.03703703703703702,0,0,0.03703703703703702,22.962962962962955,0)" xlink:href="#aF"/><use transform="matrix(0.03703703703703702,0,0,0.03703703703703702,30.370370370370363,0)" xlink:href="#ay"/><use transform="matrix(0.03703703703703702,0,0,0.03703703703703702,37.777777777777764,0)" xlink:href="#am"/><use transform="matrix(0.03703703703703702,0,0,0.03703703703703702,42.18518518518517,0)" xlink:href="#at"/><use transform="matrix(0.03703703703703702,0,0,0.03703703703703702,49.592592592592574,0)" xlink:href="#aT"/></g><path fill="#333" d="M127-220V0H93v-220H8v-28h204v28h-85" id="aU"/><g id="F"><use transform="matrix(0.03703703703703702,0,0,0.03703703703703702,0,0)" xlink:href="#aU"/><use transform="matrix(0.03703703703703702,0,0,0.03703703703703702,8.111111111111107,0)" xlink:href="#aA"/><use transform="matrix(0.03703703703703702,0,0,0.03703703703703702,15.518518518518512,0)" xlink:href="#al"/><use transform="matrix(0.03703703703703702,0,0,0.03703703703703702,18.444444444444436,0)" xlink:href="#am"/><use transform="matrix(0.03703703703703702,0,0,0.03703703703703702,22.85185185185184,0)" xlink:href="#aH"/></g><path fill="#333" d="M240 0l2-218c-23 76-54 145-80 218h-23L58-218 59 0H30v-248h44l77 211c21-75 51-140 76-211h43V0h-30" id="aV"/><g id="G"><use transform="matrix(0.03703703703703702,0,0,0.03703703703703702,0,0)" xlink:href="#ax"/><use transform="matrix(0.03703703703703702,0,0,0.03703703703703702,2.5185185185185173,0)" xlink:href="#aV"/><use transform="matrix(0.03703703703703702,0,0,0.03703703703703702,13.592592592592586,0)" xlink:href="#ay"/><use transform="matrix(0.03703703703703702,0,0,0.03703703703703702,20.99999999999999,0)" xlink:href="#az"/><use transform="matrix(0.03703703703703702,0,0,0.03703703703703702,27.666666666666654,0)" xlink:href="#aA"/><use transform="matrix(0.03703703703703702,0,0,0.03703703703703702,35.074074074074055,0)" xlink:href="#al"/><use transform="matrix(0.03703703703703702,0,0,0.03703703703703702,37.99999999999998,0)" xlink:href="#aL"/><use transform="matrix(0.03703703703703702,0,0,0.03703703703703702,45.407407407407376,0)" xlink:href="#as"/></g><g id="H"><use transform="matrix(0.03703703703703702,0,0,0.03703703703703702,0,0)" xlink:href="#aD"/><use transform="matrix(0.03703703703703702,0,0,0.03703703703703702,7.407407407407404,0)" xlink:href="#as"/><use transform="matrix(0.03703703703703702,0,0,0.03703703703703702,14.814814814814808,0)" xlink:href="#ay"/><use transform="matrix(0.03703703703703702,0,0,0.03703703703703702,22.222222222222214,0)" xlink:href="#am"/><use transform="matrix(0.03703703703703702,0,0,0.03703703703703702,26.629629629629616,0)" xlink:href="#aL"/><use transform="matrix(0.03703703703703702,0,0,0.03703703703703702,34.03703703703702,0)" xlink:href="#al"/><use transform="matrix(0.03703703703703702,0,0,0.03703703703703702,36.96296296296294,0)" xlink:href="#aL"/><use transform="matrix(0.03703703703703702,0,0,0.03703703703703702,44.370370370370345,0)" xlink:href="#aC"/><use transform="matrix(0.03703703703703702,0,0,0.03703703703703702,51.77777777777775,0)" xlink:href="#ax"/></g><path fill="#333" d="M190 0L58-211 59 0H30v-248h39L202-35l-2-213h31V0h-41" id="aW"/><g id="I"><use transform="matrix(0.03703703703703702,0,0,0.03703703703703702,0,0)" xlink:href="#av"/><use transform="matrix(0.03703703703703702,0,0,0.03703703703703702,8.888888888888886,0)" xlink:href="#aB"/><use transform="matrix(0.03703703703703702,0,0,0.03703703703703702,11.81481481481481,0)" xlink:href="#as"/><use transform="matrix(0.03703703703703702,0,0,0.03703703703703702,19.222222222222214,0)" xlink:href="#aJ"/><use transform="matrix(0.03703703703703702,0,0,0.03703703703703702,25.88888888888888,0)" xlink:href="#aW"/><use transform="matrix(0.03703703703703702,0,0,0.03703703703703702,35.48148148148147,0)" xlink:href="#as"/><use transform="matrix(0.03703703703703702,0,0,0.03703703703703702,42.88888888888887,0)" xlink:href="#ao"/></g><g id="J"><use transform="matrix(0.03703703703703702,0,0,0.03703703703703702,0,0)" xlink:href="#aw"/><use transform="matrix(0.03703703703703702,0,0,0.03703703703703702,3.703703703703702,0)" xlink:href="#ar"/><use transform="matrix(0.03703703703703702,0,0,0.03703703703703702,14.777777777777771,0)" xlink:href="#ay"/><use transform="matrix(0.03703703703703702,0,0,0.03703703703703702,22.185185185185176,0)" xlink:href="#aC"/><use transform="matrix(0.03703703703703702,0,0,0.03703703703703702,29.59259259259258,0)" xlink:href="#as"/><use transform="matrix(0.03703703703703702,0,0,0.03703703703703702,36.999999999999986,0)" xlink:href="#aW"/><use transform="matrix(0.03703703703703702,0,0,0.03703703703703702,46.592592592592574,0)" xlink:href="#as"/><use transform="matrix(0.03703703703703702,0,0,0.03703703703703702,53.99999999999998,0)" xlink:href="#ao"/></g><path fill="#333" d="M137 0h-34L2-248h35l83 218 83-218h36" id="aX"/><g id="K"><use transform="matrix(0.03703703703703702,0,0,0.03703703703703702,0,0)" xlink:href="#aw"/><use transform="matrix(0.03703703703703702,0,0,0.03703703703703702,3.703703703703702,0)" xlink:href="#aD"/><use transform="matrix(0.03703703703703702,0,0,0.03703703703703702,11.111111111111107,0)" xlink:href="#ap"/><use transform="matrix(0.03703703703703702,0,0,0.03703703703703702,19.999999999999993,0)" xlink:href="#aX"/><use transform="matrix(0.03703703703703702,0,0,0.03703703703703702,28.888888888888882,0)" xlink:href="#aE"/><use transform="matrix(0.03703703703703702,0,0,0.03703703703703702,38.48148148148147,0)" xlink:href="#aG"/></g><g id="L"><use transform="matrix(0.03703703703703702,0,0,0.03703703703703702,0,0)" xlink:href="#ax"/><use transform="matrix(0.03703703703703702,0,0,0.03703703703703702,2.5185185185185173,0)" xlink:href="#aP"/><use transform="matrix(0.03703703703703702,0,0,0.03703703703703702,12.111111111111105,0)" xlink:href="#as"/><use transform="matrix(0.03703703703703702,0,0,0.03703703703703702,19.51851851851851,0)" xlink:href="#as"/><use transform="matrix(0.03703703703703702,0,0,0.03703703703703702,26.925925925925913,0)" xlink:href="#aF"/></g><path fill="#333" d="M232-93c-1 65-40 97-104 97C67 4 28-28 28-90v-158h33c8 89-33 224 67 224 102 0 64-133 71-224h33v155" id="aY"/><path fill="#333" d="M16-82v-28h88v28H16" id="aZ"/><g id="M"><use transform="matrix(0.030864197530864182,0,0,0.030864197530864182,0,0)" xlink:href="#aE"/><use transform="matrix(0.030864197530864182,0,0,0.030864197530864182,7.993827160493823,0)" xlink:href="#aY"/><use transform="matrix(0.030864197530864182,0,0,0.030864197530864182,15.987654320987646,0)" xlink:href="#aD"/><use transform="matrix(0.030864197530864182,0,0,0.030864197530864182,22.160493827160483,0)" xlink:href="#aI"/><use transform="matrix(0.030864197530864182,0,0,0.030864197530864182,29.567901234567888,0)" xlink:href="#aZ"/><use transform="matrix(0.030864197530864182,0,0,0.030864197530864182,33.240740740740726,0)" xlink:href="#aQ"/><use transform="matrix(0.030864197530864182,0,0,0.030864197530864182,40.64814814814813,0)" xlink:href="#av"/><use transform="matrix(0.030864197530864182,0,0,0.030864197530864182,48.055555555555536,0)" xlink:href="#ap"/><use transform="matrix(0.030864197530864182,0,0,0.030864197530864182,55.46296296296294,0)" xlink:href="#aI"/><use transform="matrix(0.030864197530864182,0,0,0.030864197530864182,62.870370370370345,0)" xlink:href="#aP"/></g><path fill="#333" d="M140-251c81 0 123 46 123 126C263-46 219 4 140 4 59 4 17-45 17-125s42-126 123-126zm0 227c63 0 89-41 89-101s-29-99-89-99c-61 0-89 39-89 99S79-25 140-24" id="ba"/><g id="N"><use transform="matrix(0.030864197530864182,0,0,0.030864197530864182,0,0)" xlink:href="#aP"/><use transform="matrix(0.030864197530864182,0,0,0.030864197530864182,7.993827160493823,0)" xlink:href="#aI"/><use transform="matrix(0.030864197530864182,0,0,0.030864197530864182,15.401234567901227,0)" xlink:href="#aU"/><use transform="matrix(0.030864197530864182,0,0,0.030864197530864182,22.160493827160483,0)" xlink:href="#aI"/><use transform="matrix(0.030864197530864182,0,0,0.030864197530864182,29.567901234567888,0)" xlink:href="#aE"/><use transform="matrix(0.030864197530864182,0,0,0.030864197530864182,37.561728395061714,0)" xlink:href="#aV"/><use transform="matrix(0.030864197530864182,0,0,0.030864197530864182,46.790123456790106,0)" xlink:href="#aw"/><use transform="matrix(0.030864197530864182,0,0,0.030864197530864182,49.87654320987652,0)" xlink:href="#aW"/><use transform="matrix(0.030864197530864182,0,0,0.030864197530864182,57.870370370370345,0)" xlink:href="#av"/><use transform="matrix(0.030864197530864182,0,0,0.030864197530864182,64.44444444444441,0)" xlink:href="#aU"/><use transform="matrix(0.030864197530864182,0,0,0.030864197530864182,71.20370370370367,0)" xlink:href="#aw"/><use transform="matrix(0.030864197530864182,0,0,0.030864197530864182,74.29012345679008,0)" xlink:href="#ba"/><use transform="matrix(0.030864197530864182,0,0,0.030864197530864182,82.93209876543206,0)" xlink:href="#aW"/></g><g id="O"><use transform="matrix(0.030864197530864182,0,0,0.030864197530864182,0,0)" xlink:href="#aP"/><use transform="matrix(0.030864197530864182,0,0,0.030864197530864182,7.993827160493823,0)" xlink:href="#av"/><use transform="matrix(0.030864197530864182,0,0,0.030864197530864182,14.567901234567895,0)" xlink:href="#aU"/><use transform="matrix(0.030864197530864182,0,0,0.030864197530864182,20.49382716049382,0)" xlink:href="#av"/><use transform="matrix(0.030864197530864182,0,0,0.030864197530864182,27.901234567901223,0)" xlink:href="#aZ"/><use transform="matrix(0.030864197530864182,0,0,0.030864197530864182,31.574074074074062,0)" xlink:href="#aQ"/><use transform="matrix(0.030864197530864182,0,0,0.030864197530864182,38.98148148148147,0)" xlink:href="#av"/><use transform="matrix(0.030864197530864182,0,0,0.030864197530864182,46.38888888888887,0)" xlink:href="#ap"/><use transform="matrix(0.030864197530864182,0,0,0.030864197530864182,53.796296296296276,0)" xlink:href="#aI"/><use transform="matrix(0.030864197530864182,0,0,0.030864197530864182,61.20370370370368,0)" xlink:href="#aP"/></g><path fill="#333" d="M30-248c87 1 191-15 191 75 0 78-77 80-158 76V0H30v-248zm33 125c57 0 124 11 124-50 0-59-68-47-124-48v98" id="bb"/><path fill="#333" d="M195 0l-74-108L45 0H8l94-129-87-119h37l69 98 67-98h37l-84 118L233 0h-38" id="bc"/><g id="P"><use transform="matrix(0.030864197530864182,0,0,0.030864197530864182,0,0)" xlink:href="#av"/><use transform="matrix(0.030864197530864182,0,0,0.030864197530864182,7.407407407407404,0)" xlink:href="#bb"/><use transform="matrix(0.030864197530864182,0,0,0.030864197530864182,14.814814814814808,0)" xlink:href="#bb"/><use transform="matrix(0.030864197530864182,0,0,0.030864197530864182,22.22222222222221,0)" xlink:href="#aE"/><use transform="matrix(0.030864197530864182,0,0,0.030864197530864182,30.216049382716033,0)" xlink:href="#ba"/><use transform="matrix(0.030864197530864182,0,0,0.030864197530864182,38.858024691358004,0)" xlink:href="#bc"/><use transform="matrix(0.030864197530864182,0,0,0.030864197530864182,46.26543209876541,0)" xlink:href="#aw"/><use transform="matrix(0.030864197530864182,0,0,0.030864197530864182,49.351851851851826,0)" xlink:href="#aV"/><use transform="matrix(0.030864197530864182,0,0,0.030864197530864182,58.58024691358022,0)" xlink:href="#av"/><use transform="matrix(0.030864197530864182,0,0,0.030864197530864182,65.15432098765429,0)" xlink:href="#aU"/><use transform="matrix(0.030864197530864182,0,0,0.030864197530864182,71.91358024691354,0)" xlink:href="#aw"/><use transform="matrix(0.030864197530864182,0,0,0.030864197530864182,74.99999999999996,0)" xlink:href="#ba"/><use transform="matrix(0.030864197530864182,0,0,0.030864197530864182,83.64197530864193,0)" xlink:href="#aW"/></g><g id="Q"><use transform="matrix(0.030864197530864182,0,0,0.030864197530864182,0,0)" xlink:href="#aw"/><use transform="matrix(0.030864197530864182,0,0,0.030864197530864182,3.0864197530864184,0)" xlink:href="#aW"/><use transform="matrix(0.030864197530864182,0,0,0.030864197530864182,11.080246913580241,0)" xlink:href="#aU"/><use transform="matrix(0.030864197530864182,0,0,0.030864197530864182,17.8395061728395,0)" xlink:href="#aI"/><use transform="matrix(0.030864197530864182,0,0,0.030864197530864182,25.246913580246904,0)" xlink:href="#aE"/><use transform="matrix(0.030864197530864182,0,0,0.030864197530864182,33.240740740740726,0)" xlink:href="#av"/><use transform="matrix(0.030864197530864182,0,0,0.030864197530864182,40.64814814814813,0)" xlink:href="#aG"/><use transform="matrix(0.030864197530864182,0,0,0.030864197530864182,48.64197530864195,0)" xlink:href="#aU"/><use transform="matrix(0.030864197530864182,0,0,0.030864197530864182,55.40123456790121,0)" xlink:href="#aw"/><use transform="matrix(0.030864197530864182,0,0,0.030864197530864182,58.48765432098763,0)" xlink:href="#ba"/><use transform="matrix(0.030864197530864182,0,0,0.030864197530864182,67.1296296296296,0)" xlink:href="#aW"/></g><path fill="#333" d="M197 0v-115H63V0H30v-248h33v105h134v-105h34V0h-34" id="bd"/><g id="R"><use transform="matrix(0.030864197530864182,0,0,0.030864197530864182,0,0)" xlink:href="#aO"/><use transform="matrix(0.030864197530864182,0,0,0.030864197530864182,10.462962962962958,0)" xlink:href="#aw"/><use transform="matrix(0.030864197530864182,0,0,0.030864197530864182,13.549382716049376,0)" xlink:href="#aU"/><use transform="matrix(0.030864197530864182,0,0,0.030864197530864182,20.308641975308632,0)" xlink:href="#bd"/></g><g id="S"><use transform="matrix(0.030864197530864182,0,0,0.030864197530864182,0,0)" xlink:href="#av"/><use transform="matrix(0.030864197530864182,0,0,0.030864197530864182,7.407407407407404,0)" xlink:href="#aw"/></g><g id="T"><use transform="matrix(0.030864197530864182,0,0,0.030864197530864182,0,0)" xlink:href="#aX"/><use transform="matrix(0.030864197530864182,0,0,0.030864197530864182,7.407407407407404,0)" xlink:href="#aw"/><use transform="matrix(0.030864197530864182,0,0,0.030864197530864182,10.493827160493822,0)" xlink:href="#av"/></g><g id="U"><use transform="matrix(0.030864197530864182,0,0,0.030864197530864182,0,0)" xlink:href="#bb"/><use transform="matrix(0.030864197530864182,0,0,0.030864197530864182,7.407407407407404,0)" xlink:href="#aE"/><use transform="matrix(0.030864197530864182,0,0,0.030864197530864182,15.401234567901227,0)" xlink:href="#ba"/><use transform="matrix(0.030864197530864182,0,0,0.030864197530864182,24.043209876543198,0)" xlink:href="#aM"/><use transform="matrix(0.030864197530864182,0,0,0.030864197530864182,32.68518518518517,0)" xlink:href="#aE"/><use transform="matrix(0.030864197530864182,0,0,0.030864197530864182,40.67901234567899,0)" xlink:href="#av"/><use transform="matrix(0.030864197530864182,0,0,0.030864197530864182,48.086419753086396,0)" xlink:href="#aV"/><use transform="matrix(0.030864197530864182,0,0,0.030864197530864182,57.31481481481479,0)" xlink:href="#aV"/><use transform="matrix(0.030864197530864182,0,0,0.030864197530864182,66.54320987654317,0)" xlink:href="#aw"/><use transform="matrix(0.030864197530864182,0,0,0.030864197530864182,69.62962962962959,0)" xlink:href="#aW"/><use transform="matrix(0.030864197530864182,0,0,0.030864197530864182,77.62345679012341,0)" xlink:href="#aM"/></g><g id="V"><use transform="matrix(0.030864197530864182,0,0,0.030864197530864182,0,0)" xlink:href="#aD"/><use transform="matrix(0.030864197530864182,0,0,0.030864197530864182,6.172839506172837,0)" xlink:href="#av"/><use transform="matrix(0.030864197530864182,0,0,0.030864197530864182,13.58024691358024,0)" xlink:href="#aW"/><use transform="matrix(0.030864197530864182,0,0,0.030864197530864182,21.574074074074062,0)" xlink:href="#aM"/><use transform="matrix(0.030864197530864182,0,0,0.030864197530864182,30.216049382716033,0)" xlink:href="#aY"/><use transform="matrix(0.030864197530864182,0,0,0.030864197530864182,38.20987654320986,0)" xlink:href="#av"/><use transform="matrix(0.030864197530864182,0,0,0.030864197530864182,45.617283950617264,0)" xlink:href="#aM"/><use transform="matrix(0.030864197530864182,0,0,0.030864197530864182,54.25925925925924,0)" xlink:href="#aI"/><use transform="matrix(0.030864197530864182,0,0,0.030864197530864182,61.66666666666664,0)" xlink:href="#ap"/></g><g id="W"><use transform="matrix(0.030864197530864182,0,0,0.030864197530864182,0,0)" xlink:href="#aD"/><use transform="matrix(0.030864197530864182,0,0,0.030864197530864182,6.172839506172837,0)" xlink:href="#aD"/><use transform="matrix(0.030864197530864182,0,0,0.030864197530864182,12.345679012345673,0)" xlink:href="#aV"/></g><g id="X"><use transform="matrix(0.030864197530864182,0,0,0.030864197530864182,0,0)" xlink:href="#aw"/><use transform="matrix(0.030864197530864182,0,0,0.030864197530864182,3.0864197530864184,0)" xlink:href="#aW"/><use transform="matrix(0.030864197530864182,0,0,0.030864197530864182,11.080246913580241,0)" xlink:href="#aU"/><use transform="matrix(0.030864197530864182,0,0,0.030864197530864182,17.8395061728395,0)" xlink:href="#aI"/><use transform="matrix(0.030864197530864182,0,0,0.030864197530864182,25.246913580246904,0)" xlink:href="#aE"/><use transform="matrix(0.030864197530864182,0,0,0.030864197530864182,33.240740740740726,0)" xlink:href="#av"/><use transform="matrix(0.030864197530864182,0,0,0.030864197530864182,40.64814814814813,0)" xlink:href="#aG"/><use transform="matrix(0.030864197530864182,0,0,0.030864197530864182,48.64197530864195,0)" xlink:href="#aU"/><use transform="matrix(0.030864197530864182,0,0,0.030864197530864182,55.40123456790121,0)" xlink:href="#aw"/><use transform="matrix(0.030864197530864182,0,0,0.030864197530864182,58.48765432098763,0)" xlink:href="#ba"/><use transform="matrix(0.030864197530864182,0,0,0.030864197530864182,67.1296296296296,0)" xlink:href="#aW"/></g><g id="Y"><use transform="matrix(0.03703703703703702,0,0,0.03703703703703702,0,0)" xlink:href="#aG"/><use transform="matrix(0.03703703703703702,0,0,0.03703703703703702,9.592592592592588,0)" xlink:href="#aA"/><use transform="matrix(0.03703703703703702,0,0,0.03703703703703702,16.999999999999993,0)" xlink:href="#ay"/><use transform="matrix(0.03703703703703702,0,0,0.03703703703703702,24.407407407407398,0)" xlink:href="#ao"/><use transform="matrix(0.03703703703703702,0,0,0.03703703703703702,28.1111111111111,0)" xlink:href="#aM"/><use transform="matrix(0.03703703703703702,0,0,0.03703703703703702,38.48148148148147,0)" xlink:href="#bb"/><use transform="matrix(0.03703703703703702,0,0,0.03703703703703702,47.37037037037035,0)" xlink:href="#aU"/></g><g id="Z"><use transform="matrix(0.03703703703703702,0,0,0.03703703703703702,0,0)" xlink:href="#aH"/><use transform="matrix(0.03703703703703702,0,0,0.03703703703703702,7.407407407407404,0)" xlink:href="#as"/><use transform="matrix(0.03703703703703702,0,0,0.03703703703703702,14.814814814814808,0)" xlink:href="#ar"/><use transform="matrix(0.03703703703703702,0,0,0.03703703703703702,25.88888888888888,0)" xlink:href="#at"/><use transform="matrix(0.03703703703703702,0,0,0.03703703703703702,33.29629629629628,0)" xlink:href="#az"/><use transform="matrix(0.03703703703703702,0,0,0.03703703703703702,39.96296296296295,0)" xlink:href="#am"/><use transform="matrix(0.03703703703703702,0,0,0.03703703703703702,44.37037037037035,0)" xlink:href="#ay"/><use transform="matrix(0.03703703703703702,0,0,0.03703703703703702,51.77777777777776,0)" xlink:href="#ao"/><use transform="matrix(0.03703703703703702,0,0,0.03703703703703702,55.48148148148146,0)" xlink:href="#al"/><use transform="matrix(0.03703703703703702,0,0,0.03703703703703702,58.40740740740738,0)" xlink:href="#an"/><use transform="matrix(0.03703703703703702,0,0,0.03703703703703702,65.07407407407405,0)" xlink:href="#as"/><use transform="matrix(0.03703703703703702,0,0,0.03703703703703702,72.48148148148145,0)" xlink:href="#an"/></g><g id="aa"><use transform="matrix(0.03703703703703702,0,0,0.03703703703703702,0,0)" xlink:href="#aD"/><use transform="matrix(0.03703703703703702,0,0,0.03703703703703702,7.407407407407404,0)" xlink:href="#aD"/><use transform="matrix(0.03703703703703702,0,0,0.03703703703703702,14.814814814814808,0)" xlink:href="#aV"/><use transform="matrix(0.03703703703703702,0,0,0.03703703703703702,25.88888888888888,0)" xlink:href="#ax"/><use transform="matrix(0.03703703703703702,0,0,0.03703703703703702,28.407407407407398,0)" xlink:href="#an"/></g></defs></g></svg>
