<svg xmlns="http://www.w3.org/2000/svg" xmlns:xlink="http://www.w3.org/1999/xlink" xmlns:lucid="lucid" width="1337" height="515"><g transform="translate(-9 -18)" lucid:page-tab-id="GHKNdJZUEBq8"><path d="M320 154.53a6 6 0 0 1 6-6h188a6 6 0 0 1 6 6v54.67a6 6 0 0 1-6 6H326a6 6 0 0 1-6-6z" stroke="#5e5e5e" stroke-width="3" fill="#fff"/><use xlink:href="#a" transform="matrix(1,0,0,1,331.99999999999864,160.53072035506688) translate(30.814814814814838 16.909722222222218)"/><use xlink:href="#b" transform="matrix(1,0,0,1,331.99999999999864,160.53072035506688) translate(98.91358024691357 16.909722222222218)"/><use xlink:href="#c" transform="matrix(1,0,0,1,331.99999999999864,160.53072035506688) translate(54.962962962962976 38.24305555555554)"/><path d="M320 45.38a6 6 0 0 1 6-6h188a6 6 0 0 1 6 6v48a6 6 0 0 1-6 6H326a6 6 0 0 1-6-6z" stroke="#000" stroke-opacity="0" stroke-width="3" fill="#fff" fill-opacity="0"/><use xlink:href="#d" transform="matrix(1,0,0,1,324.99999999999955,44.374856412546706) translate(5.03086419753086 30.27777777777778)"/><use xlink:href="#e" transform="matrix(1,0,0,1,324.99999999999955,44.374856412546706) translate(109.78395061728395 30.27777777777778)"/><path d="M40 151.6a6 6 0 0 1 6-6h188a6 6 0 0 1 6 6v246.66a6 6 0 0 1-6 6H46a6 6 0 0 1-6-6z" stroke="#5e5e5e" stroke-width="3" fill="#fff"/><use xlink:href="#f" transform="matrix(1,0,0,1,52,157.59303875636854) translate(79.60493827160494 14.222222222222214)"/><use xlink:href="#g" transform="matrix(1,0,0,1,52,157.59303875636854) translate(68.81481481481482 35.555555555555536)"/><use xlink:href="#h" transform="matrix(1,0,0,1,52,157.59303875636854) translate(9.679012345679055 56.88888888888886)"/><use xlink:href="#i" transform="matrix(1,0,0,1,52,157.59303875636854) translate(76.5925925925926 56.88888888888886)"/><use xlink:href="#j" transform="matrix(1,0,0,1,52,157.59303875636854) translate(88 78.22222222222217)"/><use xlink:href="#k" transform="matrix(1,0,0,1,52,157.59303875636854) translate(63.40740740740742 99.5555555555555)"/><use xlink:href="#j" transform="matrix(1,0,0,1,52,157.59303875636854) translate(88 120.88888888888881)"/><use xlink:href="#l" transform="matrix(1,0,0,1,52,157.59303875636854) translate(8.641975308642017 142.22222222222211)"/><use xlink:href="#m" transform="matrix(1,0,0,1,52,157.59303875636854) translate(112.14814814814814 142.22222222222211)"/><use xlink:href="#g" transform="matrix(1,0,0,1,52,157.59303875636854) translate(68.81481481481482 163.55555555555543)"/><use xlink:href="#n" transform="matrix(1,0,0,1,52,157.59303875636854) translate(52.02469135802471 184.88888888888874)"/><use xlink:href="#g" transform="matrix(1,0,0,1,52,157.59303875636854) translate(68.81481481481482 206.22222222222206)"/><use xlink:href="#o" transform="matrix(1,0,0,1,52,157.59303875636854) translate(40.666666666666686 227.55555555555537)"/><path d="M40 45.38a6 6 0 0 1 6-6h188a6 6 0 0 1 6 6v51.34a6 6 0 0 1-6 6H46a6 6 0 0 1-6-6z" stroke="#000" stroke-opacity="0" stroke-width="3" fill="#fff" fill-opacity="0"/><use xlink:href="#p" transform="matrix(1,0,0,1,45,44.381296875256304) translate(28.611111111111114 21.15277777777778)"/><use xlink:href="#q" transform="matrix(1,0,0,1,45,44.381296875256304) translate(108.79629629629629 21.15277777777778)"/><use xlink:href="#r" transform="matrix(1,0,0,1,45,44.381296875256304) translate(2.0061728395061778 47.81944444444444)"/><use xlink:href="#s" transform="matrix(1,0,0,1,45,44.381296875256304) translate(27.870370370370374 47.81944444444444)"/><use xlink:href="#t" transform="matrix(1,0,0,1,45,44.381296875256304) translate(73.42592592592592 47.81944444444444)"/><use xlink:href="#u" transform="matrix(1,0,0,1,45,44.381296875256304) translate(101.75925925925925 47.81944444444444)"/><path d="M600 154.52a6 6 0 0 1 6-6h188a6 6 0 0 1 6 6v54.67a6 6 0 0 1-6 6H606a6 6 0 0 1-6-6z" stroke="#5e5e5e" stroke-width="3" fill="#fff"/><use xlink:href="#v" transform="matrix(1,0,0,1,611.9999999999986,160.52427989235724) translate(16.96296296296299 16.909722222222218)"/><use xlink:href="#w" transform="matrix(1,0,0,1,611.9999999999986,160.52427989235724) translate(70.19753086419755 16.909722222222218)"/><use xlink:href="#x" transform="matrix(1,0,0,1,611.9999999999986,160.52427989235724) translate(147.18518518518516 16.909722222222218)"/><use xlink:href="#y" transform="matrix(1,0,0,1,611.9999999999986,160.52427989235724) translate(5.160493827160536 38.24305555555554)"/><use xlink:href="#z" transform="matrix(1,0,0,1,611.9999999999986,160.52427989235724) translate(104.76543209876543 38.24305555555554)"/><path d="M600 47.04a6 6 0 0 1 6-6h188a6 6 0 0 1 6 6v48a6 6 0 0 1-6 6H606a6 6 0 0 1-6-6z" stroke="#000" stroke-opacity="0" stroke-width="3" fill="#fff" fill-opacity="0"/><use xlink:href="#A" transform="matrix(1,0,0,1,604.9999999999986,46.04152307921322) translate(27.22222222222223 30.27777777777778)"/><use xlink:href="#B" transform="matrix(1,0,0,1,604.9999999999986,46.04152307921322) translate(113.4567901234568 30.27777777777778)"/><path d="M242 274.9h.7l1.17-.1 1.13-.15 1.1-.2 1.1-.26 1.07-.33 1.07-.4 1.07-.43 1.1-.52 1.1-.6 1.12-.7 1.15-.8 1.2-.93 1.26-1.1 1.33-1.26 1.42-1.5 1.54-1.83 1.7-2.22 1.9-2.8 2.22-3.68 2.75-5.15 3.98-8.54 15.63-36.53 2.76-5.15 2.22-3.68 1.9-2.8 1.7-2.24 1.54-1.8 1.42-1.52 1.33-1.27 1.25-1.08 1.2-.92 1.16-.8 1.13-.7 1.1-.6 1.1-.52 1.06-.44 1.07-.4 1.08-.3 1.1-.27 1.1-.2 1.13-.15 1.16-.1h.7" stroke="#5e5e5e" stroke-linejoin="round" fill="none"/><path d="M242.03 275.4h-.53v-.95h.5zM318.5 180.37h-.5v-.95h.5z" stroke="#5e5e5e" stroke-width=".05" fill="#5e5e5e"/><path d="M522 181.86h76" stroke="#5e5e5e" stroke-linejoin="round" fill="none"/><path d="M522 182.34h-.5v-.95h.5zM598.5 182.34h-.5v-.95h.5z" stroke="#5e5e5e" stroke-width=".05" fill="#5e5e5e"/><path d="M1115.43 44.65a6 6 0 0 1 6-6h188a6 6 0 0 1 6 6V96a6 6 0 0 1-6 6h-188a6 6 0 0 1-6-6z" stroke="#000" stroke-opacity="0" stroke-width="3" fill="#fff" fill-opacity="0"/><use xlink:href="#C" transform="matrix(1,0,0,1,1120.4330708661369,43.65312050120152) translate(56.75925925925926 31.27777777777778)"/><path d="M1115.43 154.53a6 6 0 0 1 6-6h188a6 6 0 0 1 6 6v54.67a6 6 0 0 1-6 6h-188a6 6 0 0 1-6-6z" stroke="#5e5e5e" stroke-width="3" fill="#fff"/><use xlink:href="#D" transform="matrix(1,0,0,1,1127.433070866135,160.53072035506688) translate(48.24691358024693 24.972222222222218)"/><use xlink:href="#E" transform="matrix(1,0,0,1,1127.433070866135,160.53072035506688) translate(71.60493827160495 24.972222222222218)"/><path d="M1113.68 181.64v.45h-95.8v-.46zm-216.1 0v.45l-95.83-.02v-.45z" stroke="#5e5e5e" stroke-width=".05" fill="#5e5e5e"/><path d="M801.76 181.63v.45h-.26v-.45z" fill="#5e5e5e"/><path stroke="#5e5e5e" stroke-width=".05" fill="#5e5e5e"/><path d="M1113.93 181.64v.45h-.25v-.46z" fill="#5e5e5e"/><path stroke="#5e5e5e" stroke-width=".05" fill="#5e5e5e"/><use xlink:href="#F" transform="matrix(1,0,0,1,897.5707305102678,171.19416686038005) translate(0.010000000000005116 14.222222222222223)"/><use xlink:href="#G" transform="matrix(1,0,0,1,897.5707305102678,171.19416686038005) translate(33.491481481481486 14.222222222222223)"/><use xlink:href="#H" transform="matrix(1,0,0,1,897.5707305102678,171.19416686038005) translate(68.0593827160494 14.222222222222223)"/><path d="M320 247.6a6 6 0 0 1 6-6h188a6 6 0 0 1 6 6v54.66a6 6 0 0 1-6 6H326a6 6 0 0 1-6-6z" stroke="#5e5e5e" stroke-width="3" fill="#fff"/><use xlink:href="#I" transform="matrix(1,0,0,1,331.99999999999955,253.59303875636755) translate(26.00000000000003 16.909722222222218)"/><use xlink:href="#J" transform="matrix(1,0,0,1,331.99999999999955,253.59303875636755) translate(67.08641975308643 16.909722222222218)"/><use xlink:href="#K" transform="matrix(1,0,0,1,331.99999999999955,253.59303875636755) translate(86.8395061728395 16.909722222222218)"/><use xlink:href="#L" transform="matrix(1,0,0,1,331.99999999999955,253.59303875636755) translate(54.962962962962976 38.24305555555554)"/><path d="M600 247.6a6 6 0 0 1 6-6h188a6 6 0 0 1 6 6v54.65a6 6 0 0 1-6 6H606a6 6 0 0 1-6-6z" stroke="#5e5e5e" stroke-width="3" fill="#fff"/><use xlink:href="#M" transform="matrix(1,0,0,1,611.9999999999995,253.58659829365791) translate(17.506172839506206 24.972222222222218)"/><use xlink:href="#N" transform="matrix(1,0,0,1,611.9999999999995,253.58659829365791) translate(117.11111111111111 24.972222222222218)"/><path d="M522 274.93h76" stroke="#5e5e5e" stroke-linejoin="round" fill="none"/><path d="M522 275.4h-.5v-.95h.5zM598.5 275.4h-.5v-.95h.5z" stroke="#5e5e5e" stroke-width=".05" fill="#5e5e5e"/><path d="M1115.43 247.6a6 6 0 0 1 6-6h188a6 6 0 0 1 6 6v54.66a6 6 0 0 1-6 6h-188a6 6 0 0 1-6-6z" stroke="#5e5e5e" stroke-width="3" fill="#fff"/><use xlink:href="#O" transform="matrix(1,0,0,1,1127.433070866136,253.59303875636755) translate(47.58024691358027 24.972222222222218)"/><use xlink:href="#E" transform="matrix(1,0,0,1,1127.433070866136,253.59303875636755) translate(72.27160493827162 24.972222222222218)"/><path d="M1113.43 274.45v.95h-101v-.95zm-210.43 0v.95H802v-.95z" stroke="#5e5e5e" stroke-width=".05" fill="#5e5e5e"/><path d="M802.02 274.44v.95h-.52v-.95z" fill="#5e5e5e"/><path stroke="#5e5e5e" stroke-width=".05" fill="#5e5e5e"/><path d="M1113.93 274.45v.95h-.5v-.95z" fill="#5e5e5e"/><path stroke="#5e5e5e" stroke-width=".05" fill="#5e5e5e"/><use xlink:href="#P" transform="matrix(1,0,0,1,903.0028292757007,264.25648526168067) translate(0 14.222222222222223)"/><use xlink:href="#Q" transform="matrix(1,0,0,1,903.0028292757007,264.25648526168067) translate(22.617283950617285 14.222222222222223)"/><use xlink:href="#H" transform="matrix(1,0,0,1,903.0028292757007,264.25648526168067) translate(57.18518518518519 14.222222222222223)"/><path d="M320 339.93a6 6 0 0 1 6-6h188a6 6 0 0 1 6 6v54.67a6 6 0 0 1-6 6H326a6 6 0 0 1-6-6z" stroke="#5e5e5e" stroke-width="3" fill="#fff"/><use xlink:href="#R" transform="matrix(1,0,0,1,331.99999999999955,345.93362124632307) translate(30.76543209876545 16.909722222222218)"/><use xlink:href="#S" transform="matrix(1,0,0,1,331.99999999999955,345.93362124632307) translate(54.962962962962976 38.24305555555554)"/><path d="M600 339.93a6 6 0 0 1 6-6h188a6 6 0 0 1 6 6v54.66a6 6 0 0 1-6 6H606a6 6 0 0 1-6-6z" stroke="#5e5e5e" stroke-width="3" fill="#fff"/><use xlink:href="#T" transform="matrix(1,0,0,1,611.9999999999995,345.92718078361344) translate(9.580246913580282 24.972222222222218)"/><use xlink:href="#U" transform="matrix(1,0,0,1,611.9999999999995,345.92718078361344) translate(90.41975308641976 24.972222222222218)"/><path d="M522 367.27h76" stroke="#5e5e5e" stroke-linejoin="round" fill="none"/><path d="M522 367.74h-.5v-.95h.5zM598.5 367.74h-.5v-.95h.5z" stroke="#5e5e5e" stroke-width=".05" fill="#5e5e5e"/><path d="M1115.43 340.65a6 6 0 0 1 6-6h188a6 6 0 0 1 6 6v54.67a6 6 0 0 1-6 6h-188a6 6 0 0 1-6-6z" stroke="#5e5e5e" stroke-width="3" fill="#fff"/><use xlink:href="#V" transform="matrix(1,0,0,1,1127.433070866136,346.6553571576682) translate(52.51851851851853 24.972222222222218)"/><use xlink:href="#E" transform="matrix(1,0,0,1,1127.433070866136,346.6553571576682) translate(67.33333333333334 24.972222222222218)"/><path d="M1113.68 367.04v.45h-95.8v-.46zm-216.1 0v.45h-95.83v-.46z" stroke="#5e5e5e" stroke-width=".05" fill="#5e5e5e"/><path d="M801.76 367.04v.45h-.26v-.46z" fill="#5e5e5e"/><path stroke="#5e5e5e" stroke-width=".05" fill="#5e5e5e"/><path d="M1113.93 367.04v.45h-.25v-.46z" fill="#5e5e5e"/><path stroke="#5e5e5e" stroke-width=".05" fill="#5e5e5e"/><g><use xlink:href="#F" transform="matrix(1,0,0,1,897.5707298501345,356.5970677516362) translate(0 14.222222222222223)"/><use xlink:href="#W" transform="matrix(1,0,0,1,897.5707298501345,356.5970677516362) translate(33.48148148148148 14.222222222222223)"/><use xlink:href="#H" transform="matrix(1,0,0,1,897.5707298501345,356.5970677516362) translate(68.0493827160494 14.222222222222223)"/></g><path d="M320 433.72a6 6 0 0 1 6-6h188a6 6 0 0 1 6 6v54.66a6 6 0 0 1-6 6H326a6 6 0 0 1-6-6z" stroke="#5e5e5e" stroke-width="3" fill="#fff"/><g><use xlink:href="#X" transform="matrix(1,0,0,1,331.99999999999955,439.717675558969) translate(43.16049382716051 16.909722222222218)"/><use xlink:href="#Y" transform="matrix(1,0,0,1,331.99999999999955,439.717675558969) translate(59.90123456790125 38.24305555555554)"/></g><path d="M600 433.7a6 6 0 0 1 6-6h188a6 6 0 0 1 6 6v54.68a6 6 0 0 1-6 6H606a6 6 0 0 1-6-6z" stroke="#5e5e5e" stroke-width="3" fill="#fff"/><g><use xlink:href="#T" transform="matrix(1,0,0,1,611.9999999999995,439.7112350962594) translate(9.580246913580282 24.972222222222218)"/><use xlink:href="#U" transform="matrix(1,0,0,1,611.9999999999995,439.7112350962594) translate(90.41975308641976 24.972222222222218)"/></g><path d="M522 461.05h76" stroke="#5e5e5e" stroke-linejoin="round" fill="none"/><path d="M522 461.53h-.5v-.95h.5zM598.5 461.53h-.5v-.95h.5z" stroke="#5e5e5e" stroke-width=".05" fill="#5e5e5e"/><path d="M1115.43 434.44a6 6 0 0 1 6-6h188a6 6 0 0 1 6 6v54.67a6 6 0 0 1-6 6h-188a6 6 0 0 1-6-6z" stroke="#5e5e5e" stroke-width="3" fill="#fff"/><g><use xlink:href="#Z" transform="matrix(1,0,0,1,1127.433070866136,440.43941147031416) translate(47.58024691358027 24.972222222222218)"/><use xlink:href="#E" transform="matrix(1,0,0,1,1127.433070866136,440.43941147031416) translate(72.27160493827162 24.972222222222218)"/></g><path d="M1113.68 460.83v.45h-95.8v-.46zm-216.1 0v.44h-95.83v-.45z" stroke="#5e5e5e" stroke-width=".05" fill="#5e5e5e"/><path d="M801.76 460.82v.45h-.26v-.45z" fill="#5e5e5e"/><path stroke="#5e5e5e" stroke-width=".05" fill="#5e5e5e"/><path d="M1113.93 460.83v.45h-.25v-.45z" fill="#5e5e5e"/><path stroke="#5e5e5e" stroke-width=".05" fill="#5e5e5e"/><g><use xlink:href="#F" transform="matrix(1,0,0,1,897.5707298501345,450.3811220642821) translate(0 14.222222222222223)"/><use xlink:href="#aa" transform="matrix(1,0,0,1,897.5707298501345,450.3811220642821) translate(33.48148148148148 14.222222222222223)"/><use xlink:href="#H" transform="matrix(1,0,0,1,897.5707298501345,450.3811220642821) translate(68.0493827160494 14.222222222222223)"/></g><path d="M242 274.93h76" stroke="#5e5e5e" stroke-linejoin="round" fill="none"/><path d="M242 275.4h-.5v-.95h.5zM318.5 275.4h-.5v-.95h.5z" stroke="#5e5e5e" stroke-width=".05" fill="#5e5e5e"/><path d="M242 274.94l.78.02 1.23.1 1.2.16 1.16.23 1.14.28 1.13.35 1.13.4 1.13.5 1.13.56 1.16.66 1.18.76 1.22.88 1.28 1.03 1.35 1.2 1.43 1.44 1.54 1.72 1.68 2.1 1.9 2.63 2.17 3.4 2.65 4.72 3.67 7.45 17.13 38.6 2.65 4.7 2.18 3.42 1.9 2.63 1.67 2.1 1.54 1.72 1.43 1.42 1.35 1.2 1.27 1.03 1.22.88 1.2.76 1.15.65 1.14.57 1.14.48 1.13.42 1.13.34 1.14.3 1.16.2 1.2.17 1.22.1.78.02" stroke="#5e5e5e" stroke-linejoin="round" fill="none"/><path d="M242.03 274.46l-.03.96-.5-.02v-.95zM318.5 366.8v.94h-.5v-.95z" stroke="#5e5e5e" stroke-width=".05" fill="#5e5e5e"/><path d="M242 461.76l76-.7" stroke="#5e5e5e" stroke-linejoin="round" fill="none"/><path d="M242.02 462.24h-.52v-.95h.5zM318.5 461.53h-.5l-.02-.95h.52z" stroke="#5e5e5e" stroke-width=".05" fill="#5e5e5e"/><path d="M40 423.3a6 6 0 0 1 6-6h188a6 6 0 0 1 6 6v76.92a6 6 0 0 1-6 6H46a6 6 0 0 1-6-6z" stroke="#5e5e5e" stroke-width="3" fill="#fff"/><g><use xlink:href="#f" transform="matrix(1,0,0,1,52,429.31442633805364) translate(79.60493827160494 16.253472222222214)"/><use xlink:href="#g" transform="matrix(1,0,0,1,52,429.31442633805364) translate(68.81481481481482 37.586805555555536)"/><use xlink:href="#h" transform="matrix(1,0,0,1,52,429.31442633805364) translate(9.679012345679055 58.92013888888886)"/><use xlink:href="#ab" transform="matrix(1,0,0,1,52,429.31442633805364) translate(76.5925925925926 58.92013888888886)"/></g><path d="M880 44.65a6 6 0 0 1 6-6h143.43a6 6 0 0 1 6 6v48a6 6 0 0 1-6 6H886a6 6 0 0 1-6-6z" stroke="#000" stroke-opacity="0" stroke-width="3" fill="#fff" fill-opacity="0"/><g><use xlink:href="#ac" transform="matrix(1,0,0,1,884.9999999999977,43.6531205012015) translate(18.123456790123456 30.27777777777778)"/></g><path d="M50.94 549.16h478.92v88.9H50.93z" fill="none"/><g><use xlink:href="#ad" transform="matrix(1,0,0,1,50.93482804668531,549.1558639425202) translate(1.6604938271605079 35.611111111111114)"/><use xlink:href="#ae" transform="matrix(1,0,0,1,50.93482804668531,549.1558639425202) translate(53.450617283950635 35.611111111111114)"/><use xlink:href="#af" transform="matrix(1,0,0,1,50.93482804668531,549.1558639425202) translate(123.63580246913581 35.611111111111114)"/><use xlink:href="#ag" transform="matrix(1,0,0,1,50.93482804668531,549.1558639425202) translate(199.99382716049382 35.611111111111114)"/><use xlink:href="#ah" transform="matrix(1,0,0,1,50.93482804668531,549.1558639425202) translate(248.0185185185185 35.611111111111114)"/><use xlink:href="#ai" transform="matrix(1,0,0,1,50.93482804668531,549.1558639425202) translate(298.51234567901236 35.611111111111114)"/><use xlink:href="#aj" transform="matrix(1,0,0,1,50.93482804668531,549.1558639425202) translate(379.9320987654321 35.611111111111114)"/><use xlink:href="#ak" transform="matrix(1,0,0,1,50.93482804668531,549.1558639425202) translate(440.3024691358025 35.611111111111114)"/><use xlink:href="#al" transform="matrix(1,0,0,1,50.93482804668531,549.1558639425202) translate(124.22222222222223 62.27777777777778)"/><use xlink:href="#ah" transform="matrix(1,0,0,1,50.93482804668531,549.1558639425202) translate(167.4320987654321 62.27777777777778)"/><use xlink:href="#am" transform="matrix(1,0,0,1,50.93482804668531,549.1558639425202) translate(217.92592592592592 62.27777777777778)"/></g><defs><path fill="#333" d="M185-189c-5-48-123-54-124 2 14 75 158 14 163 119 3 78-121 87-175 55-17-10-28-26-33-46l33-7c5 56 141 63 141-1 0-78-155-14-162-118-5-82 145-84 179-34 5 7 8 16 11 25" id="an"/><path fill="#333" d="M96-169c-40 0-48 33-48 73s9 75 48 75c24 0 41-14 43-38l32 2c-6 37-31 61-74 61-59 0-76-41-82-99-10-93 101-131 147-64 4 7 5 14 7 22l-32 3c-4-21-16-35-41-35" id="ao"/><path fill="#333" d="M24-231v-30h32v30H24zM24 0v-190h32V0H24" id="ap"/><path fill="#333" d="M100-194c63 0 86 42 84 106H49c0 40 14 67 53 68 26 1 43-12 49-29l28 8c-11 28-37 45-77 45C44 4 14-33 15-96c1-61 26-98 85-98zm52 81c6-60-76-77-97-28-3 7-6 17-6 28h103" id="aq"/><path fill="#333" d="M117-194c89-4 53 116 60 194h-32v-121c0-31-8-49-39-48C34-167 62-67 57 0H25l-1-190h30c1 10-1 24 2 32 11-22 29-35 61-36" id="ar"/><g id="a"><use transform="matrix(0.0493827160493827,0,0,0.0493827160493827,0,0)" xlink:href="#an"/><use transform="matrix(0.0493827160493827,0,0,0.0493827160493827,11.851851851851848,0)" xlink:href="#ao"/><use transform="matrix(0.0493827160493827,0,0,0.0493827160493827,20.740740740740733,0)" xlink:href="#ap"/><use transform="matrix(0.0493827160493827,0,0,0.0493827160493827,24.641975308641968,0)" xlink:href="#aq"/><use transform="matrix(0.0493827160493827,0,0,0.0493827160493827,34.518518518518505,0)" xlink:href="#ar"/><use transform="matrix(0.0493827160493827,0,0,0.0493827160493827,44.39506172839504,0)" xlink:href="#ao"/><use transform="matrix(0.0493827160493827,0,0,0.0493827160493827,53.283950617283935,0)" xlink:href="#aq"/></g><path fill="#333" d="M30-248c118-7 216 8 213 122C240-48 200 0 122 0H30v-248zM63-27c89 8 146-16 146-99s-60-101-146-95v194" id="as"/><path fill="#333" d="M114-163C36-179 61-72 57 0H25l-1-190h30c1 12-1 29 2 39 6-27 23-49 58-41v29" id="at"/><path fill="#333" d="M59-47c-2 24 18 29 38 22v24C64 9 27 4 27-40v-127H5v-23h24l9-43h21v43h35v23H59v120" id="au"/><g id="b"><use transform="matrix(0.0493827160493827,0,0,0.0493827160493827,0,0)" xlink:href="#as"/><use transform="matrix(0.0493827160493827,0,0,0.0493827160493827,12.79012345679012,0)" xlink:href="#ap"/><use transform="matrix(0.0493827160493827,0,0,0.0493827160493827,16.691358024691354,0)" xlink:href="#at"/><use transform="matrix(0.0493827160493827,0,0,0.0493827160493827,22.567901234567895,0)" xlink:href="#aq"/><use transform="matrix(0.0493827160493827,0,0,0.0493827160493827,32.444444444444436,0)" xlink:href="#ao"/><use transform="matrix(0.0493827160493827,0,0,0.0493827160493827,41.33333333333332,0)" xlink:href="#au"/></g><path fill="#333" d="M87 75C49 33 22-17 22-94c0-76 28-126 65-167h31c-38 41-64 92-64 168S80 34 118 75H87" id="av"/><path fill="#333" d="M134-131c28 9 52 24 51 62-1 50-34 73-85 73S17-19 16-69c0-36 21-54 49-61-75-25-45-126 34-121 46 3 78 18 79 63 0 33-17 51-44 57zm-34-11c31 1 46-15 46-44 0-28-17-43-47-42-29 0-46 13-45 42 1 28 16 44 46 44zm1 122c35 0 51-18 51-52 0-30-18-46-53-46-33 0-51 17-51 47 0 34 19 51 53 51" id="aw"/><path fill="#333" d="M101-251c82-7 93 87 43 132L82-64C71-53 59-42 53-27h129V0H18c2-99 128-94 128-182 0-28-16-43-45-43s-46 15-49 41l-32-3c6-41 34-60 81-64" id="ax"/><path fill="#333" d="M33 0v-38h34V0H33" id="ay"/><path fill="#333" d="M27 0v-27h64v-190l-56 39v-29l58-41h29v221h61V0H27" id="az"/><path fill="#333" d="M54-142c48-35 137-8 131 61C196 18 31 33 14-55l32-4c7 23 22 37 52 37 35-1 51-22 54-58 4-55-73-65-99-34H22l8-134h141v27H59" id="aA"/><path fill="#333" d="M33-261c38 41 65 92 65 168S71 34 33 75H2C39 34 66-17 66-93S39-220 2-261h31" id="aB"/><g id="c"><use transform="matrix(0.0493827160493827,0,0,0.0493827160493827,0,0)" xlink:href="#av"/><use transform="matrix(0.0493827160493827,0,0,0.0493827160493827,5.876543209876541,0)" xlink:href="#aw"/><use transform="matrix(0.0493827160493827,0,0,0.0493827160493827,15.753086419753082,0)" xlink:href="#ax"/><use transform="matrix(0.0493827160493827,0,0,0.0493827160493827,25.629629629629623,0)" xlink:href="#ay"/><use transform="matrix(0.0493827160493827,0,0,0.0493827160493827,30.567901234567884,0)" xlink:href="#aw"/><use transform="matrix(0.0493827160493827,0,0,0.0493827160493827,40.44444444444443,0)" xlink:href="#az"/><use transform="matrix(0.0493827160493827,0,0,0.0493827160493827,50.320987654320966,0)" xlink:href="#aA"/><use transform="matrix(0.0493827160493827,0,0,0.0493827160493827,60.197530864197496,0)" xlink:href="#aB"/></g><path fill="#333" d="M169-182c-1-43-94-46-97-3 18 66 151 10 154 114 3 95-165 93-204 36-6-8-10-19-12-30l50-8c3 46 112 56 116 5-17-69-150-10-154-114-4-87 153-88 188-35 5 8 8 18 10 28" id="aC"/><path fill="#333" d="M190-63c-7 42-38 67-86 67-59 0-84-38-90-98-12-110 154-137 174-36l-49 2c-2-19-15-32-35-32-30 0-35 28-38 64-6 74 65 87 74 30" id="aD"/><path fill="#333" d="M25-224v-37h50v37H25zM25 0v-190h50V0H25" id="aE"/><path fill="#333" d="M185-48c-13 30-37 53-82 52C43 2 14-33 14-96s30-98 90-98c62 0 83 45 84 108H66c0 31 8 55 39 56 18 0 30-7 34-22zm-45-69c5-46-57-63-70-21-2 6-4 13-4 21h74" id="aF"/><path fill="#333" d="M135-194c87-1 58 113 63 194h-50c-7-57 23-157-34-157-59 0-34 97-39 157H25l-1-190h47c2 12-1 28 3 38 12-26 28-41 61-42" id="aG"/><path fill="#333" d="M115-3C79 11 28 4 28-45v-112H4v-33h27l15-45h31v45h36v33H77v99c-1 23 16 31 38 25v30" id="aH"/><path fill="#333" d="M121-226c-27-7-43 5-38 36h38v33H83V0H34v-157H6v-33h28c-9-59 32-81 87-68v32" id="aI"/><g id="d"><use transform="matrix(0.06172839506172839,0,0,0.06172839506172839,0,0)" xlink:href="#aC"/><use transform="matrix(0.06172839506172839,0,0,0.06172839506172839,14.814814814814813,0)" xlink:href="#aD"/><use transform="matrix(0.06172839506172839,0,0,0.06172839506172839,27.160493827160494,0)" xlink:href="#aE"/><use transform="matrix(0.06172839506172839,0,0,0.06172839506172839,33.333333333333336,0)" xlink:href="#aF"/><use transform="matrix(0.06172839506172839,0,0,0.06172839506172839,45.67901234567901,0)" xlink:href="#aG"/><use transform="matrix(0.06172839506172839,0,0,0.06172839506172839,59.19753086419753,0)" xlink:href="#aH"/><use transform="matrix(0.06172839506172839,0,0,0.06172839506172839,66.54320987654322,0)" xlink:href="#aE"/><use transform="matrix(0.06172839506172839,0,0,0.06172839506172839,72.71604938271605,0)" xlink:href="#aI"/><use transform="matrix(0.06172839506172839,0,0,0.06172839506172839,80.06172839506173,0)" xlink:href="#aE"/><use transform="matrix(0.06172839506172839,0,0,0.06172839506172839,86.23456790123457,0)" xlink:href="#aD"/></g><path fill="#333" d="M24-248c93 1 206-16 204 79-1 75-69 88-152 82V0H24v-248zm52 121c47 0 100 7 100-41 0-47-54-39-100-39v80" id="aJ"/><path fill="#333" d="M110-194c64 0 96 36 96 99 0 64-35 99-97 99-61 0-95-36-95-99 0-62 34-99 96-99zm-1 164c35 0 45-28 45-65 0-40-10-65-43-65-34 0-45 26-45 65 0 36 10 65 43 65" id="aK"/><path fill="#333" d="M135-150c-39-12-60 13-60 57V0H25l-1-190h47c2 13-1 29 3 40 6-28 27-53 61-41v41" id="aL"/><path fill="#333" d="M133-34C117-15 103 5 69 4 32 3 11-16 11-54c-1-60 55-63 116-61 1-26-3-47-28-47-18 1-26 9-28 27l-52-2c7-38 36-58 82-57s74 22 75 68l1 82c-1 14 12 18 25 15v27c-30 8-71 5-69-32zm-48 3c29 0 43-24 42-57-32 0-66-3-65 30 0 17 8 27 23 27" id="aM"/><path fill="#333" d="M25 0v-261h50V0H25" id="aN"/><path fill="#333" d="M137-138c1-29-70-34-71-4 15 46 118 7 119 86 1 83-164 76-172 9l43-7c4 19 20 25 44 25 33 8 57-30 24-41C81-84 22-81 20-136c-2-80 154-74 161-7" id="aO"/><g id="e"><use transform="matrix(0.06172839506172839,0,0,0.06172839506172839,0,0)" xlink:href="#aJ"/><use transform="matrix(0.06172839506172839,0,0,0.06172839506172839,14.814814814814813,0)" xlink:href="#aK"/><use transform="matrix(0.06172839506172839,0,0,0.06172839506172839,28.33333333333333,0)" xlink:href="#aL"/><use transform="matrix(0.06172839506172839,0,0,0.06172839506172839,36.9753086419753,0)" xlink:href="#aH"/><use transform="matrix(0.06172839506172839,0,0,0.06172839506172839,44.32098765432098,0)" xlink:href="#aM"/><use transform="matrix(0.06172839506172839,0,0,0.06172839506172839,56.66666666666666,0)" xlink:href="#aN"/><use transform="matrix(0.06172839506172839,0,0,0.06172839506172839,62.8395061728395,0)" xlink:href="#aO"/></g><path fill="#333" d="M205 0l-28-72H64L36 0H1l101-248h38L239 0h-34zm-38-99l-47-123c-12 45-31 82-46 123h93" id="aP"/><path fill="#333" d="M33 0v-248h34V0H33" id="aQ"/><g id="f"><use transform="matrix(0.049382716049382686,0,0,0.049382716049382686,0,0)" xlink:href="#aP"/><use transform="matrix(0.049382716049382686,0,0,0.049382716049382686,11.851851851851844,0)" xlink:href="#aQ"/></g><path fill="#333" d="M140-251c81 0 123 46 123 126C263-46 219 4 140 4 59 4 17-45 17-125s42-126 123-126zm0 227c63 0 89-41 89-101s-29-99-89-99c-61 0-89 39-89 99S79-25 140-24" id="aR"/><path fill="#333" d="M233-177c-1 41-23 64-60 70L243 0h-38l-65-103H63V0H30v-248c88 3 205-21 203 71zM63-129c60-2 137 13 137-47 0-61-80-42-137-45v92" id="aS"/><g id="g"><use transform="matrix(0.049382716049382686,0,0,0.049382716049382686,0,0)" xlink:href="#av"/><use transform="matrix(0.049382716049382686,0,0,0.049382716049382686,5.87654320987654,0)" xlink:href="#aR"/><use transform="matrix(0.049382716049382686,0,0,0.049382716049382686,19.70370370370369,0)" xlink:href="#aS"/><use transform="matrix(0.049382716049382686,0,0,0.049382716049382686,32.49382716049381,0)" xlink:href="#aB"/></g><path fill="#333" d="M101-234c-31-9-42 10-38 44h38v23H63V0H32v-167H5v-23h27c-7-52 17-82 69-68v24" id="aT"/><path fill="#333" d="M141-36C126-15 110 5 73 4 37 3 15-17 15-53c-1-64 63-63 125-63 3-35-9-54-41-54-24 1-41 7-42 31l-33-3c5-37 33-52 76-52 45 0 72 20 72 64v82c-1 20 7 32 28 27v20c-31 9-61-2-59-35zM48-53c0 20 12 33 32 33 41-3 63-29 60-74-43 2-92-5-92 41" id="aU"/><path fill="#333" d="M24 0v-261h32V0H24" id="aV"/><g id="h"><use transform="matrix(0.049382716049382686,0,0,0.049382716049382686,0,0)" xlink:href="#aP"/><use transform="matrix(0.049382716049382686,0,0,0.049382716049382686,11.851851851851844,0)" xlink:href="#at"/><use transform="matrix(0.049382716049382686,0,0,0.049382716049382686,17.728395061728385,0)" xlink:href="#au"/><use transform="matrix(0.049382716049382686,0,0,0.049382716049382686,22.666666666666654,0)" xlink:href="#ap"/><use transform="matrix(0.049382716049382686,0,0,0.049382716049382686,26.567901234567884,0)" xlink:href="#aT"/><use transform="matrix(0.049382716049382686,0,0,0.049382716049382686,31.506172839506153,0)" xlink:href="#ap"/><use transform="matrix(0.049382716049382686,0,0,0.049382716049382686,35.40740740740738,0)" xlink:href="#ao"/><use transform="matrix(0.049382716049382686,0,0,0.049382716049382686,44.29629629629627,0)" xlink:href="#ap"/><use transform="matrix(0.049382716049382686,0,0,0.049382716049382686,48.1975308641975,0)" xlink:href="#aU"/><use transform="matrix(0.049382716049382686,0,0,0.049382716049382686,58.07407407407404,0)" xlink:href="#aV"/></g><path fill="#333" d="M177-190C167-65 218 103 67 71c-23-6-38-20-44-43l32-5c15 47 100 32 89-28v-30C133-14 115 1 83 1 29 1 15-40 15-95c0-56 16-97 71-98 29-1 48 16 59 35 1-10 0-23 2-32h30zM94-22c36 0 50-32 50-73 0-42-14-75-50-75-39 0-46 34-46 75s6 73 46 73" id="aW"/><g id="i"><use transform="matrix(0.049382716049382686,0,0,0.049382716049382686,0,0)" xlink:href="#aQ"/><use transform="matrix(0.049382716049382686,0,0,0.049382716049382686,4.938271604938269,0)" xlink:href="#ar"/><use transform="matrix(0.049382716049382686,0,0,0.049382716049382686,14.814814814814806,0)" xlink:href="#au"/><use transform="matrix(0.049382716049382686,0,0,0.049382716049382686,19.753086419753075,0)" xlink:href="#aq"/><use transform="matrix(0.049382716049382686,0,0,0.049382716049382686,29.629629629629612,0)" xlink:href="#aV"/><use transform="matrix(0.049382716049382686,0,0,0.049382716049382686,33.530864197530846,0)" xlink:href="#aV"/><use transform="matrix(0.049382716049382686,0,0,0.049382716049382686,37.43209876543208,0)" xlink:href="#ap"/><use transform="matrix(0.049382716049382686,0,0,0.049382716049382686,41.333333333333314,0)" xlink:href="#aW"/><use transform="matrix(0.049382716049382686,0,0,0.049382716049382686,51.20987654320986,0)" xlink:href="#aq"/><use transform="matrix(0.049382716049382686,0,0,0.049382716049382686,61.086419753086396,0)" xlink:href="#ar"/><use transform="matrix(0.049382716049382686,0,0,0.049382716049382686,70.96296296296293,0)" xlink:href="#ao"/><use transform="matrix(0.049382716049382686,0,0,0.049382716049382686,79.85185185185182,0)" xlink:href="#aq"/></g><path fill="#333" d="M190 0L58-211 59 0H30v-248h39L202-35l-2-213h31V0h-41" id="aX"/><g id="k"><use transform="matrix(0.049382716049382686,0,0,0.049382716049382686,0,0)" xlink:href="#av"/><use transform="matrix(0.049382716049382686,0,0,0.049382716049382686,5.87654320987654,0)" xlink:href="#aP"/><use transform="matrix(0.049382716049382686,0,0,0.049382716049382686,17.728395061728385,0)" xlink:href="#aX"/><use transform="matrix(0.049382716049382686,0,0,0.049382716049382686,30.5185185185185,0)" xlink:href="#as"/><use transform="matrix(0.049382716049382686,0,0,0.049382716049382686,43.30864197530862,0)" xlink:href="#aB"/></g><path fill="#333" d="M106-169C34-169 62-67 57 0H25v-261h32l-1 103c12-21 28-36 61-36 89 0 53 116 60 194h-32v-121c2-32-8-49-39-48" id="aY"/><path fill="#333" d="M84 4C-5 8 30-112 23-190h32v120c0 31 7 50 39 49 72-2 45-101 50-169h31l1 190h-30c-1-10 1-25-2-33-11 22-28 36-60 37" id="aZ"/><g id="l"><use transform="matrix(0.049382716049382686,0,0,0.049382716049382686,0,0)" xlink:href="#aP"/><use transform="matrix(0.049382716049382686,0,0,0.049382716049382686,11.851851851851844,0)" xlink:href="#at"/><use transform="matrix(0.049382716049382686,0,0,0.049382716049382686,17.728395061728385,0)" xlink:href="#ao"/><use transform="matrix(0.049382716049382686,0,0,0.049382716049382686,26.617283950617274,0)" xlink:href="#aY"/><use transform="matrix(0.049382716049382686,0,0,0.049382716049382686,36.49382716049381,0)" xlink:href="#ap"/><use transform="matrix(0.049382716049382686,0,0,0.049382716049382686,40.39506172839504,0)" xlink:href="#au"/><use transform="matrix(0.049382716049382686,0,0,0.049382716049382686,45.333333333333314,0)" xlink:href="#aq"/><use transform="matrix(0.049382716049382686,0,0,0.049382716049382686,55.20987654320985,0)" xlink:href="#ao"/><use transform="matrix(0.049382716049382686,0,0,0.049382716049382686,64.09876543209873,0)" xlink:href="#au"/><use transform="matrix(0.049382716049382686,0,0,0.049382716049382686,69.037037037037,0)" xlink:href="#aZ"/><use transform="matrix(0.049382716049382686,0,0,0.049382716049382686,78.91358024691354,0)" xlink:href="#at"/><use transform="matrix(0.049382716049382686,0,0,0.049382716049382686,84.79012345679008,0)" xlink:href="#aU"/><use transform="matrix(0.049382716049382686,0,0,0.049382716049382686,94.66666666666663,0)" xlink:href="#aV"/></g><path fill="#333" d="M135-143c-3-34-86-38-87 0 15 53 115 12 119 90S17 21 10-45l28-5c4 36 97 45 98 0-10-56-113-15-118-90-4-57 82-63 122-42 12 7 21 19 24 35" id="ba"/><g id="m"><use transform="matrix(0.049382716049382686,0,0,0.049382716049382686,0,0)" xlink:href="#as"/><use transform="matrix(0.049382716049382686,0,0,0.049382716049382686,12.790123456790116,0)" xlink:href="#aq"/><use transform="matrix(0.049382716049382686,0,0,0.049382716049382686,22.666666666666654,0)" xlink:href="#ba"/><use transform="matrix(0.049382716049382686,0,0,0.049382716049382686,31.555555555555536,0)" xlink:href="#ap"/><use transform="matrix(0.049382716049382686,0,0,0.049382716049382686,35.45679012345677,0)" xlink:href="#aW"/><use transform="matrix(0.049382716049382686,0,0,0.049382716049382686,45.33333333333331,0)" xlink:href="#ar"/></g><path fill="#333" d="M160-131c35 5 61 23 61 61C221 17 115-2 30 0v-248c76 3 177-17 177 60 0 33-19 50-47 57zm-97-11c50-1 110 9 110-42 0-47-63-36-110-37v79zm0 115c55-2 124 14 124-45 0-56-70-42-124-44v89" id="bb"/><path fill="#333" d="M85-194c31 0 48 13 60 33l-1-100h32l1 261h-30c-2-10 0-23-3-31C134-8 116 4 85 4 32 4 16-35 15-94c0-66 23-100 70-100zm9 24c-40 0-46 34-46 75 0 40 6 74 45 74 42 0 51-32 51-76 0-42-9-74-50-73" id="bc"/><g id="n"><use transform="matrix(0.049382716049382686,0,0,0.049382716049382686,0,0)" xlink:href="#bb"/><use transform="matrix(0.049382716049382686,0,0,0.049382716049382686,11.851851851851844,0)" xlink:href="#aZ"/><use transform="matrix(0.049382716049382686,0,0,0.049382716049382686,21.72839506172838,0)" xlink:href="#ap"/><use transform="matrix(0.049382716049382686,0,0,0.049382716049382686,25.629629629629616,0)" xlink:href="#aV"/><use transform="matrix(0.049382716049382686,0,0,0.049382716049382686,29.530864197530846,0)" xlink:href="#bc"/><use transform="matrix(0.049382716049382686,0,0,0.049382716049382686,39.40740740740738,0)" xlink:href="#ap"/><use transform="matrix(0.049382716049382686,0,0,0.049382716049382686,43.30864197530862,0)" xlink:href="#ar"/><use transform="matrix(0.049382716049382686,0,0,0.049382716049382686,53.185185185185155,0)" xlink:href="#aW"/><use transform="matrix(0.049382716049382686,0,0,0.049382716049382686,63.06172839506169,0)" xlink:href="#ba"/></g><g id="o"><use transform="matrix(0.049382716049382686,0,0,0.049382716049382686,0,0)" xlink:href="#aP"/><use transform="matrix(0.049382716049382686,0,0,0.049382716049382686,11.851851851851844,0)" xlink:href="#at"/><use transform="matrix(0.049382716049382686,0,0,0.049382716049382686,17.728395061728385,0)" xlink:href="#ao"/><use transform="matrix(0.049382716049382686,0,0,0.049382716049382686,26.617283950617274,0)" xlink:href="#aY"/><use transform="matrix(0.049382716049382686,0,0,0.049382716049382686,36.49382716049381,0)" xlink:href="#ap"/><use transform="matrix(0.049382716049382686,0,0,0.049382716049382686,40.39506172839504,0)" xlink:href="#au"/><use transform="matrix(0.049382716049382686,0,0,0.049382716049382686,45.333333333333314,0)" xlink:href="#aq"/><use transform="matrix(0.049382716049382686,0,0,0.049382716049382686,55.20987654320985,0)" xlink:href="#ao"/><use transform="matrix(0.049382716049382686,0,0,0.049382716049382686,64.09876543209873,0)" xlink:href="#au"/><use transform="matrix(0.049382716049382686,0,0,0.049382716049382686,69.037037037037,0)" xlink:href="#aZ"/><use transform="matrix(0.049382716049382686,0,0,0.049382716049382686,78.91358024691354,0)" xlink:href="#at"/><use transform="matrix(0.049382716049382686,0,0,0.049382716049382686,84.79012345679008,0)" xlink:href="#aq"/></g><path fill="#333" d="M114-157C55-157 80-60 75 0H25v-261h50l-1 109c12-26 28-41 61-42 86-1 58 113 63 194h-50c-7-57 23-157-34-157" id="bd"/><g id="p"><use transform="matrix(0.06172839506172839,0,0,0.06172839506172839,0,0)" xlink:href="#aC"/><use transform="matrix(0.06172839506172839,0,0,0.06172839506172839,14.814814814814813,0)" xlink:href="#aF"/><use transform="matrix(0.06172839506172839,0,0,0.06172839506172839,27.160493827160494,0)" xlink:href="#aM"/><use transform="matrix(0.06172839506172839,0,0,0.06172839506172839,39.50617283950617,0)" xlink:href="#aL"/><use transform="matrix(0.06172839506172839,0,0,0.06172839506172839,48.148148148148145,0)" xlink:href="#aD"/><use transform="matrix(0.06172839506172839,0,0,0.06172839506172839,60.49382716049382,0)" xlink:href="#bd"/></g><path fill="#333" d="M136-208V0H84v-208H4v-40h212v40h-80" id="be"/><path fill="#333" d="M220-157c-53 9-28 100-34 157h-49v-107c1-27-5-49-29-50C55-147 81-57 75 0H25l-1-190h47c2 12-1 28 3 38 10-53 101-56 108 0 13-22 24-43 59-42 82 1 51 116 57 194h-49v-107c-1-25-5-48-29-50" id="bf"/><g id="q"><use transform="matrix(0.06172839506172839,0,0,0.06172839506172839,0,0)" xlink:href="#be"/><use transform="matrix(0.06172839506172839,0,0,0.06172839506172839,11.851851851851851,0)" xlink:href="#aF"/><use transform="matrix(0.06172839506172839,0,0,0.06172839506172839,24.19753086419753,0)" xlink:href="#aL"/><use transform="matrix(0.06172839506172839,0,0,0.06172839506172839,32.839506172839506,0)" xlink:href="#bf"/></g><g id="r"><use transform="matrix(0.06172839506172839,0,0,0.06172839506172839,0,0)" xlink:href="#aE"/><use transform="matrix(0.06172839506172839,0,0,0.06172839506172839,6.172839506172839,0)" xlink:href="#aG"/></g><g id="s"><use transform="matrix(0.06172839506172839,0,0,0.06172839506172839,0,0)" xlink:href="#aH"/><use transform="matrix(0.06172839506172839,0,0,0.06172839506172839,7.345679012345679,0)" xlink:href="#aE"/><use transform="matrix(0.06172839506172839,0,0,0.06172839506172839,13.518518518518519,0)" xlink:href="#aH"/><use transform="matrix(0.06172839506172839,0,0,0.06172839506172839,20.864197530864196,0)" xlink:href="#aN"/><use transform="matrix(0.06172839506172839,0,0,0.06172839506172839,27.037037037037035,0)" xlink:href="#aF"/></g><g id="t"><use transform="matrix(0.06172839506172839,0,0,0.06172839506172839,0,0)" xlink:href="#aK"/><use transform="matrix(0.06172839506172839,0,0,0.06172839506172839,13.518518518518517,0)" xlink:href="#aL"/></g><path fill="#333" d="M135-194c52 0 70 43 70 98 0 56-19 99-73 100-30 1-46-15-58-35L72 0H24l1-261h50v104c11-23 29-37 60-37zM114-30c31 0 40-27 40-66 0-37-7-63-39-63s-41 28-41 65c0 36 8 64 40 64" id="bg"/><g id="u"><use transform="matrix(0.06172839506172839,0,0,0.06172839506172839,0,0)" xlink:href="#aM"/><use transform="matrix(0.06172839506172839,0,0,0.06172839506172839,12.345679012345679,0)" xlink:href="#bg"/><use transform="matrix(0.06172839506172839,0,0,0.06172839506172839,25.864197530864196,0)" xlink:href="#aO"/><use transform="matrix(0.06172839506172839,0,0,0.06172839506172839,38.20987654320987,0)" xlink:href="#aH"/><use transform="matrix(0.06172839506172839,0,0,0.06172839506172839,45.55555555555555,0)" xlink:href="#aL"/><use transform="matrix(0.06172839506172839,0,0,0.06172839506172839,54.197530864197525,0)" xlink:href="#aM"/><use transform="matrix(0.06172839506172839,0,0,0.06172839506172839,66.5432098765432,0)" xlink:href="#aD"/><use transform="matrix(0.06172839506172839,0,0,0.06172839506172839,78.88888888888889,0)" xlink:href="#aH"/></g><path fill="#333" d="M100-194c62-1 85 37 85 99 1 63-27 99-86 99S16-35 15-95c0-66 28-99 85-99zM99-20c44 1 53-31 53-75 0-43-8-75-51-75s-53 32-53 75 10 74 51 75" id="bh"/><g id="v"><use transform="matrix(0.0493827160493827,0,0,0.0493827160493827,0,0)" xlink:href="#an"/><use transform="matrix(0.0493827160493827,0,0,0.0493827160493827,11.851851851851848,0)" xlink:href="#bh"/><use transform="matrix(0.0493827160493827,0,0,0.0493827160493827,21.728395061728385,0)" xlink:href="#ao"/><use transform="matrix(0.0493827160493827,0,0,0.0493827160493827,30.617283950617267,0)" xlink:href="#ap"/><use transform="matrix(0.0493827160493827,0,0,0.0493827160493827,34.518518518518505,0)" xlink:href="#aU"/><use transform="matrix(0.0493827160493827,0,0,0.0493827160493827,44.39506172839504,0)" xlink:href="#aV"/></g><g id="w"><use transform="matrix(0.0493827160493827,0,0,0.0493827160493827,0,0)" xlink:href="#an"/><use transform="matrix(0.0493827160493827,0,0,0.0493827160493827,11.851851851851848,0)" xlink:href="#ao"/><use transform="matrix(0.0493827160493827,0,0,0.0493827160493827,20.740740740740733,0)" xlink:href="#ap"/><use transform="matrix(0.0493827160493827,0,0,0.0493827160493827,24.641975308641968,0)" xlink:href="#aq"/><use transform="matrix(0.0493827160493827,0,0,0.0493827160493827,34.518518518518505,0)" xlink:href="#ar"/><use transform="matrix(0.0493827160493827,0,0,0.0493827160493827,44.39506172839504,0)" xlink:href="#ao"/><use transform="matrix(0.0493827160493827,0,0,0.0493827160493827,53.283950617283935,0)" xlink:href="#aq"/><use transform="matrix(0.0493827160493827,0,0,0.0493827160493827,63.16049382716046,0)" xlink:href="#ba"/></g><path fill="#333" d="M234-2c-28 10-62 0-77-18C117 19 8 12 13-65c3-43 29-61 60-76-25-40-17-114 47-108 35 3 59 15 59 50 0 44-40 53-71 69 14 26 32 50 51 72 14-21 24-43 30-72l26 8c-9 33-21 57-38 82 13 13 33 22 57 15v23zM97-151c25-10 52-18 56-48-1-18-13-29-33-29-42 0-39 50-23 77zM42-66c-3 51 71 58 98 28-20-24-41-51-56-80-23 10-40 24-42 52" id="bi"/><use transform="matrix(0.0493827160493827,0,0,0.0493827160493827,0,0)" xlink:href="#bi" id="x"/><path fill="#333" d="M30 0v-248h187v28H63v79h144v27H63v87h162V0H30" id="bj"/><g id="y"><use transform="matrix(0.0493827160493827,0,0,0.0493827160493827,0,0)" xlink:href="#bj"/><use transform="matrix(0.0493827160493827,0,0,0.0493827160493827,11.851851851851848,0)" xlink:href="#ar"/><use transform="matrix(0.0493827160493827,0,0,0.0493827160493827,21.728395061728385,0)" xlink:href="#aW"/><use transform="matrix(0.0493827160493827,0,0,0.0493827160493827,31.604938271604922,0)" xlink:href="#ap"/><use transform="matrix(0.0493827160493827,0,0,0.0493827160493827,35.506172839506156,0)" xlink:href="#ar"/><use transform="matrix(0.0493827160493827,0,0,0.0493827160493827,45.382716049382694,0)" xlink:href="#aq"/><use transform="matrix(0.0493827160493827,0,0,0.0493827160493827,55.25925925925923,0)" xlink:href="#aq"/><use transform="matrix(0.0493827160493827,0,0,0.0493827160493827,65.13580246913577,0)" xlink:href="#at"/><use transform="matrix(0.0493827160493827,0,0,0.0493827160493827,71.01234567901231,0)" xlink:href="#ap"/><use transform="matrix(0.0493827160493827,0,0,0.0493827160493827,74.91358024691354,0)" xlink:href="#ar"/><use transform="matrix(0.0493827160493827,0,0,0.0493827160493827,84.79012345679008,0)" xlink:href="#aW"/></g><path fill="#333" d="M99-251c64 0 84 50 84 122C183-37 130 33 47-8c-14-7-20-23-25-40l30-5c6 39 69 39 84 7 9-19 16-44 16-74-10 22-31 35-62 35-49 0-73-33-73-83 0-54 28-83 82-83zm-1 141c31-1 51-18 51-49 0-36-14-67-51-67-34 0-49 23-49 58 0 34 15 58 49 58" id="bk"/><path fill="#333" d="M101-251c68 0 85 55 85 127S166 4 100 4C33 4 14-52 14-124c0-73 17-127 87-127zm-1 229c47 0 54-49 54-102s-4-102-53-102c-51 0-55 48-55 102 0 53 5 102 54 102" id="bl"/><g id="z"><use transform="matrix(0.0493827160493827,0,0,0.0493827160493827,0,0)" xlink:href="#av"/><use transform="matrix(0.0493827160493827,0,0,0.0493827160493827,5.876543209876541,0)" xlink:href="#ax"/><use transform="matrix(0.0493827160493827,0,0,0.0493827160493827,15.753086419753082,0)" xlink:href="#bk"/><use transform="matrix(0.0493827160493827,0,0,0.0493827160493827,25.629629629629623,0)" xlink:href="#ay"/><use transform="matrix(0.0493827160493827,0,0,0.0493827160493827,30.567901234567884,0)" xlink:href="#bl"/><use transform="matrix(0.0493827160493827,0,0,0.0493827160493827,40.44444444444443,0)" xlink:href="#aw"/><use transform="matrix(0.0493827160493827,0,0,0.0493827160493827,50.320987654320966,0)" xlink:href="#aA"/><use transform="matrix(0.0493827160493827,0,0,0.0493827160493827,60.197530864197496,0)" xlink:href="#aB"/></g><path fill="#333" d="M85 4C-2 5 27-109 22-190h50c7 57-23 150 33 157 60-5 35-97 40-157h50l1 190h-47c-2-12 1-28-3-38-12 25-28 42-61 42" id="bm"/><path fill="#333" d="M25-224v-37h50v37H25zM75 22c2 45-34 59-81 51V38c22 5 31-5 31-27v-201h50V22" id="bn"/><g id="A"><use transform="matrix(0.06172839506172839,0,0,0.06172839506172839,0,0)" xlink:href="#aC"/><use transform="matrix(0.06172839506172839,0,0,0.06172839506172839,14.814814814814813,0)" xlink:href="#bm"/><use transform="matrix(0.06172839506172839,0,0,0.06172839506172839,28.33333333333333,0)" xlink:href="#bg"/><use transform="matrix(0.06172839506172839,0,0,0.06172839506172839,41.85185185185185,0)" xlink:href="#bn"/><use transform="matrix(0.06172839506172839,0,0,0.06172839506172839,48.02469135802469,0)" xlink:href="#aF"/><use transform="matrix(0.06172839506172839,0,0,0.06172839506172839,60.37037037037037,0)" xlink:href="#aD"/><use transform="matrix(0.06172839506172839,0,0,0.06172839506172839,72.71604938271605,0)" xlink:href="#aH"/></g><path fill="#333" d="M199 0l-22-63H83L61 0H9l90-248h61L250 0h-51zm-33-102l-36-108c-10 38-24 72-36 108h72" id="bo"/><g id="B"><use transform="matrix(0.06172839506172839,0,0,0.06172839506172839,0,0)" xlink:href="#bo"/><use transform="matrix(0.06172839506172839,0,0,0.06172839506172839,15.987654320987653,0)" xlink:href="#aL"/><use transform="matrix(0.06172839506172839,0,0,0.06172839506172839,24.629629629629626,0)" xlink:href="#aF"/><use transform="matrix(0.06172839506172839,0,0,0.06172839506172839,36.9753086419753,0)" xlink:href="#aM"/></g><path fill="#333" d="M240-174c0 40-23 61-54 70L253 0h-59l-57-94H76V0H24v-248c93 4 217-23 216 74zM76-134c48-2 112 12 112-38 0-48-66-32-112-35v73" id="bp"/><path fill="#333" d="M128 0H69L1-190h53L99-40l48-150h52" id="bq"/><path fill="#333" d="M231 0h-52l-39-155L100 0H48L-1-190h46L77-45c9-52 24-97 36-145h53l37 145 32-145h46" id="br"/><g id="C"><use transform="matrix(0.06172839506172839,0,0,0.06172839506172839,0,0)" xlink:href="#bp"/><use transform="matrix(0.06172839506172839,0,0,0.06172839506172839,15.987654320987653,0)" xlink:href="#aF"/><use transform="matrix(0.06172839506172839,0,0,0.06172839506172839,28.333333333333332,0)" xlink:href="#bq"/><use transform="matrix(0.06172839506172839,0,0,0.06172839506172839,40.67901234567901,0)" xlink:href="#aE"/><use transform="matrix(0.06172839506172839,0,0,0.06172839506172839,46.851851851851855,0)" xlink:href="#aF"/><use transform="matrix(0.06172839506172839,0,0,0.06172839506172839,59.19753086419753,0)" xlink:href="#br"/></g><g id="D"><use transform="matrix(0.0493827160493827,0,0,0.0493827160493827,0,0)" xlink:href="#az"/><use transform="matrix(0.0493827160493827,0,0,0.0493827160493827,8.543209876543207,0)" xlink:href="#az"/></g><g id="E"><use transform="matrix(0.0493827160493827,0,0,0.0493827160493827,0,0)" xlink:href="#aU"/><use transform="matrix(0.0493827160493827,0,0,0.0493827160493827,9.876543209876539,0)" xlink:href="#at"/><use transform="matrix(0.0493827160493827,0,0,0.0493827160493827,15.753086419753082,0)" xlink:href="#au"/><use transform="matrix(0.0493827160493827,0,0,0.0493827160493827,20.69135802469135,0)" xlink:href="#ap"/><use transform="matrix(0.0493827160493827,0,0,0.0493827160493827,24.592592592592585,0)" xlink:href="#ao"/><use transform="matrix(0.0493827160493827,0,0,0.0493827160493827,33.48148148148147,0)" xlink:href="#aV"/><use transform="matrix(0.0493827160493827,0,0,0.0493827160493827,37.3827160493827,0)" xlink:href="#aq"/><use transform="matrix(0.0493827160493827,0,0,0.0493827160493827,47.25925925925924,0)" xlink:href="#ba"/></g><g id="F"><use transform="matrix(0.04938271604938272,0,0,0.04938271604938272,0,0)" xlink:href="#aT"/><use transform="matrix(0.04938271604938272,0,0,0.04938271604938272,4.938271604938272,0)" xlink:href="#ap"/><use transform="matrix(0.04938271604938272,0,0,0.04938271604938272,8.839506172839506,0)" xlink:href="#at"/><use transform="matrix(0.04938271604938272,0,0,0.04938271604938272,14.71604938271605,0)" xlink:href="#ba"/><use transform="matrix(0.04938271604938272,0,0,0.04938271604938272,23.60493827160494,0)" xlink:href="#au"/></g><g id="G"><use transform="matrix(0.04938271604938272,0,0,0.04938271604938272,0,0)" xlink:href="#ax"/><use transform="matrix(0.04938271604938272,0,0,0.04938271604938272,9.876543209876544,0)" xlink:href="#bl"/><use transform="matrix(0.04938271604938272,0,0,0.04938271604938272,19.75308641975309,0)" xlink:href="#bl"/></g><g id="H"><use transform="matrix(0.04938271604938272,0,0,0.04938271604938272,0,0)" xlink:href="#at"/><use transform="matrix(0.04938271604938272,0,0,0.04938271604938272,5.8765432098765435,0)" xlink:href="#aq"/><use transform="matrix(0.04938271604938272,0,0,0.04938271604938272,15.753086419753087,0)" xlink:href="#ba"/><use transform="matrix(0.04938271604938272,0,0,0.04938271604938272,24.641975308641978,0)" xlink:href="#aZ"/><use transform="matrix(0.04938271604938272,0,0,0.04938271604938272,34.51851851851852,0)" xlink:href="#aV"/><use transform="matrix(0.04938271604938272,0,0,0.04938271604938272,38.41975308641975,0)" xlink:href="#au"/><use transform="matrix(0.04938271604938272,0,0,0.04938271604938272,43.358024691358025,0)" xlink:href="#ba"/></g><path fill="#333" d="M266 0h-40l-56-210L115 0H75L2-248h35L96-30l15-64 43-154h32l59 218 59-218h35" id="bs"/><path fill="#333" d="M115-194c53 0 69 39 70 98 0 66-23 100-70 100C84 3 66-7 56-30L54 0H23l1-261h32v101c10-23 28-34 59-34zm-8 174c40 0 45-34 45-75 0-40-5-75-45-74-42 0-51 32-51 76 0 43 10 73 51 73" id="bt"/><g id="I"><use transform="matrix(0.0493827160493827,0,0,0.0493827160493827,0,0)" xlink:href="#bs"/><use transform="matrix(0.0493827160493827,0,0,0.0493827160493827,16.395061728395053,0)" xlink:href="#aq"/><use transform="matrix(0.0493827160493827,0,0,0.0493827160493827,26.271604938271597,0)" xlink:href="#bt"/></g><g id="J"><use transform="matrix(0.0493827160493827,0,0,0.0493827160493827,0,0)" xlink:href="#bh"/><use transform="matrix(0.0493827160493827,0,0,0.0493827160493827,9.876543209876539,0)" xlink:href="#aT"/></g><g id="K"><use transform="matrix(0.0493827160493827,0,0,0.0493827160493827,0,0)" xlink:href="#an"/><use transform="matrix(0.0493827160493827,0,0,0.0493827160493827,11.851851851851848,0)" xlink:href="#ao"/><use transform="matrix(0.0493827160493827,0,0,0.0493827160493827,20.740740740740733,0)" xlink:href="#ap"/><use transform="matrix(0.0493827160493827,0,0,0.0493827160493827,24.641975308641968,0)" xlink:href="#aq"/><use transform="matrix(0.0493827160493827,0,0,0.0493827160493827,34.518518518518505,0)" xlink:href="#ar"/><use transform="matrix(0.0493827160493827,0,0,0.0493827160493827,44.39506172839504,0)" xlink:href="#ao"/><use transform="matrix(0.0493827160493827,0,0,0.0493827160493827,53.283950617283935,0)" xlink:href="#aq"/></g><g id="L"><use transform="matrix(0.0493827160493827,0,0,0.0493827160493827,0,0)" xlink:href="#av"/><use transform="matrix(0.0493827160493827,0,0,0.0493827160493827,5.876543209876541,0)" xlink:href="#ax"/><use transform="matrix(0.0493827160493827,0,0,0.0493827160493827,15.753086419753082,0)" xlink:href="#az"/><use transform="matrix(0.0493827160493827,0,0,0.0493827160493827,25.629629629629623,0)" xlink:href="#ay"/><use transform="matrix(0.0493827160493827,0,0,0.0493827160493827,30.567901234567884,0)" xlink:href="#ax"/><use transform="matrix(0.0493827160493827,0,0,0.0493827160493827,40.44444444444443,0)" xlink:href="#aw"/><use transform="matrix(0.0493827160493827,0,0,0.0493827160493827,50.320987654320966,0)" xlink:href="#ax"/><use transform="matrix(0.0493827160493827,0,0,0.0493827160493827,60.197530864197496,0)" xlink:href="#aB"/></g><g id="M"><use transform="matrix(0.0493827160493827,0,0,0.0493827160493827,0,0)" xlink:href="#aP"/><use transform="matrix(0.0493827160493827,0,0,0.0493827160493827,11.851851851851848,0)" xlink:href="#at"/><use transform="matrix(0.0493827160493827,0,0,0.0493827160493827,17.72839506172839,0)" xlink:href="#ao"/><use transform="matrix(0.0493827160493827,0,0,0.0493827160493827,26.617283950617274,0)" xlink:href="#aY"/><use transform="matrix(0.0493827160493827,0,0,0.0493827160493827,36.493827160493815,0)" xlink:href="#ap"/><use transform="matrix(0.0493827160493827,0,0,0.0493827160493827,40.39506172839505,0)" xlink:href="#au"/><use transform="matrix(0.0493827160493827,0,0,0.0493827160493827,45.33333333333332,0)" xlink:href="#aq"/><use transform="matrix(0.0493827160493827,0,0,0.0493827160493827,55.20987654320986,0)" xlink:href="#ao"/><use transform="matrix(0.0493827160493827,0,0,0.0493827160493827,64.09876543209874,0)" xlink:href="#au"/><use transform="matrix(0.0493827160493827,0,0,0.0493827160493827,69.03703703703701,0)" xlink:href="#aZ"/><use transform="matrix(0.0493827160493827,0,0,0.0493827160493827,78.91358024691355,0)" xlink:href="#at"/><use transform="matrix(0.0493827160493827,0,0,0.0493827160493827,84.7901234567901,0)" xlink:href="#aq"/></g><g id="N"><use transform="matrix(0.0493827160493827,0,0,0.0493827160493827,0,0)" xlink:href="#av"/><use transform="matrix(0.0493827160493827,0,0,0.0493827160493827,5.876543209876541,0)" xlink:href="#ax"/><use transform="matrix(0.0493827160493827,0,0,0.0493827160493827,15.753086419753082,0)" xlink:href="#az"/><use transform="matrix(0.0493827160493827,0,0,0.0493827160493827,25.629629629629623,0)" xlink:href="#bk"/><use transform="matrix(0.0493827160493827,0,0,0.0493827160493827,35.506172839506156,0)" xlink:href="#aB"/></g><g id="O"><use transform="matrix(0.0493827160493827,0,0,0.0493827160493827,0,0)" xlink:href="#ax"/><use transform="matrix(0.0493827160493827,0,0,0.0493827160493827,9.876543209876539,0)" xlink:href="#az"/></g><g id="P"><use transform="matrix(0.04938271604938272,0,0,0.04938271604938272,0,0)" xlink:href="#aU"/><use transform="matrix(0.04938271604938272,0,0,0.04938271604938272,9.876543209876544,0)" xlink:href="#aV"/><use transform="matrix(0.04938271604938272,0,0,0.04938271604938272,13.777777777777779,0)" xlink:href="#aV"/></g><g id="Q"><use transform="matrix(0.04938271604938272,0,0,0.04938271604938272,0,0)" xlink:href="#ax"/><use transform="matrix(0.04938271604938272,0,0,0.04938271604938272,9.876543209876544,0)" xlink:href="#az"/><use transform="matrix(0.04938271604938272,0,0,0.04938271604938272,19.75308641975309,0)" xlink:href="#bk"/></g><path fill="#333" d="M143 4C61 4 22-44 18-125c-5-107 100-154 193-111 17 8 29 25 37 43l-32 9c-13-25-37-40-76-40-61 0-88 39-88 99 0 61 29 100 91 101 35 0 62-11 79-27v-45h-74v-28h105v86C228-13 192 4 143 4" id="bu"/><g id="R"><use transform="matrix(0.0493827160493827,0,0,0.0493827160493827,0,0)" xlink:href="#aS"/><use transform="matrix(0.0493827160493827,0,0,0.0493827160493827,12.79012345679012,0)" xlink:href="#aq"/><use transform="matrix(0.0493827160493827,0,0,0.0493827160493827,22.666666666666657,0)" xlink:href="#ba"/><use transform="matrix(0.0493827160493827,0,0,0.0493827160493827,31.555555555555546,0)" xlink:href="#aq"/><use transform="matrix(0.0493827160493827,0,0,0.0493827160493827,41.43209876543208,0)" xlink:href="#aU"/><use transform="matrix(0.0493827160493827,0,0,0.0493827160493827,51.30864197530861,0)" xlink:href="#at"/><use transform="matrix(0.0493827160493827,0,0,0.0493827160493827,57.18518518518517,0)" xlink:href="#ao"/><use transform="matrix(0.0493827160493827,0,0,0.0493827160493827,66.07407407407405,0)" xlink:href="#aY"/><use transform="matrix(0.0493827160493827,0,0,0.0493827160493827,75.95061728395059,0)" xlink:href="#bu"/><use transform="matrix(0.0493827160493827,0,0,0.0493827160493827,89.77777777777774,0)" xlink:href="#aU"/><use transform="matrix(0.0493827160493827,0,0,0.0493827160493827,99.65432098765429,0)" xlink:href="#au"/><use transform="matrix(0.0493827160493827,0,0,0.0493827160493827,104.59259259259255,0)" xlink:href="#aq"/></g><path fill="#333" d="M126-127c33 6 58 20 58 59 0 88-139 92-164 29-3-8-5-16-6-25l32-3c6 27 21 44 54 44 32 0 52-15 52-46 0-38-36-46-79-43v-28c39 1 72-4 72-42 0-27-17-43-46-43-28 0-47 15-49 41l-32-3c6-42 35-63 81-64 48-1 79 21 79 65 0 36-21 52-52 59" id="bv"/><g id="S"><use transform="matrix(0.0493827160493827,0,0,0.0493827160493827,0,0)" xlink:href="#av"/><use transform="matrix(0.0493827160493827,0,0,0.0493827160493827,5.876543209876541,0)" xlink:href="#aA"/><use transform="matrix(0.0493827160493827,0,0,0.0493827160493827,15.753086419753082,0)" xlink:href="#bv"/><use transform="matrix(0.0493827160493827,0,0,0.0493827160493827,25.629629629629623,0)" xlink:href="#ay"/><use transform="matrix(0.0493827160493827,0,0,0.0493827160493827,30.567901234567884,0)" xlink:href="#aw"/><use transform="matrix(0.0493827160493827,0,0,0.0493827160493827,40.44444444444443,0)" xlink:href="#aw"/><use transform="matrix(0.0493827160493827,0,0,0.0493827160493827,50.320987654320966,0)" xlink:href="#bl"/><use transform="matrix(0.0493827160493827,0,0,0.0493827160493827,60.197530864197496,0)" xlink:href="#aB"/></g><path fill="#333" d="M125-24c46 0 70-25 89-51l25 16C214-24 183 4 123 4 8 4-5-146 60-208c32-50 158-61 191-5 5 7 9 14 11 22l-32 10c-9-28-33-43-69-43-74 0-108 51-108 125 0 46 24 75 72 75" id="bw"/><path fill="#333" d="M30-147c31-64 166-65 159 27C183-49 158 1 86 4 9 8 1-88 30-147zM88-20c53 0 68-48 68-100 0-31-11-51-44-50-52 1-68 46-68 97 0 32 13 53 44 53" id="bx"/><path fill="#333" d="M248-111c6-24 9-61-24-58-72 9-57 108-77 169h-31l26-142c3-37-50-30-64-10C52-115 50-51 37 0H6l36-190h30c-1 10-6 24-4 32 13-43 101-52 105 5 13-22 29-41 61-41 90 0 28 129 23 194h-31" id="by"/><path fill="#333" d="M67-162c32-53 139-36 121 50C175-51 163 2 97 4 68 4 52-11 42-31 38 6 28 39 22 75H-9l50-265h29c-1 10 0 20-3 28zm89 36c0-26-10-43-35-43-54 0-67 50-69 103-1 29 14 45 42 46 53 0 62-58 62-106" id="bz"/><path fill="#333" d="M6 0l50-261h32L37 0H6" id="bA"/><path fill="#333" d="M111-194c62-3 86 47 72 106H45c-7 38 6 69 45 68 27-1 43-14 53-32l24 11C152-15 129 4 87 4 38 3 12-23 12-71c0-70 32-119 99-123zm44 81c14-66-71-72-95-28-4 8-8 17-11 28h106" id="bB"/><path fill="#333" d="M51-54c-9 22 5 41 31 30L79-1C43 14 10-4 19-52l22-115H19l5-23h22l19-43h21l-9 43h35l-4 23H73" id="bC"/><g id="T"><use transform="matrix(0.0493827160493827,0,0,0.0493827160493827,0,0)" xlink:href="#bw"/><use transform="matrix(0.0493827160493827,0,0,0.0493827160493827,12.79012345679012,0)" xlink:href="#bx"/><use transform="matrix(0.0493827160493827,0,0,0.0493827160493827,22.666666666666657,0)" xlink:href="#by"/><use transform="matrix(0.0493827160493827,0,0,0.0493827160493827,37.43209876543209,0)" xlink:href="#bz"/><use transform="matrix(0.0493827160493827,0,0,0.0493827160493827,47.308641975308625,0)" xlink:href="#bA"/><use transform="matrix(0.0493827160493827,0,0,0.0493827160493827,51.20987654320986,0)" xlink:href="#bB"/><use transform="matrix(0.0493827160493827,0,0,0.0493827160493827,61.086419753086396,0)" xlink:href="#bC"/><use transform="matrix(0.0493827160493827,0,0,0.0493827160493827,66.02469135802467,0)" xlink:href="#bB"/></g><path fill="#333" d="M248-139C247-14 144 9 11 0l48-248c105-6 190 8 189 109zm-34 0c1-70-52-87-126-82L50-27c98 7 163-21 164-112" id="bD"/><path fill="#333" d="M165-48c-4 18 1 34 23 27l-3 20c-29 8-62 0-52-35h-2C116-14 99 4 63 4 30 4 8-16 8-49c0-68 71-67 138-67 10-26 0-56-31-54-26 1-42 9-47 31l-32-5c8-67 160-71 144 15-5 28-9 54-15 81zM42-50c3 52 80 24 89-6 7-12 7-24 11-38-47 1-103-4-100 44" id="bE"/><path fill="#333" d="M68-162c25-46 127-43 121 31C183-60 169 1 98 4 69 5 53-11 43-31L36 0H5l52-261h31zm88 36c2-27-9-43-34-43-55 0-70 51-70 103 0 29 15 45 43 46 52 0 58-58 61-106" id="bF"/><path fill="#333" d="M55-144c13 50 104 24 104 88C159 21 15 23 1-39l26-10c6 40 102 42 102-4-13-50-104-23-104-87 0-71 143-71 148-8l-29 4c-5-35-85-37-89 0" id="bG"/><g id="U"><use transform="matrix(0.0493827160493827,0,0,0.0493827160493827,0,0)" xlink:href="#bD"/><use transform="matrix(0.0493827160493827,0,0,0.0493827160493827,12.79012345679012,0)" xlink:href="#bE"/><use transform="matrix(0.0493827160493827,0,0,0.0493827160493827,22.666666666666657,0)" xlink:href="#bC"/><use transform="matrix(0.0493827160493827,0,0,0.0493827160493827,27.604938271604922,0)" xlink:href="#bE"/><use transform="matrix(0.0493827160493827,0,0,0.0493827160493827,37.48148148148147,0)" xlink:href="#bF"/><use transform="matrix(0.0493827160493827,0,0,0.0493827160493827,47.358024691358004,0)" xlink:href="#bE"/><use transform="matrix(0.0493827160493827,0,0,0.0493827160493827,57.234567901234534,0)" xlink:href="#bG"/><use transform="matrix(0.0493827160493827,0,0,0.0493827160493827,66.12345679012343,0)" xlink:href="#bB"/></g><use transform="matrix(0.0493827160493827,0,0,0.0493827160493827,0,0)" xlink:href="#aA" id="V"/><g id="W"><use transform="matrix(0.04938271604938272,0,0,0.04938271604938272,0,0)" xlink:href="#az"/><use transform="matrix(0.04938271604938272,0,0,0.04938271604938272,9.876543209876544,0)" xlink:href="#bl"/><use transform="matrix(0.04938271604938272,0,0,0.04938271604938272,19.75308641975309,0)" xlink:href="#bl"/></g><path fill="#333" d="M212-179c-10-28-35-45-73-45-59 0-87 40-87 99 0 60 29 101 89 101 43 0 62-24 78-52l27 14C228-24 195 4 139 4 59 4 22-46 18-125c-6-104 99-153 187-111 19 9 31 26 39 46" id="bH"/><path fill="#333" d="M210-169c-67 3-38 105-44 169h-31v-121c0-29-5-50-35-48C34-165 62-65 56 0H25l-1-190h30c1 10-1 24 2 32 10-44 99-50 107 0 11-21 27-35 58-36 85-2 47 119 55 194h-31v-121c0-29-5-49-35-48" id="bI"/><g id="X"><use transform="matrix(0.0493827160493827,0,0,0.0493827160493827,0,0)" xlink:href="#bH"/><use transform="matrix(0.0493827160493827,0,0,0.0493827160493827,12.79012345679012,0)" xlink:href="#aZ"/><use transform="matrix(0.0493827160493827,0,0,0.0493827160493827,22.666666666666657,0)" xlink:href="#bI"/><use transform="matrix(0.0493827160493827,0,0,0.0493827160493827,37.43209876543209,0)" xlink:href="#aQ"/><use transform="matrix(0.0493827160493827,0,0,0.0493827160493827,42.37037037037036,0)" xlink:href="#ar"/><use transform="matrix(0.0493827160493827,0,0,0.0493827160493827,52.2469135802469,0)" xlink:href="#bH"/><use transform="matrix(0.0493827160493827,0,0,0.0493827160493827,65.03703703703701,0)" xlink:href="#aP"/><use transform="matrix(0.0493827160493827,0,0,0.0493827160493827,76.88888888888886,0)" xlink:href="#as"/></g><g id="Y"><use transform="matrix(0.0493827160493827,0,0,0.0493827160493827,0,0)" xlink:href="#av"/><use transform="matrix(0.0493827160493827,0,0,0.0493827160493827,5.876543209876541,0)" xlink:href="#ax"/><use transform="matrix(0.0493827160493827,0,0,0.0493827160493827,15.753086419753082,0)" xlink:href="#ay"/><use transform="matrix(0.0493827160493827,0,0,0.0493827160493827,20.69135802469135,0)" xlink:href="#bl"/><use transform="matrix(0.0493827160493827,0,0,0.0493827160493827,30.56790123456789,0)" xlink:href="#aw"/><use transform="matrix(0.0493827160493827,0,0,0.0493827160493827,40.44444444444443,0)" xlink:href="#bv"/><use transform="matrix(0.0493827160493827,0,0,0.0493827160493827,50.320987654320966,0)" xlink:href="#aB"/></g><path fill="#333" d="M110-160c48 1 74 30 74 79 0 53-28 85-80 85-65 0-83-55-86-122-5-90 50-162 133-122 14 7 22 21 27 39l-31 6c-5-40-67-38-82-6-9 19-15 44-15 74 11-20 30-34 60-33zm-7 138c34 0 49-23 49-58s-16-56-50-56c-29 0-50 16-49 49 1 36 15 65 50 65" id="bJ"/><g id="Z"><use transform="matrix(0.0493827160493827,0,0,0.0493827160493827,0,0)" xlink:href="#ax"/><use transform="matrix(0.0493827160493827,0,0,0.0493827160493827,9.876543209876539,0)" xlink:href="#bJ"/></g><path fill="#333" d="M155-56V0h-30v-56H8v-25l114-167h33v167h35v25h-35zm-30-156c-27 46-58 90-88 131h88v-131" id="bK"/><g id="aa"><use transform="matrix(0.04938271604938272,0,0,0.04938271604938272,0,0)" xlink:href="#bK"/><use transform="matrix(0.04938271604938272,0,0,0.04938271604938272,9.876543209876544,0)" xlink:href="#bl"/><use transform="matrix(0.04938271604938272,0,0,0.04938271604938272,19.75308641975309,0)" xlink:href="#bl"/></g><g id="ab"><use transform="matrix(0.049382716049382686,0,0,0.049382716049382686,0,0)" xlink:href="#aQ"/><use transform="matrix(0.049382716049382686,0,0,0.049382716049382686,4.938271604938269,0)" xlink:href="#ar"/><use transform="matrix(0.049382716049382686,0,0,0.049382716049382686,14.814814814814806,0)" xlink:href="#au"/><use transform="matrix(0.049382716049382686,0,0,0.049382716049382686,19.753086419753075,0)" xlink:href="#aq"/><use transform="matrix(0.049382716049382686,0,0,0.049382716049382686,29.629629629629612,0)" xlink:href="#aV"/><use transform="matrix(0.049382716049382686,0,0,0.049382716049382686,33.530864197530846,0)" xlink:href="#aV"/><use transform="matrix(0.049382716049382686,0,0,0.049382716049382686,37.43209876543208,0)" xlink:href="#ap"/><use transform="matrix(0.049382716049382686,0,0,0.049382716049382686,41.333333333333314,0)" xlink:href="#aW"/><use transform="matrix(0.049382716049382686,0,0,0.049382716049382686,51.20987654320986,0)" xlink:href="#aq"/><use transform="matrix(0.049382716049382686,0,0,0.049382716049382686,61.086419753086396,0)" xlink:href="#ar"/><use transform="matrix(0.049382716049382686,0,0,0.049382716049382686,70.96296296296293,0)" xlink:href="#ao"/><use transform="matrix(0.049382716049382686,0,0,0.049382716049382686,79.85185185185182,0)" xlink:href="#aq"/></g><g id="ac"><use transform="matrix(0.06172839506172839,0,0,0.06172839506172839,0,0)" xlink:href="#bp"/><use transform="matrix(0.06172839506172839,0,0,0.06172839506172839,15.987654320987653,0)" xlink:href="#aF"/><use transform="matrix(0.06172839506172839,0,0,0.06172839506172839,28.333333333333332,0)" xlink:href="#aN"/><use transform="matrix(0.06172839506172839,0,0,0.06172839506172839,34.50617283950617,0)" xlink:href="#aF"/><use transform="matrix(0.06172839506172839,0,0,0.06172839506172839,46.85185185185185,0)" xlink:href="#bq"/><use transform="matrix(0.06172839506172839,0,0,0.06172839506172839,59.197530864197525,0)" xlink:href="#aM"/><use transform="matrix(0.06172839506172839,0,0,0.06172839506172839,71.5432098765432,0)" xlink:href="#aG"/><use transform="matrix(0.06172839506172839,0,0,0.06172839506172839,85.06172839506172,0)" xlink:href="#aD"/><use transform="matrix(0.06172839506172839,0,0,0.06172839506172839,97.4074074074074,0)" xlink:href="#aF"/></g><path fill="#333" d="M141 0L90-78 38 0H4l68-98-65-92h35l48 74 47-74h35l-64 92 68 98h-35" id="bL"/><g id="ad"><use transform="matrix(0.06172839506172839,0,0,0.06172839506172839,0,0)" xlink:href="#aq"/><use transform="matrix(0.06172839506172839,0,0,0.06172839506172839,12.345679012345679,0)" xlink:href="#bL"/><use transform="matrix(0.06172839506172839,0,0,0.06172839506172839,23.45679012345679,0)" xlink:href="#ao"/><use transform="matrix(0.06172839506172839,0,0,0.06172839506172839,34.5679012345679,0)" xlink:href="#aV"/><use transform="matrix(0.06172839506172839,0,0,0.06172839506172839,39.44444444444444,0)" xlink:href="#ay"/></g><path fill="#333" d="M108 0H70L1-190h34L89-25l56-165h34" id="bM"/><path fill="#333" d="M206 0h-36l-40-164L89 0H53L-1-190h32L70-26l43-164h34l41 164 42-164h31" id="bN"/><g id="ae"><use transform="matrix(0.06172839506172839,0,0,0.06172839506172839,0,0)" xlink:href="#at"/><use transform="matrix(0.06172839506172839,0,0,0.06172839506172839,7.345679012345679,0)" xlink:href="#aq"/><use transform="matrix(0.06172839506172839,0,0,0.06172839506172839,19.691358024691358,0)" xlink:href="#bM"/><use transform="matrix(0.06172839506172839,0,0,0.06172839506172839,30.80246913580247,0)" xlink:href="#ap"/><use transform="matrix(0.06172839506172839,0,0,0.06172839506172839,35.67901234567901,0)" xlink:href="#aq"/><use transform="matrix(0.06172839506172839,0,0,0.06172839506172839,48.02469135802469,0)" xlink:href="#bN"/></g><g id="af"><use transform="matrix(0.06172839506172839,0,0,0.06172839506172839,0,0)" xlink:href="#aU"/><use transform="matrix(0.06172839506172839,0,0,0.06172839506172839,12.345679012345679,0)" xlink:href="#at"/><use transform="matrix(0.06172839506172839,0,0,0.06172839506172839,19.691358024691358,0)" xlink:href="#au"/><use transform="matrix(0.06172839506172839,0,0,0.06172839506172839,25.864197530864196,0)" xlink:href="#ap"/><use transform="matrix(0.06172839506172839,0,0,0.06172839506172839,30.74074074074074,0)" xlink:href="#ao"/><use transform="matrix(0.06172839506172839,0,0,0.06172839506172839,41.85185185185185,0)" xlink:href="#aV"/><use transform="matrix(0.06172839506172839,0,0,0.06172839506172839,46.72839506172839,0)" xlink:href="#aq"/><use transform="matrix(0.06172839506172839,0,0,0.06172839506172839,59.07407407407407,0)" xlink:href="#ba"/></g><g id="ag"><use transform="matrix(0.06172839506172839,0,0,0.06172839506172839,0,0)" xlink:href="#av"/><use transform="matrix(0.06172839506172839,0,0,0.06172839506172839,7.345679012345679,0)" xlink:href="#au"/><use transform="matrix(0.06172839506172839,0,0,0.06172839506172839,13.518518518518519,0)" xlink:href="#bN"/><use transform="matrix(0.06172839506172839,0,0,0.06172839506172839,29.50617283950617,0)" xlink:href="#bh"/></g><g id="ah"><use transform="matrix(0.06172839506172839,0,0,0.06172839506172839,0,0)" xlink:href="#aT"/><use transform="matrix(0.06172839506172839,0,0,0.06172839506172839,6.172839506172839,0)" xlink:href="#at"/><use transform="matrix(0.06172839506172839,0,0,0.06172839506172839,13.518518518518519,0)" xlink:href="#bh"/><use transform="matrix(0.06172839506172839,0,0,0.06172839506172839,25.864197530864196,0)" xlink:href="#bI"/></g><g id="ai"><use transform="matrix(0.06172839506172839,0,0,0.06172839506172839,0,0)" xlink:href="#ba"/><use transform="matrix(0.06172839506172839,0,0,0.06172839506172839,11.11111111111111,0)" xlink:href="#ao"/><use transform="matrix(0.06172839506172839,0,0,0.06172839506172839,22.22222222222222,0)" xlink:href="#ap"/><use transform="matrix(0.06172839506172839,0,0,0.06172839506172839,27.098765432098766,0)" xlink:href="#aq"/><use transform="matrix(0.06172839506172839,0,0,0.06172839506172839,39.44444444444444,0)" xlink:href="#ar"/><use transform="matrix(0.06172839506172839,0,0,0.06172839506172839,51.79012345679012,0)" xlink:href="#ao"/><use transform="matrix(0.06172839506172839,0,0,0.06172839506172839,62.90123456790123,0)" xlink:href="#aq"/></g><g id="aj"><use transform="matrix(0.06172839506172839,0,0,0.06172839506172839,0,0)" xlink:href="#bc"/><use transform="matrix(0.06172839506172839,0,0,0.06172839506172839,12.345679012345679,0)" xlink:href="#ap"/><use transform="matrix(0.06172839506172839,0,0,0.06172839506172839,17.22222222222222,0)" xlink:href="#at"/><use transform="matrix(0.06172839506172839,0,0,0.06172839506172839,24.5679012345679,0)" xlink:href="#aq"/><use transform="matrix(0.06172839506172839,0,0,0.06172839506172839,36.913580246913575,0)" xlink:href="#ao"/><use transform="matrix(0.06172839506172839,0,0,0.06172839506172839,48.02469135802468,0)" xlink:href="#au"/></g><g id="ak"><use transform="matrix(0.06172839506172839,0,0,0.06172839506172839,0,0)" xlink:href="#aU"/><use transform="matrix(0.06172839506172839,0,0,0.06172839506172839,12.345679012345679,0)" xlink:href="#ar"/><use transform="matrix(0.06172839506172839,0,0,0.06172839506172839,24.691358024691358,0)" xlink:href="#bc"/></g><g id="al"><use transform="matrix(0.06172839506172839,0,0,0.06172839506172839,0,0)" xlink:href="#bh"/><use transform="matrix(0.06172839506172839,0,0,0.06172839506172839,12.345679012345679,0)" xlink:href="#ar"/><use transform="matrix(0.06172839506172839,0,0,0.06172839506172839,24.691358024691358,0)" xlink:href="#aq"/></g><g id="am"><use transform="matrix(0.06172839506172839,0,0,0.06172839506172839,0,0)" xlink:href="#at"/><use transform="matrix(0.06172839506172839,0,0,0.06172839506172839,7.345679012345679,0)" xlink:href="#aq"/><use transform="matrix(0.06172839506172839,0,0,0.06172839506172839,19.691358024691358,0)" xlink:href="#ba"/><use transform="matrix(0.06172839506172839,0,0,0.06172839506172839,30.80246913580247,0)" xlink:href="#aq"/><use transform="matrix(0.06172839506172839,0,0,0.06172839506172839,43.148148148148145,0)" xlink:href="#aU"/><use transform="matrix(0.06172839506172839,0,0,0.06172839506172839,55.49382716049382,0)" xlink:href="#at"/><use transform="matrix(0.06172839506172839,0,0,0.06172839506172839,62.8395061728395,0)" xlink:href="#ao"/><use transform="matrix(0.06172839506172839,0,0,0.06172839506172839,73.9506172839506,0)" xlink:href="#aY"/><use transform="matrix(0.06172839506172839,0,0,0.06172839506172839,86.29629629629629,0)" xlink:href="#aW"/><use transform="matrix(0.06172839506172839,0,0,0.06172839506172839,98.64197530864197,0)" xlink:href="#aU"/><use transform="matrix(0.06172839506172839,0,0,0.06172839506172839,110.98765432098766,0)" xlink:href="#au"/><use transform="matrix(0.06172839506172839,0,0,0.06172839506172839,117.1604938271605,0)" xlink:href="#aq"/><use transform="matrix(0.06172839506172839,0,0,0.06172839506172839,129.50617283950618,0)" xlink:href="#aB"/></g></defs></g></svg>
